<svg xmlns="http://www.w3.org/2000/svg" width="213.022" height="28.168" viewBox="0 0 213.022 28.168">
  <g id="Group_35277" data-name="Group 35277" transform="translate(-29.489 -186.213)">
    <path id="Path_43232" data-name="Path 43232" d="M23.179,92.213a2.162,2.162,0,1,0,2.162,2.162,2.165,2.165,0,0,0-2.162-2.162" transform="translate(8.472 94)" fill="#fff"/>
    <path id="Path_43233" data-name="Path 43233" d="M46.368,92.213a2.162,2.162,0,1,0,2.161,2.162,2.165,2.165,0,0,0-2.161-2.162" transform="translate(8.472 94)" fill="#fff"/>
    <path id="Path_43234" data-name="Path 43234" d="M69.557,92.213a2.162,2.162,0,1,0,2.161,2.162,2.165,2.165,0,0,0-2.161-2.162" transform="translate(8.472 94)" fill="#fff"/>
    <path id="Path_43235" data-name="Path 43235" d="M92.745,92.213a2.162,2.162,0,1,0,2.162,2.162,2.165,2.165,0,0,0-2.162-2.162" transform="translate(8.472 94)" fill="#fff"/>
    <path id="Path_43236" data-name="Path 43236" d="M115.934,92.213a2.162,2.162,0,1,0,2.161,2.162,2.165,2.165,0,0,0-2.161-2.162" transform="translate(8.472 94)" fill="#fff"/>
    <path id="Path_43237" data-name="Path 43237" d="M139.122,92.213a2.162,2.162,0,1,0,2.162,2.162,2.165,2.165,0,0,0-2.162-2.162" transform="translate(8.472 94)" fill="#fff"/>
    <path id="Path_43238" data-name="Path 43238" d="M162.311,92.213a2.162,2.162,0,1,0,2.162,2.162,2.165,2.165,0,0,0-2.162-2.162" transform="translate(8.472 94)" fill="#fff"/>
    <path id="Path_43239" data-name="Path 43239" d="M185.5,92.213a2.162,2.162,0,1,0,2.162,2.162,2.165,2.165,0,0,0-2.162-2.162" transform="translate(8.472 94)" fill="#fff"/>
    <path id="Path_43240" data-name="Path 43240" d="M208.688,92.213a2.162,2.162,0,1,0,2.162,2.162,2.165,2.165,0,0,0-2.162-2.162" transform="translate(8.472 94)" fill="#fff"/>
    <path id="Path_43241" data-name="Path 43241" d="M231.877,92.213a2.162,2.162,0,1,0,2.162,2.162,2.165,2.165,0,0,0-2.162-2.162" transform="translate(8.472 94)" fill="#fff"/>
    <path id="Path_43242" data-name="Path 43242" d="M23.179,116.058a2.161,2.161,0,1,0,2.162,2.162,2.165,2.165,0,0,0-2.162-2.162" transform="translate(8.472 94)" fill="#fff"/>
    <path id="Path_43243" data-name="Path 43243" d="M46.368,116.058a2.161,2.161,0,1,0,2.161,2.162,2.165,2.165,0,0,0-2.161-2.162" transform="translate(8.472 94)" fill="#fff"/>
    <path id="Path_43244" data-name="Path 43244" d="M69.557,116.058a2.161,2.161,0,1,0,2.161,2.162,2.165,2.165,0,0,0-2.161-2.162" transform="translate(8.472 94)" fill="#fff"/>
    <path id="Path_43245" data-name="Path 43245" d="M92.745,116.058a2.161,2.161,0,1,0,2.162,2.162,2.165,2.165,0,0,0-2.162-2.162" transform="translate(8.472 94)" fill="#fff"/>
    <path id="Path_43246" data-name="Path 43246" d="M115.934,116.058a2.161,2.161,0,1,0,2.161,2.162,2.165,2.165,0,0,0-2.161-2.162" transform="translate(8.472 94)" fill="#fff"/>
    <path id="Path_43247" data-name="Path 43247" d="M139.122,116.058a2.161,2.161,0,1,0,2.162,2.162,2.165,2.165,0,0,0-2.162-2.162" transform="translate(8.472 94)" fill="#fff"/>
    <path id="Path_43248" data-name="Path 43248" d="M162.311,116.058a2.161,2.161,0,1,0,2.162,2.162,2.165,2.165,0,0,0-2.162-2.162" transform="translate(8.472 94)" fill="#fff"/>
    <path id="Path_43249" data-name="Path 43249" d="M185.5,116.058a2.161,2.161,0,1,0,2.162,2.162,2.165,2.165,0,0,0-2.162-2.162" transform="translate(8.472 94)" fill="#fff"/>
    <path id="Path_43250" data-name="Path 43250" d="M208.688,116.058a2.161,2.161,0,1,0,2.162,2.162,2.165,2.165,0,0,0-2.162-2.162" transform="translate(8.472 94)" fill="#fff"/>
    <path id="Path_43251" data-name="Path 43251" d="M231.877,116.058a2.161,2.161,0,1,0,2.162,2.162,2.165,2.165,0,0,0-2.162-2.162" transform="translate(8.472 94)" fill="#fff"/>
  </g>
</svg>
