<svg xmlns="http://www.w3.org/2000/svg" width="66.765" height="207.704" viewBox="0 0 66.765 207.704">
  <g id="Group_35278" data-name="Group 35278" transform="translate(-1811.617 -529.148)">
    <g id="Group_35143" data-name="Group 35143" transform="translate(800 -201.653)">
      <path id="Path_43253" data-name="Path 43253" d="M21.017,365.977a2.991,2.991,0,1,0,2.991-2.992,3,3,0,0,0-2.991,2.992" transform="translate(990.601 495.201)" fill="#fff"/>
      <path id="Path_43254" data-name="Path 43254" d="M21.017,342.789a2.991,2.991,0,1,0,2.991-2.992,3,3,0,0,0-2.991,2.992" transform="translate(990.601 486.298)" fill="#fff"/>
      <path id="Path_43255" data-name="Path 43255" d="M21.017,319.6a2.991,2.991,0,1,0,2.991-2.992,3,3,0,0,0-2.991,2.992" transform="translate(990.601 477.395)" fill="#fff"/>
      <path id="Path_43256" data-name="Path 43256" d="M44.862,365.977a2.991,2.991,0,1,0,2.991-2.992,3,3,0,0,0-2.991,2.992" transform="translate(999.756 495.201)" fill="#fff"/>
      <path id="Path_43257" data-name="Path 43257" d="M44.862,342.789a2.991,2.991,0,1,0,2.991-2.992,3,3,0,0,0-2.991,2.992" transform="translate(999.756 486.298)" fill="#fff"/>
      <path id="Path_43258" data-name="Path 43258" d="M44.862,319.6a2.991,2.991,0,1,0,2.991-2.992,3,3,0,0,0-2.991,2.992" transform="translate(999.756 477.395)" fill="#fff"/>
      <path id="Path_43259" data-name="Path 43259" d="M620.678,92.213a2.846,2.846,0,1,0,2.847,2.846,2.85,2.85,0,0,0-2.847-2.846" transform="translate(393.786 638.588)" fill="#fff"/>
      <path id="Path_43260" data-name="Path 43260" d="M643.867,92.213a2.846,2.846,0,1,0,2.847,2.846,2.85,2.85,0,0,0-2.847-2.846" transform="translate(401.133 638.588)" fill="#fff"/>
      <path id="Path_43261" data-name="Path 43261" d="M667.055,92.213a2.846,2.846,0,1,0,2.847,2.846,2.85,2.85,0,0,0-2.847-2.846" transform="translate(408.481 638.588)" fill="#fff"/>
      <path id="Path_43262" data-name="Path 43262" d="M620.678,116.058a2.846,2.846,0,1,0,2.847,2.846,2.85,2.85,0,0,0-2.847-2.846" transform="translate(393.786 646.144)" fill="#fff"/>
      <path id="Path_43263" data-name="Path 43263" d="M643.867,116.058a2.846,2.846,0,1,0,2.847,2.846,2.85,2.85,0,0,0-2.847-2.846" transform="translate(401.133 646.144)" fill="#fff"/>
      <path id="Path_43264" data-name="Path 43264" d="M667.055,116.058A2.846,2.846,0,1,0,669.9,118.9a2.85,2.85,0,0,0-2.847-2.846" transform="translate(408.481 646.144)" fill="#fff"/>
      <path id="Path_43265" data-name="Path 43265" d="M667.055,92.213a2.846,2.846,0,1,0,2.847,2.846,2.85,2.85,0,0,0-2.847-2.846" transform="translate(408.481 702.08)" fill="#fff"/>
      <path id="Path_43266" data-name="Path 43266" d="M667.055,116.058A2.846,2.846,0,1,0,669.9,118.9a2.85,2.85,0,0,0-2.847-2.846" transform="translate(408.481 710.327)" fill="#fff"/>
      <path id="Path_43267" data-name="Path 43267" d="M667.055,116.058A2.846,2.846,0,1,0,669.9,118.9a2.85,2.85,0,0,0-2.847-2.846" transform="translate(408.481 742.419)" fill="#fff"/>
      <path id="Path_43268" data-name="Path 43268" d="M205.074,40.865l2.84,6.48,6.48,2.84-6.48,2.84-2.84,6.48-2.84-6.48-6.48-2.84,6.48-2.84Z" transform="translate(815.863 879)" fill="#fff"/>
      <path id="Path_43269" data-name="Path 43269" d="M234.379,40.865l2.84,6.48,6.48,2.84-6.48,2.84-2.84,6.48-2.84-6.48-6.48-2.84,6.48-2.84Z" transform="translate(815.863 869.68)" fill="#fff"/>
    </g>
  </g>
</svg>
