<svg xmlns="http://www.w3.org/2000/svg" xmlns:xlink="http://www.w3.org/1999/xlink" width="725.778" height="627.914" viewBox="0 0 725.778 627.914">
  <defs>
    <clipPath id="clip-path">
      <circle id="Ellipse_2288" data-name="Ellipse 2288" cx="221.5" cy="221.5" r="221.5" transform="translate(0 313.25) rotate(-45)" fill="#fff" stroke="#263238" stroke-miterlimit="10" stroke-width="1"/>
    </clipPath>
    <clipPath id="clip-path-2">
      <path id="Path_43791" data-name="Path 43791" d="M311.941,206.981l21.035,9.458,5.768,9.458,9.478,3.689,1.04,9.988-3.669,5.789-7.358,1.569-15.776-6.319v-2.038l8.928-3.669-3.159-11.047L313.959,218.6l-6.3-8.4ZM444.43,449.842l-16.816-6.828-20.566-7.358H390.741L375.556,432.5l-16.836,3.689-9.458.51h-5.789l-11.027,6.319-10.518,4.2-14.268-8.928,3.669-14.716-8.928-3.689H291.885l-1.569-4.729,1.04-9.458-3.669-5.259-7.358,1.04-2.038,5.259-8.928.53-7.888-9.417-3.22-12.658,7.888-14.716,15.246,1.04,4.2,3.689H291.9l7.888-4.729,6.828,2.038,9.458,16.306,3.689-.51-1.06-12.107-3.139-6.3,1.039-9.988,19.445-8.418,2.629-19.445,8.418-6.828,6.828-12.087,5.259-1.06,12.087-7.888.53-4.2-8.418.53-1.569-4.219h-5.728l-8.928,2.038,4.2-6.828,18.345-5.259,4.2-4.729,7.358,11.557,4.749,4.749,7.358-2.038-3.159-6.828-11.048-7.888L366.547,266.8,353.4,257.856l-12.617-2.038-6.3-6.3-8.418-2.038-1.04,2.038-1.06,15.246,2.038,5.259-4.566,16.857-10.518-8.418,1.59-7.358-11.047-5.259-4.729-5.768,2.629-13.147,15.246-11.047,1.06-12.617-5.789.53-3.689-4.729-1.57-7.888-3.689-.53-2.038,8.418-5.768,1.06L290.5,201.783l-4.219-2.629-7.358-3.159-8.438,4.138,10.5,10.008,2.038,8.928L264.1,204.8l-13.147-14.268-1.04-14.268-13.677-4.2-10.6,7.052a79.136,79.136,0,0,1-7.888,4.2,86.606,86.606,0,0,1-12.617,2.038L203.1,194.3l-12.087.53,1.06,5.768,19.445,3.159,9.988,11.047v18.345l-5.789,16.306,1.06,17.346-14.716,25.764-3.159,38.36,4.729,22.1,6.828,16.816,7.888,1.06-2.629-8.418-4.2-6.319-2.629-11.557,4.729-1.06,7.358,18.936,5.279,17.02v13.677l9.988,12.087,17.937,12.964,27.333,7.358,8.418,7.888,6.3,8.4,9.458,5.789,11.577,3.159,11.557-.53s-.53,5.259-.53,7.888-7.358,11.557-7.358,11.557l-5.768,10.518,4.2,11.557,11.557,4.749,16.306,16.816,7.358,3.159V524.4l.917,3.689A220.685,220.685,0,0,0,465.75,476.177l.285-3.812L480.3,446.6l-6.828-4.729ZM499.117,242.2l-5.789-9.988-7.358-11.577-2.038-15.756,9.458,1.569.53-5.259-6.849-.53,5.789-2.629,6.319-3.669v-5.259l-6.319-8.418-1.345-11.312a221.7,221.7,0,0,0-260.044-63l12.128,8.581-7.358,9.478-9.988,2.038-1.06,14.268-4.2,1.569-5.259,5.789.53,9.458,8.928,1.06-3.628,8.907h8.928l15.246-19.445,1.59-8.4,14.716-1.06,3.669-6.319,15.246-1.569,1.59-8.928,11.027-.53s7.888-4.2,9.478-4.2a64.61,64.61,0,0,1,8.928,2.609L319.87,126H330.9l9.478-5.789,12.087,1.06a13.026,13.026,0,0,0,5.789,2.038c2.629,0,10.5-3.689,10.5-3.689l15.246,9.478,6.319,4.729v7.888l7.888,1.04,2.629-4.729,6.828,3.159-.53,4.2L391.353,149.6,400.3,161.16l18.915,10.518L427.1,182.2l11.577,1.04,2.629-5.259,4.2-1.04-13.677-10.518-8.479-.938,6.828-2.038-6.319-8.928,8.948-.53,11.557,6.3L447,172.9l5.789,6.849L457.516,195l11.557,8.4v17.346l12.107,7.888-.53,5.789-1.59,6.828,3.159,9.458,1.06,4.749,8.928,1.569,4.219-8.948Zm6.828-53v3.017l-2.629,8.4,1.569,7.358,5.789,2.038v9.988l-6.319-2.629-1.508,28.5-6.3,11.577,4.2,14.716,6.828,6.3v28.393l6.828,22.075,7.379,16.836,12.087,3.139,4.2-10.518,1.712-1.325a223.451,223.451,0,0,0,1.712-27.537,220.42,220.42,0,0,0-35.568-120.279Zm-121.461-3.343-34.651-15.246-15.246.53-3.689,9.988-6.3-6.828-11.557,2.629-1.06,17.346,9.458,6.828,6.828-9.988,7.888,7.888,16.306,14.268,3.159,15.246,13.656,17.346,22.075-3.669-.51-7.888-4.729-8.948-1.06-21.015,5.259-8.948Zm28.393,11.577-7.888-2.038-6.828,5.789,3.669,15.246h6.849Zm48.919,9.988-17.9-9.335-3.689-6.3-4.2,1.569,3.669,10.518,3.159,13.677,7.888,3.139,1.569-2.038-4.729-7.888,13.677,5.259Zm-153.5,189.764-2.038,2.038,15.776,4.729,6.3,7.358,10.008,1.06,3.669-5.789-12.087-2.038Zm46.88,9.988-11.048,3.159,1.59,4.2h13.657l2.629-4.2-4.729.53Z" transform="translate(-191.01 -87.974)" fill="#ef820d" stroke="#263238" stroke-miterlimit="10" stroke-width="1"/>
    </clipPath>
  </defs>
  <g id="Online_world-bro_2_" data-name="Online world-bro (2)" transform="translate(-76.213 -42.274)">
    <g id="freepik--background-simple--inject-64" transform="translate(76.213 58.572)">
      <path id="Path_43783" data-name="Path 43783" d="M799.559,449.279c8.377-55.034,2.385-111.7-12.23-165.1-13.127-47.92-29.677-97.124-68.2-130.776-46.677-40.766-104.951-46.086-164.1-39.176C437.968,127.862,404.54,77.721,317.933,80.758s-162.573,39.5-186.89,113.96,13.677,151.954-4.566,196-69.893,88.135-39.5,151.954,97.246,113.96,252.339,126.109,290.211,18.243,378.346-62.29C765.316,562.852,790.632,507.86,799.559,449.279Z" transform="translate(-77.601 -80.625)" fill="#313131"/>
    </g>
    <g id="freepik--earth-globe--inject-64" transform="translate(125.853 42.981)">
      <circle id="Ellipse_2283" data-name="Ellipse 2283" cx="22.177" cy="22.177" r="22.177" transform="translate(116.25 112.123)" fill="#fff" stroke="#fff" stroke-miterlimit="10" stroke-width="0.5"/>
      <path id="Path_43785" data-name="Path 43785" d="M182.058,108.13H167.606a5.116,5.116,0,0,0-5.116,5.116v12.23a19.894,19.894,0,0,0,24.684-.183V113.348a5.116,5.116,0,0,0-5.116-5.218Z" transform="translate(-36.273 24.661)" fill="#ef820d"/>
      <circle id="Ellipse_2284" data-name="Ellipse 2284" cx="7.358" cy="7.358" r="7.358" transform="translate(130.946 115.853)" fill="#ef820d"/>
      <circle id="Ellipse_2285" data-name="Ellipse 2285" cx="22.177" cy="22.177" r="22.177" transform="matrix(0.364, -0.931, 0.931, 0.364, 151.522, 542.738)" fill="#fff" stroke="#fff" stroke-miterlimit="10" stroke-width="0.5"/>
      <path id="Path_43786" data-name="Path 43786" d="M202.578,302.35H188.106a5.1,5.1,0,0,0-5.1,5.1v12.128a19.873,19.873,0,0,0,24.663-.183V307.446a5.1,5.1,0,0,0-5.1-5.1Z" transform="translate(-14.967 226.317)" fill="#ef820d"/>
      <path id="Path_43787" data-name="Path 43787" d="M192.688,308.746a7.358,7.358,0,1,0-7.358-7.358,7.358,7.358,0,0,0,7.358,7.358Z" transform="translate(-12.559 217.678)" fill="#ef820d"/>
      <circle id="Ellipse_2286" data-name="Ellipse 2286" cx="221.5" cy="221.5" r="221.5" transform="translate(0 313.25) rotate(-45)" fill="#fff"/>
      <g id="Group_35175" data-name="Group 35175" transform="translate(0 0)" clip-path="url(#clip-path)">
        <path id="Path_44038" data-name="Path 44038" d="M221.5,0C343.831,0,443,99.169,443,221.5S343.831,443,221.5,443,0,343.831,0,221.5,99.169,0,221.5,0Z" transform="translate(0 313.25) rotate(-45)" fill="#00d3ff"/>
        <path id="Path_43789" data-name="Path 43789" d="M311.941,206.981l21.035,9.458,5.768,9.458,9.478,3.689,1.04,9.988-3.669,5.789-7.358,1.569-15.776-6.319v-2.038l8.928-3.669-3.159-11.047L313.959,218.6l-6.3-8.4ZM444.43,449.842l-16.816-6.828-20.566-7.358H390.741L375.556,432.5l-16.836,3.689-9.458.51h-5.789l-11.027,6.319-10.518,4.2-14.268-8.928,3.669-14.716-8.928-3.689H291.885l-1.569-4.729,1.04-9.458-3.669-5.259-7.358,1.04-2.038,5.259-8.928.53-7.888-9.417-3.22-12.658,7.888-14.716,15.246,1.04,4.2,3.689H291.9l7.888-4.729,6.828,2.038,9.458,16.306,3.689-.51-1.06-12.107-3.139-6.3,1.039-9.988,19.445-8.418,2.629-19.445,8.418-6.828,6.828-12.087,5.259-1.06,12.087-7.888.53-4.2-8.418.53-1.569-4.219h-5.728l-8.928,2.038,4.2-6.828,18.345-5.259,4.2-4.729,7.358,11.557,4.749,4.749,7.358-2.038-3.159-6.828-11.048-7.888L366.547,266.8,353.4,257.856l-12.617-2.038-6.3-6.3-8.418-2.038-1.04,2.038-1.06,15.246,2.038,5.259-4.566,16.857-10.518-8.418,1.59-7.358-11.047-5.259-4.729-5.768,2.629-13.147,15.246-11.047,1.06-12.617-5.789.53-3.689-4.729-1.57-7.888-3.689-.53-2.038,8.418-5.768,1.06L290.5,201.783l-4.219-2.629-7.358-3.159-8.438,4.138,10.5,10.008,2.038,8.928L264.1,204.8l-13.147-14.268-1.04-14.268-13.677-4.2-10.6,7.052a79.136,79.136,0,0,1-7.888,4.2,86.606,86.606,0,0,1-12.617,2.038L203.1,194.3l-12.087.53,1.06,5.768,19.445,3.159,9.988,11.047v18.345l-5.789,16.306,1.06,17.346-14.716,25.764-3.159,38.36,4.729,22.1,6.828,16.816,7.888,1.06-2.629-8.418-4.2-6.319-2.629-11.557,4.729-1.06,7.358,18.936,5.279,17.02v13.677l9.988,12.087,17.937,12.964,27.333,7.358,8.418,7.888,6.3,8.4,9.458,5.789,11.577,3.159,11.557-.53s-.53,5.259-.53,7.888-7.358,11.557-7.358,11.557l-5.768,10.518,4.2,11.557,11.557,4.749,16.306,16.816,7.358,3.159V524.4l.917,3.689A220.685,220.685,0,0,0,465.75,476.177l.285-3.812L480.3,446.6l-6.828-4.729ZM499.117,242.2l-5.789-9.988-7.358-11.577-2.038-15.756,9.458,1.569.53-5.259-6.849-.53,5.789-2.629,6.319-3.669v-5.259l-6.319-8.418-1.345-11.312a221.7,221.7,0,0,0-260.044-63l12.128,8.581-7.358,9.478-9.988,2.038-1.06,14.268-4.2,1.569-5.259,5.789.53,9.458,8.928,1.06-3.628,8.907h8.928l15.246-19.445,1.59-8.4,14.716-1.06,3.669-6.319,15.246-1.569,1.59-8.928,11.027-.53s7.888-4.2,9.478-4.2a64.61,64.61,0,0,1,8.928,2.609L319.87,126H330.9l9.478-5.789,12.087,1.06a13.026,13.026,0,0,0,5.789,2.038c2.629,0,10.5-3.689,10.5-3.689l15.246,9.478,6.319,4.729v7.888l7.888,1.04,2.629-4.729,6.828,3.159-.53,4.2L391.353,149.6,400.3,161.16l18.915,10.518L427.1,182.2l11.577,1.04,2.629-5.259,4.2-1.04-13.677-10.518-8.479-.938,6.828-2.038-6.319-8.928,8.948-.53,11.557,6.3L447,172.9l5.789,6.849L457.516,195l11.557,8.4v17.346l12.107,7.888-.53,5.789-1.59,6.828,3.159,9.458,1.06,4.749,8.928,1.569,4.219-8.948Zm6.828-53v3.017l-2.629,8.4,1.569,7.358,5.789,2.038v9.988l-6.319-2.629-1.508,28.5-6.3,11.577,4.2,14.716,6.828,6.3v28.393l6.828,22.075,7.379,16.836,12.087,3.139,4.2-10.518,1.712-1.325a223.451,223.451,0,0,0,1.712-27.537,220.42,220.42,0,0,0-35.568-120.279Zm-121.461-3.343-34.651-15.246-15.246.53-3.689,9.988-6.3-6.828-11.557,2.629-1.06,17.346,9.458,6.828,6.828-9.988,7.888,7.888,16.306,14.268,3.159,15.246,13.656,17.346,22.075-3.669-.51-7.888-4.729-8.948-1.06-21.015,5.259-8.948Zm28.393,11.577-7.888-2.038-6.828,5.789,3.669,15.246h6.849Zm48.919,9.988-17.9-9.335-3.689-6.3-4.2,1.569,3.669,10.518,3.159,13.677,7.888,3.139,1.569-2.038-4.729-7.888,13.677,5.259Zm-153.5,189.764-2.038,2.038,15.776,4.729,6.3,7.358,10.008,1.06,3.669-5.789-12.087-2.038Zm46.88,9.988-11.048,3.159,1.59,4.2h13.657l2.629-4.2-4.729.53Z" transform="translate(-6.661 3.734)" fill="#65ff00"/>
        <path id="Path_43792" data-name="Path 43792" d="M311.941,206.981l21.035,9.458,5.768,9.458,9.478,3.689,1.04,9.988-3.669,5.789-7.358,1.569-15.776-6.319v-2.038l8.928-3.669-3.159-11.047L313.959,218.6l-6.3-8.4ZM444.43,449.842l-16.816-6.828-20.566-7.358H390.741L375.556,432.5l-16.836,3.689-9.458.51h-5.789l-11.027,6.319-10.518,4.2-14.268-8.928,3.669-14.716-8.928-3.689H291.885l-1.569-4.729,1.04-9.458-3.669-5.259-7.358,1.04-2.038,5.259-8.928.53-7.888-9.417-3.22-12.658,7.888-14.716,15.246,1.04,4.2,3.689H291.9l7.888-4.729,6.828,2.038,9.458,16.306,3.689-.51-1.06-12.107-3.139-6.3,1.039-9.988,19.445-8.418,2.629-19.445,8.418-6.828,6.828-12.087,5.259-1.06,12.087-7.888.53-4.2-8.418.53-1.569-4.219h-5.728l-8.928,2.038,4.2-6.828,18.345-5.259,4.2-4.729,7.358,11.557,4.749,4.749,7.358-2.038-3.159-6.828-11.048-7.888L366.547,266.8,353.4,257.856l-12.617-2.038-6.3-6.3-8.418-2.038-1.04,2.038-1.06,15.246,2.038,5.259-4.566,16.857-10.518-8.418,1.59-7.358-11.047-5.259-4.729-5.768,2.629-13.147,15.246-11.047,1.06-12.617-5.789.53-3.689-4.729-1.57-7.888-3.689-.53-2.038,8.418-5.768,1.06L290.5,201.783l-4.219-2.629-7.358-3.159-8.438,4.138,10.5,10.008,2.038,8.928L264.1,204.8l-13.147-14.268-1.04-14.268-13.677-4.2-10.6,7.052a79.136,79.136,0,0,1-7.888,4.2,86.606,86.606,0,0,1-12.617,2.038L203.1,194.3l-12.087.53,1.06,5.768,19.445,3.159,9.988,11.047v18.345l-5.789,16.306,1.06,17.346-14.716,25.764-3.159,38.36,4.729,22.1,6.828,16.816,7.888,1.06-2.629-8.418-4.2-6.319-2.629-11.557,4.729-1.06,7.358,18.936,5.279,17.02v13.677l9.988,12.087,17.937,12.964,27.333,7.358,8.418,7.888,6.3,8.4,9.458,5.789,11.577,3.159,11.557-.53s-.53,5.259-.53,7.888-7.358,11.557-7.358,11.557l-5.768,10.518,4.2,11.557,11.557,4.749,16.306,16.816,7.358,3.159V524.4l.917,3.689A220.685,220.685,0,0,0,465.75,476.177l.285-3.812L480.3,446.6l-6.828-4.729ZM499.117,242.2l-5.789-9.988-7.358-11.577-2.038-15.756,9.458,1.569.53-5.259-6.849-.53,5.789-2.629,6.319-3.669v-5.259l-6.319-8.418-1.345-11.312a221.7,221.7,0,0,0-260.044-63l12.128,8.581-7.358,9.478-9.988,2.038-1.06,14.268-4.2,1.569-5.259,5.789.53,9.458,8.928,1.06-3.628,8.907h8.928l15.246-19.445,1.59-8.4,14.716-1.06,3.669-6.319,15.246-1.569,1.59-8.928,11.027-.53s7.888-4.2,9.478-4.2a64.61,64.61,0,0,1,8.928,2.609L319.87,126H330.9l9.478-5.789,12.087,1.06a13.026,13.026,0,0,0,5.789,2.038c2.629,0,10.5-3.689,10.5-3.689l15.246,9.478,6.319,4.729v7.888l7.888,1.04,2.629-4.729,6.828,3.159-.53,4.2L391.353,149.6,400.3,161.16l18.915,10.518L427.1,182.2l11.577,1.04,2.629-5.259,4.2-1.04-13.677-10.518-8.479-.938,6.828-2.038-6.319-8.928,8.948-.53,11.557,6.3L447,172.9l5.789,6.849L457.516,195l11.557,8.4v17.346l12.107,7.888-.53,5.789-1.59,6.828,3.159,9.458,1.06,4.749,8.928,1.569,4.219-8.948Zm6.828-53v3.017l-2.629,8.4,1.569,7.358,5.789,2.038v9.988l-6.319-2.629-1.508,28.5-6.3,11.577,4.2,14.716,6.828,6.3v28.393l6.828,22.075,7.379,16.836,12.087,3.139,4.2-10.518,1.712-1.325a223.451,223.451,0,0,0,1.712-27.537,220.42,220.42,0,0,0-35.568-120.279Zm-121.461-3.343-34.651-15.246-15.246.53-3.689,9.988-6.3-6.828-11.557,2.629-1.06,17.346,9.458,6.828,6.828-9.988,7.888,7.888,16.306,14.268,3.159,15.246,13.656,17.346,22.075-3.669-.51-7.888-4.729-8.948-1.06-21.015,5.259-8.948Zm28.393,11.577-7.888-2.038-6.828,5.789,3.669,15.246h6.849Zm48.919,9.988-17.9-9.335-3.689-6.3-4.2,1.569,3.669,10.518,3.159,13.677,7.888,3.139,1.569-2.038-4.729-7.888,13.677,5.259Zm-153.5,189.764-2.038,2.038,15.776,4.729,6.3,7.358,10.008,1.06,3.669-5.789-12.087-2.038Zm46.88,9.988-11.048,3.159,1.59,4.2h13.657l2.629-4.2-4.729.53Z" transform="translate(-6.661 3.734)" fill="none" stroke="#263238" stroke-miterlimit="10" stroke-width="1"/>
      </g>
      <circle id="Ellipse_2289" data-name="Ellipse 2289" cx="221.5" cy="221.5" r="221.5" transform="translate(0 313.25) rotate(-45)" fill="none" stroke="#263238" stroke-miterlimit="10" stroke-width="1"/>
      <circle id="Ellipse_2290" data-name="Ellipse 2290" cx="22.177" cy="22.177" r="22.177" transform="translate(561.716 182.65) rotate(-9.25)" fill="#fff" stroke="#fff" stroke-miterlimit="10" stroke-width="0.5"/>
      <path id="Path_43793" data-name="Path 43793" d="M402.208,140.85H387.736a5.1,5.1,0,0,0-5.1,5.116v12.128a19.873,19.873,0,0,0,24.663-.183V145.966a5.1,5.1,0,0,0-5.1-5.116Z" transform="translate(192.305 58.634)" fill="#ef820d"/>
      <path id="Path_43794" data-name="Path 43794" d="M392.318,147.246a7.358,7.358,0,1,0-7.358-7.358A7.358,7.358,0,0,0,392.318,147.246Z" transform="translate(194.714 49.995)" fill="#ef820d"/>
      <circle id="Ellipse_2291" data-name="Ellipse 2291" cx="22.177" cy="22.177" r="22.177" transform="translate(408.703 89.804)" fill="#fff" stroke="#fff" stroke-miterlimit="10" stroke-width="0.5"/>
      <path id="Path_43795" data-name="Path 43795" d="M325.486,97.18H311.035A5.116,5.116,0,0,0,306,102.3v12.23a19.894,19.894,0,0,0,24.684-.183V102.3a5.116,5.116,0,0,0-5.2-5.116Z" transform="translate(112.731 13.292)" fill="#ef820d"/>
      <circle id="Ellipse_2292" data-name="Ellipse 2292" cx="7.358" cy="7.358" r="7.358" transform="translate(423.378 93.514)" fill="#ef820d"/>
      <circle id="Ellipse_2293" data-name="Ellipse 2293" cx="22.177" cy="22.177" r="22.177" transform="translate(4.229 228.532) rotate(-9.25)" fill="#fff" stroke="#fff" stroke-miterlimit="10" stroke-width="0.5"/>
      <path id="Path_43796" data-name="Path 43796" d="M128.708,163.35H114.236a5.1,5.1,0,0,0-5.1,5.116v12.128a19.873,19.873,0,0,0,24.663-.183V168.466a5.1,5.1,0,0,0-5.1-5.116Z" transform="translate(-91.665 81.995)" fill="#ef820d"/>
      <path id="Path_43797" data-name="Path 43797" d="M118.818,169.746a7.358,7.358,0,1,0-7.358-7.358A7.358,7.358,0,0,0,118.818,169.746Z" transform="translate(-89.257 73.357)" fill="#ef820d"/>
      <circle id="Ellipse_2294" data-name="Ellipse 2294" cx="22.177" cy="22.177" r="22.177" transform="translate(18.517 368.143) rotate(-9.25)" fill="#fff" stroke="#fff" stroke-miterlimit="10" stroke-width="0.5"/>
      <path id="Path_43798" data-name="Path 43798" d="M135.708,231.85H121.236a5.1,5.1,0,0,0-5.1,5.116v12.128a19.873,19.873,0,0,0,24.663-.183V236.966a5.1,5.1,0,0,0-5.1-5.116Z" transform="translate(-84.397 153.118)" fill="#ef820d"/>
      <path id="Path_43799" data-name="Path 43799" d="M125.818,238.246a7.358,7.358,0,1,0-7.358-7.358,7.358,7.358,0,0,0,7.358,7.358Z" transform="translate(-81.989 144.479)" fill="#ef820d"/>
      <circle id="Ellipse_2295" data-name="Ellipse 2295" cx="22.177" cy="22.177" r="22.177" transform="matrix(0.366, -0.93, 0.93, 0.366, 105.632, 286.86)" fill="#fff" stroke="#fff" stroke-miterlimit="10" stroke-width="0.5"/>
      <path id="Path_43800" data-name="Path 43800" d="M180.088,176.85H165.6a5.1,5.1,0,0,0-5.1,5.1v12.23a19.873,19.873,0,0,0,24.663-.183V182.048a5.1,5.1,0,0,0-5.075-5.2Z" transform="translate(-38.339 96.012)" fill="#ef820d"/>
      <path id="Path_43801" data-name="Path 43801" d="M170.188,183.246a7.358,7.358,0,1,0-7.358-7.358A7.358,7.358,0,0,0,170.188,183.246Z" transform="translate(-35.92 87.374)" fill="#ef820d"/>
      <circle id="Ellipse_2296" data-name="Ellipse 2296" cx="22.177" cy="22.177" r="22.177" transform="translate(258.502 469.76)" fill="#fff" stroke="#fff" stroke-miterlimit="10" stroke-width="0.5"/>
      <path id="Path_43802" data-name="Path 43802" d="M251.848,283.6H237.4a5.116,5.116,0,0,0-5.116,5.116v12.128a19.894,19.894,0,0,0,24.684-.183V288.716a5.116,5.116,0,0,0-5.116-5.116Z" transform="translate(36.189 206.849)" fill="#ef820d"/>
      <circle id="Ellipse_2297" data-name="Ellipse 2297" cx="7.358" cy="7.358" r="7.358" transform="translate(273.198 473.49)" fill="#ef820d"/>
      <circle id="Ellipse_2298" data-name="Ellipse 2298" cx="22.177" cy="22.177" r="22.177" transform="translate(417.956 512.401)" fill="#fff" stroke="#fff" stroke-miterlimit="10" stroke-width="0.5"/>
      <path id="Path_43803" data-name="Path 43803" d="M330.078,304.52H315.606a5.116,5.116,0,0,0-5.116,5.1v12.23a19.894,19.894,0,0,0,24.684-.183V309.575a5.1,5.1,0,0,0-5.1-5.055Z" transform="translate(117.393 228.57)" fill="#ef820d"/>
      <circle id="Ellipse_2299" data-name="Ellipse 2299" cx="7.358" cy="7.358" r="7.358" transform="translate(432.632 516.131)" fill="#ef820d"/>
      <circle id="Ellipse_2300" data-name="Ellipse 2300" cx="22.177" cy="22.177" r="22.177" transform="translate(523.782 420.002) rotate(-69.82)" fill="#fff" stroke="#fff" stroke-miterlimit="10" stroke-width="0.5"/>
      <path id="Path_43804" data-name="Path 43804" d="M385.088,241.85H370.6a5.1,5.1,0,0,0-5.1,5.1v12.23a19.873,19.873,0,0,0,24.663-.183V247.048a5.1,5.1,0,0,0-5.075-5.2Z" transform="translate(174.509 163.501)" fill="#ef820d"/>
      <path id="Path_43805" data-name="Path 43805" d="M375.188,248.246a7.358,7.358,0,1,0-7.358-7.358A7.358,7.358,0,0,0,375.188,248.246Z" transform="translate(176.928 154.862)" fill="#ef820d"/>
      <path id="Path_43806" data-name="Path 43806" d="M575.718,147.184c31.308,25.377,49.877,57.072,49.877,91.274,0,83.57-110.414,151.363-246.632,151.363S132.33,322.048,132.33,238.458c0-36.567,21.137-70.1,56.318-96.268" transform="translate(-67.588 60.025)" fill="none" stroke="#000" stroke-miterlimit="10" stroke-width="0.5"/>
      <path id="Path_43807" data-name="Path 43807" d="M184,147.944C206.2,111.56,237.4,87.3,274.377,81.9c86.872-12.515,172.7,84.528,191.741,216.751S430.184,548.2,343.333,560.717c-39.543,5.687-78.882-11.312-111.8-44.007" transform="translate(-13.939 -3.697)" fill="none" stroke="#000" stroke-miterlimit="10" stroke-width="0.5"/>
      <ellipse id="Ellipse_2301" data-name="Ellipse 2301" cx="100.263" cy="247.998" rx="100.263" ry="247.998" transform="translate(28.079 292.033) rotate(-58.58)" fill="none" stroke="#000" stroke-miterlimit="10" stroke-width="0.5"/>
      <ellipse id="Ellipse_2302" data-name="Ellipse 2302" cx="254.5" cy="100.263" rx="254.5" ry="100.263" transform="translate(40.688 371.761) rotate(-31.42)" fill="none" stroke="#000" stroke-miterlimit="10" stroke-width="0.5"/>
      <path id="Path_43808" data-name="Path 43808" d="M308.223,130.077a4.077,4.077,0,1,0-4.077,4.077A4.077,4.077,0,0,0,308.223,130.077Z" transform="translate(106.574 43.215)" fill="#fff" stroke="#fff" stroke-miterlimit="10" stroke-width="0.5"/>
      <path id="Path_43809" data-name="Path 43809" d="M330.223,211.947a4.077,4.077,0,1,0-4.077,4.077A4.077,4.077,0,0,0,330.223,211.947Z" transform="translate(129.416 128.22)" fill="#fff" stroke="#fff" stroke-miterlimit="10" stroke-width="0.5"/>
      <path id="Path_43810" data-name="Path 43810" d="M325.823,253.537a4.077,4.077,0,1,0-4.077,4.077A4.077,4.077,0,0,0,325.823,253.537Z" transform="translate(124.848 171.402)" fill="#fff" stroke="#fff" stroke-miterlimit="10" stroke-width="0.5"/>
      <path id="Path_43811" data-name="Path 43811" d="M313.063,285.217a4.077,4.077,0,1,0-4.077,4.077A4.077,4.077,0,0,0,313.063,285.217Z" transform="translate(111.599 204.295)" fill="#fff" stroke="#fff" stroke-miterlimit="10" stroke-width="0.5"/>
      <path id="Path_43812" data-name="Path 43812" d="M351.153,240.077a4.077,4.077,0,1,0-4.077,4.077A4.077,4.077,0,0,0,351.153,240.077Z" transform="translate(151.148 157.427)" fill="#fff" stroke="#fff" stroke-miterlimit="10" stroke-width="0.5"/>
      <path id="Path_43813" data-name="Path 43813" d="M248.373,265.2a4.077,4.077,0,1,0-4.077,4.077A4.077,4.077,0,0,0,248.373,265.2Z" transform="translate(44.433 183.508)" fill="#fff" stroke="#fff" stroke-miterlimit="10" stroke-width="0.5"/>
      <path id="Path_43814" data-name="Path 43814" d="M157.283,231.977a4.077,4.077,0,1,0-4.077,4.077A4.077,4.077,0,0,0,157.283,231.977Z" transform="translate(-50.144 149.016)" fill="#fff" stroke="#fff" stroke-miterlimit="10" stroke-width="0.5"/>
      <path id="Path_43815" data-name="Path 43815" d="M172.683,211.287a4.077,4.077,0,1,0-4.077,4.077A4.077,4.077,0,0,0,172.683,211.287Z" transform="translate(-34.155 127.534)" fill="#fff" stroke="#fff" stroke-miterlimit="10" stroke-width="0.5"/>
      <path id="Path_43816" data-name="Path 43816" d="M248.593,153.427a4.077,4.077,0,1,0-4.077,4.077A4.077,4.077,0,0,0,248.593,153.427Z" transform="translate(44.661 67.459)" fill="#fff" stroke="#fff" stroke-miterlimit="10" stroke-width="0.5"/>
      <path id="Path_43817" data-name="Path 43817" d="M367.4,158.487a4.077,4.077,0,1,0-4.077,4.077A4.077,4.077,0,0,0,367.4,158.487Z" transform="translate(168.02 72.713)" fill="#fff" stroke="#fff" stroke-miterlimit="10" stroke-width="0.5"/>
      <path id="Path_43818" data-name="Path 43818" d="M144.743,168.167a4.077,4.077,0,1,0-4.077,4.077A4.077,4.077,0,0,0,144.743,168.167Z" transform="translate(-63.164 82.764)" fill="#fff" stroke="#fff" stroke-miterlimit="10" stroke-width="0.5"/>
      <line id="Line_114" data-name="Line 114" y1="17.244" x2="32.042" transform="translate(535.382 212.346)" fill="none" stroke="#000" stroke-miterlimit="10" stroke-width="0.5"/>
      <line id="Line_115" data-name="Line 115" x1="21.647" y1="4.077" transform="translate(51.861 246.854)" fill="none" stroke="#000" stroke-miterlimit="10" stroke-width="0.5"/>
      <line id="Line_116" data-name="Line 116" y1="38.259" transform="translate(134.493 296.527)" fill="none" stroke="#000" stroke-miterlimit="10" stroke-width="0.5"/>
      <line id="Line_117" data-name="Line 117" x1="32.939" y2="5.483" transform="translate(66.128 380.993)" fill="none" stroke="#000" stroke-miterlimit="10" stroke-width="0.5"/>
      <line id="Line_118" data-name="Line 118" x1="3.017" y2="17.733" transform="translate(284.836 452.68)" fill="none" stroke="#000" stroke-miterlimit="10" stroke-width="0.5"/>
      <line id="Line_119" data-name="Line 119" x2="9.437" y2="20.546" transform="translate(422.155 493.404)" fill="none" stroke="#000" stroke-miterlimit="10" stroke-width="0.5"/>
      <line id="Line_120" data-name="Line 120" x2="27.395" y2="5.87" transform="translate(502.24 397.585)" fill="none" stroke="#000" stroke-miterlimit="10" stroke-width="0.5"/>
      <line id="Line_121" data-name="Line 121" x1="26.6" y1="25.601" transform="translate(416.774 396.382)" fill="none" stroke="#000" stroke-miterlimit="10" stroke-width="0.5"/>
      <line id="Line_122" data-name="Line 122" y1="36.057" x2="12.128" transform="translate(412.392 133.607)" fill="none" stroke="#000" stroke-miterlimit="10" stroke-width="0.5"/>
      <line id="Line_123" data-name="Line 123" x2="5.136" y2="3.852" transform="translate(154.529 150.769)" fill="none" stroke="#000" stroke-miterlimit="10" stroke-width="0.5"/>
      <line id="Line_124" data-name="Line 124" y1="7.705" x2="5.768" transform="translate(193.705 504.574)" fill="none" stroke="#000" stroke-miterlimit="10" stroke-width="0.5"/>
      <circle id="Ellipse_2303" data-name="Ellipse 2303" cx="22.177" cy="22.177" r="22.177" transform="translate(371.818 394.286) rotate(-69.36)" fill="#fff" stroke="#fff" stroke-miterlimit="10" stroke-width="0.5"/>
      <path id="Path_43819" data-name="Path 43819" d="M310.578,229.35H296.106a5.1,5.1,0,0,0-5.1,5.1v12.23a19.873,19.873,0,0,0,24.663-.183V234.548a5.1,5.1,0,0,0-5.1-5.2Z" transform="translate(97.167 150.522)" fill="#ef820d"/>
      <path id="Path_43820" data-name="Path 43820" d="M300.688,235.746a7.358,7.358,0,1,0-7.358-7.358A7.358,7.358,0,0,0,300.688,235.746Z" transform="translate(99.576 141.883)" fill="#ef820d"/>
      <circle id="Ellipse_2304" data-name="Ellipse 2304" cx="22.177" cy="22.177" r="22.177" transform="translate(421.807 289.422) rotate(-69.51)" fill="#fff" stroke="#fff" stroke-miterlimit="10" stroke-width="0.5"/>
      <path id="Path_43821" data-name="Path 43821" d="M335.088,177.85H320.6a5.1,5.1,0,0,0-5.1,5.1v12.23a19.873,19.873,0,0,0,24.663-.183V183.048a5.1,5.1,0,0,0-5.075-5.2Z" transform="translate(122.595 97.05)" fill="#ef820d"/>
      <path id="Path_43822" data-name="Path 43822" d="M325.188,184.246a7.358,7.358,0,1,0-7.358-7.358A7.358,7.358,0,0,0,325.188,184.246Z" transform="translate(125.014 88.412)" fill="#ef820d"/>
    </g>
  </g>
</svg>
