<svg xmlns="http://www.w3.org/2000/svg" xmlns:xlink="http://www.w3.org/1999/xlink" width="369.282" height="416.29" viewBox="0 0 369.282 416.29">
  <defs>
    <clipPath id="clip-path">
      <path id="Path_43862" data-name="Path 43862" d="M355.041,395.058s-12.217-4.5-14.6,4.5c0,0,2.18,9.914.874,15.336s-7.884,15.778-8.288,17.742c-.8,3.853-.2,4.116-.2,4.116s4.783,2.763,11.211-.2,17.554-15.7,19.293-18.325-5.45-12.959-5.45-12.959Z" transform="translate(-332.609 -393.933)" fill="#fff" stroke="#263238" stroke-linecap="round" stroke-linejoin="round" stroke-width="1"/>
    </clipPath>
    <clipPath id="clip-path-2">
      <path id="Path_43874" data-name="Path 43874" d="M1.774,0H22.532a1.774,1.774,0,0,1,1.774,1.774V16.587H0V1.774A1.774,1.774,0,0,1,1.774,0Z" transform="translate(1.487 0) rotate(5.143)" fill="#fff" stroke="#263238" stroke-linecap="round" stroke-linejoin="round" stroke-width="1.004"/>
    </clipPath>
    <clipPath id="clip-path-3">
      <path id="Path_43878" data-name="Path 43878" d="M1.767,0H22.441a1.767,1.767,0,0,1,1.767,1.767V16.521H0V1.767A1.767,1.767,0,0,1,1.767,0Z" transform="matrix(0.996, 0.086, -0.086, 0.996, 1.414, 0)" fill="#fff" stroke="#263238" stroke-linecap="round" stroke-linejoin="round" stroke-width="1"/>
    </clipPath>
    <clipPath id="clip-path-4">
      <path id="Path_43884" data-name="Path 43884" d="M331.833,245.537l-5.817,67.6-108.906-9.4,5.817-67.586a4.266,4.266,0,0,1,4.623-3.891l100.382,8.627a4.266,4.266,0,0,1,3.9,4.652Z" transform="translate(-217.11 -232.243)" fill="#fff" stroke="#263238" stroke-linecap="round" stroke-linejoin="round" stroke-width="1"/>
    </clipPath>
    <clipPath id="clip-path-5">
      <path id="Path_43890" data-name="Path 43890" d="M388.857,408.613s-5.206-3.712-15.975-2.97c0,0-.789,12.921-2.255,16.68S361.436,432.6,360,433.714s-1.438,5.018-1.438,5.018h32.722a104.226,104.226,0,0,0-2.6-16.6Z" transform="translate(-358.56 -405.546)" fill="#fff" stroke="#263238" stroke-linecap="round" stroke-linejoin="round" stroke-width="1"/>
    </clipPath>
    <clipPath id="clip-path-6">
      <path id="Path_43902" data-name="Path 43902" d="M395.719,262.183s-20.872,4.088-41.348-2.547a59.2,59.2,0,0,1-13.278-6.127s.056-1.316.094-3.468c.169-8.4.122-29.536-4.3-34.77-2.819-3.3-5.028-23.691.413-34l16.643-13.382c23.042,4.5,27.91,10.6,31.716,23.757.7,2.406,1.363,5.046,2.1,7.96.8,3.176,1.551,7.057,2.265,11.277C393.473,231.9,395.719,262.183,395.719,262.183Z" transform="translate(-333.956 -167.89)" fill="#999" stroke="#263238" stroke-linecap="round" stroke-linejoin="round" stroke-width="1"/>
    </clipPath>
    <clipPath id="clip-path-7">
      <path id="Path_43934" data-name="Path 43934" d="M177.92,247.8l3.759,7.969s15.543,32.12,25.063,68.9c.226.874,5.15,18.3,1.2,61.684l2.255,7.612-2.462,12.574s3.7,5.347,3.571,7.095c0,0-9.134,1.7-12.217,3.336-2.368,1.278-9.482,8.3-9.482,8.3-2.02-.413-2.2-8.57-2.2-8.57s-4.219-72.425-5.432-75.545-8.617-16.577-20.176-47.372c0,0-.263,43.012-3.345,53.894-2.753,9.679.507,36.772.507,36.772L157.086,414.6s6.5,6.757,1.231,8.57c0,0-3.524-6.775-13.56-8.317-5.1-.789-11.455,8.27-11.455,8.27-2.237-.714.94-12.094.94-12.094-7.114-53.678-1.879-43.961-3.289-70.2-.94-16.84-5.685-88.88-.085-94.735Z" transform="translate(-128.181 -246.1)" fill="#bfbfbf" stroke="#263238" stroke-linecap="round" stroke-linejoin="round" stroke-width="1"/>
    </clipPath>
    <clipPath id="clip-path-8">
      <path id="Path_43956" data-name="Path 43956" d="M1.729,0H22.4A1.767,1.767,0,0,1,24.17,1.767V16.521H0V1.767A1.767,1.767,0,0,1,1.73,0Z" transform="matrix(0.996, -0.092, 0.092, 0.996, 0, 2.22)" fill="#fff" stroke="#263238" stroke-linecap="round" stroke-linejoin="round" stroke-width="1"/>
    </clipPath>
    <clipPath id="clip-path-9">
      <path id="Path_43960" data-name="Path 43960" d="M1.767,0H22.441a1.767,1.767,0,0,1,1.767,1.767V16.521H0V1.767A1.767,1.767,0,0,1,1.767,0Z" transform="matrix(0.996, -0.092, 0.092, 0.996, 0, 2.223)" fill="#fff" stroke="#263238" stroke-linecap="round" stroke-linejoin="round" stroke-width="1"/>
    </clipPath>
    <clipPath id="clip-path-10">
      <path id="Path_43966" data-name="Path 43966" d="M292.229,109.171l6.24,67.548L189.6,186.774l-6.2-67.567a4.276,4.276,0,0,1,3.862-4.652L287.587,105.3a4.266,4.266,0,0,1,4.642,3.872Z" transform="translate(-183.38 -105.281)" fill="#fff" stroke="#263238" stroke-linecap="round" stroke-linejoin="round" stroke-width="1"/>
    </clipPath>
    <clipPath id="clip-path-11">
      <path id="Path_43993" data-name="Path 43993" d="M216.217,357.31h20.674a1.767,1.767,0,0,1,1.767,1.767v14.754H214.45V359.077a1.767,1.767,0,0,1,1.767-1.767Z" transform="translate(-214.45 -357.31)" fill="#fff" stroke="#263238" stroke-linecap="round" stroke-linejoin="round" stroke-width="1"/>
    </clipPath>
    <clipPath id="clip-path-12">
      <path id="Path_43997" data-name="Path 43997" d="M254.217,357.31h20.674a1.767,1.767,0,0,1,1.767,1.767v14.754H252.45V359.077a1.767,1.767,0,0,1,1.767-1.767Z" transform="translate(-252.45 -357.31)" fill="#fff" stroke="#263238" stroke-linecap="round" stroke-linejoin="round" stroke-width="1"/>
    </clipPath>
    <clipPath id="clip-path-13">
      <path id="Path_44003" data-name="Path 44003" d="M312.41,370.956V438.8H203.11V370.956a4.276,4.276,0,0,1,4.276-4.276H308.135a4.276,4.276,0,0,1,4.276,4.276Z" transform="translate(-203.11 -366.68)" fill="#fff" stroke="#263238" stroke-linecap="round" stroke-linejoin="round" stroke-width="1"/>
    </clipPath>
  </defs>
  <g id="Team_work-bro_1_" data-name="Team work-bro (1)" transform="translate(-53.55 -29.116)">
    <g id="freepik--background-simple--inject-102" transform="translate(58.056 29.116)">
      <path id="Path_43830" data-name="Path 43830" d="M67.35,158.775s-26.2,67.661,10.619,135.792,112.655,104.123,173.353,134.9S375.048,445.253,405,394.846s-11.126-86.39-11.183-158.27,10.76-90.91-28.192-151.636S231.184,10.767,158.975,55.808,67.35,158.775,67.35,158.775Z" transform="translate(-58.313 -29.116)" fill="#fff" opacity="0.7"/>
      <path id="Path_43831" data-name="Path 43831" d="M108.145,110.767c12.649-15.111,29.743-26.754,50.116-26.557,34.77.432,53.565,31.209,73.506,54.946,10.337,12.311,22.074,24.189,37.43,29.978,23.033,8.674,48.688,3.609,71.129-4.445,10.055-3.609,21.962-8.683,33.285-6.089,34.422,7.875,30.842,49.881,25.157,76.485-7.678,35.935-20.157,74.145-45.446,101.717-60.547,66.054-169.509,25.561-224.127-27.149a164.15,164.15,0,0,1-11.474-12.217,168.917,168.917,0,0,1-23.672-36.058c-17.592-36.6-20.016-81.09-4.7-118.914a120.286,120.286,0,0,1,18.795-31.7Z" transform="translate(-59.573 -32.436)" fill="#fff"/>
      <path id="Path_43832" data-name="Path 43832" d="M108.145,110.767c12.649-15.111,29.743-26.754,50.116-26.557,34.77.432,53.565,31.209,73.506,54.946,10.337,12.311,22.074,24.189,37.43,29.978,23.033,8.674,48.688,3.609,71.129-4.445,10.055-3.609,21.962-8.683,33.285-6.089,34.422,7.875,30.842,49.881,25.157,76.485-7.678,35.935-20.157,74.145-45.446,101.717-60.547,66.054-169.509,25.561-224.127-27.149a164.15,164.15,0,0,1-11.474-12.217,168.917,168.917,0,0,1-23.672-36.058c-17.592-36.6-20.016-81.09-4.7-118.914a120.286,120.286,0,0,1,18.795-31.7Z" transform="translate(-59.573 -32.436)" fill="#fff" opacity="0.7"/>
    </g>
    <g id="freepik--Floor--inject-102" transform="translate(54.05 418.461)">
      <line id="Line_125" data-name="Line 125" x2="368.282" fill="none" stroke="#263238" stroke-linecap="round" stroke-linejoin="round" stroke-width="1"/>
    </g>
    <g id="freepik--Window--inject-102" transform="translate(277.632 89.77)">
      <path id="Path_43833" data-name="Path 43833" d="M291.97,231.933V93.66h8.561" transform="translate(-291.97 -93.66)" fill="none" stroke="#263238" stroke-linecap="round" stroke-linejoin="round" stroke-width="1"/>
      <line id="Line_126" data-name="Line 126" y1="3.665" transform="translate(0 151.062)" fill="none" stroke="#263238" stroke-linecap="round" stroke-linejoin="round" stroke-width="1"/>
      <path id="Path_43834" data-name="Path 43834" d="M322.549,93.66h88.344V261.28H291.97" transform="translate(-291.97 -93.66)" fill="none" stroke="#263238" stroke-linecap="round" stroke-linejoin="round" stroke-width="1"/>
      <line id="Line_127" data-name="Line 127" x2="7.762" transform="translate(19.753 0)" fill="none" stroke="#263238" stroke-linecap="round" stroke-linejoin="round" stroke-width="1"/>
      <rect id="Rectangle_19353" data-name="Rectangle 19353" width="109.977" height="158.693" transform="translate(4.473 4.464)" fill="none" stroke="#263238" stroke-linecap="round" stroke-linejoin="round" stroke-width="1"/>
      <path id="Path_43835" data-name="Path 43835" d="M401.923,107.45v65.9H302.17v-4.3" transform="translate(-292.585 -94.491)" fill="none" stroke="#263238" stroke-linecap="round" stroke-linejoin="round" stroke-width="1"/>
      <path id="Path_43836" data-name="Path 43836" d="M302.17,158.731V103.39h99.753" transform="translate(-292.585 -94.246)" fill="none" stroke="#263238" stroke-linecap="round" stroke-linejoin="round" stroke-width="1"/>
      <line id="Line_128" data-name="Line 128" y1="4.182" transform="translate(9.585 67.078)" fill="none" stroke="#263238" stroke-linecap="round" stroke-linejoin="round" stroke-width="1"/>
      <line id="Line_129" data-name="Line 129" x2="21.962" transform="translate(92.489 83.806)" fill="none" stroke="#263238" stroke-linecap="round" stroke-linejoin="round" stroke-width="1"/>
      <line id="Line_130" data-name="Line 130" x2="3.111" transform="translate(84.679 83.806)" fill="none" stroke="#263238" stroke-linecap="round" stroke-linejoin="round" stroke-width="1"/>
      <line id="Line_131" data-name="Line 131" x2="76.504" transform="translate(4.473 83.806)" fill="none" stroke="#263238" stroke-linecap="round" stroke-linejoin="round" stroke-width="1"/>
      <path id="Path_43837" data-name="Path 43837" d="M349.36,177.434V175.16h9.2v1.287h-3.665v.987" transform="translate(-295.429 -98.572)" fill="none" stroke="#263238" stroke-linecap="round" stroke-linejoin="round" stroke-width="1"/>
      <path id="Path_43838" data-name="Path 43838" d="M296.93,245.8s1.532,1.156,2.6,8.148c0,0,1.879-11.164,4.078-11.333s1.785,7.255,1.785,7.255.376-3.656,2.124-3.486,0,7.518,0,7.518,2.1-5.77,4.1-5.638-1.316,10.45-1.316,10.45,5.112-3.7,7.18-1.879-1.146,6.371-1.146,6.371,7.33-1.588,8.458,2.716" transform="translate(-292.269 -102.636)" fill="none" stroke="#263238" stroke-linecap="round" stroke-linejoin="round" stroke-width="1"/>
      <path id="Path_43839" data-name="Path 43839" d="M326.59,261.591s3.2-2.1,5.714-1.118c0,0-1.6-2.434,0-3.919s3.646,3.919,3.646,3.919.235-9.068,3.43-8.608,0,8.608,0,8.608,5.7-5.056,7.076-3.3-.94,4.417-.94,4.417a6.184,6.184,0,0,1,5.939,1.457s3.825-3.9,8.072-4.464c0,0-2.819-8.2-1.457-9.858s3.862,7.161,3.862,7.161,1.09-5.732,4.7-6.183c0,0-2.979-1.616-2.1-4.069s4.99.583,4.99.583-1.691-4.313.987-5.5,3.759,3.609,3.759,3.609.752-5.018,3.891-4.7,2.124,6.052,2.124,6.052,2.96-4.586,4.548-4.125c3.167.94,2.208,8.194,2.208,8.194s4.417-3.073,5.563-1.654-4.6,5.46-4.6,5.46,4.389.479,7.123,3.045" transform="translate(-294.056 -102.456)" fill="none" stroke="#263238" stroke-linecap="round" stroke-linejoin="round" stroke-width="1"/>
      <path id="Path_43840" data-name="Path 43840" d="M412.449,247.489s-.507-4.6-5.112-4.849,1.269,10.1,1.269,10.1-3.806-3.148-5.169-2.18,3.9,6.306,3.9,6.306-2.528-2.34-5.187-1.616,1.513,8.138,1.513,8.138A18.964,18.964,0,0,0,392,264.761" transform="translate(-297.998 -102.638)" fill="none" stroke="#263238" stroke-linecap="round" stroke-linejoin="round" stroke-width="1"/>
    </g>
    <g id="freepik--Table--inject-102" transform="translate(58.645 241.547)">
      <line id="Line_132" data-name="Line 132" y2="40.897" transform="translate(176.435 135.773)" fill="none" stroke="#263238" stroke-linecap="round" stroke-linejoin="round" stroke-width="1"/>
      <line id="Line_133" data-name="Line 133" y2="8.758" transform="translate(176.435 122.391)" fill="none" stroke="#263238" stroke-linecap="round" stroke-linejoin="round" stroke-width="1"/>
      <path id="Path_43841" data-name="Path 43841" d="M63.49,438.542V362.33H235.649v16.727" transform="translate(-59.214 -261.628)" fill="none" stroke="#263238" stroke-linecap="round" stroke-linejoin="round" stroke-width="1"/>
      <path id="Path_43842" data-name="Path 43842" d="M89.222,371.2H74.28v60.885" transform="translate(-59.864 -262.163)" fill="none" stroke="#263238" stroke-linecap="round" stroke-linejoin="round" stroke-width="1"/>
      <path id="Path_43843" data-name="Path 43843" d="M227.674,438.833V371.2H99.41" transform="translate(-61.379 -262.163)" fill="none" stroke="#263238" stroke-linecap="round" stroke-linejoin="round" stroke-width="1"/>
      <line id="Line_134" data-name="Line 134" x1="4.746" transform="translate(154.389 92.808)" fill="none" stroke="#263238" stroke-linecap="round" stroke-linejoin="round" stroke-width="1"/>
      <path id="Path_43844" data-name="Path 43844" d="M206.516,353.93H58.94v7.837H239.651V353.93H221.1" transform="translate(-58.94 -261.122)" fill="none" stroke="#263238" stroke-linecap="round" stroke-linejoin="round" stroke-width="1"/>
      <path id="Path_43845" data-name="Path 43845" d="M69.77,300.49s14.1,1.118,14.735,11.549C84.505,312.039,70.174,318.636,69.77,300.49Z" transform="translate(-59.593 -257.901)" fill="none" stroke="#263238" stroke-linecap="round" stroke-linejoin="round" stroke-width="1"/>
      <path id="Path_43846" data-name="Path 43846" d="M99.54,302.816s7.9-10.685,20.674-5.206C120.214,297.61,112.414,310.522,99.54,302.816Z" transform="translate(-61.387 -257.633)" fill="none" stroke="#263238" stroke-linecap="round" stroke-linejoin="round" stroke-width="1"/>
      <path id="Path_43847" data-name="Path 43847" d="M119.336,267.35S121.61,287.9,102.9,282.245C102.9,282.245,108.839,267.134,119.336,267.35Z" transform="translate(-61.589 -255.904)" fill="none" stroke="#263238" stroke-linecap="round" stroke-linejoin="round" stroke-width="1"/>
      <path id="Path_43848" data-name="Path 43848" d="M95.8,255.17s14.8,7.988,3.919,20.092C99.723,275.262,89.348,266.616,95.8,255.17Z" transform="translate(-61.034 -255.17)" fill="none" stroke="#263238" stroke-linecap="round" stroke-linejoin="round" stroke-width="1"/>
      <path id="Path_43849" data-name="Path 43849" d="M76.57,274.717s16.088-1.616,16.088,13.269C92.658,287.986,76.57,288.625,76.57,274.717Z" transform="translate(-60.002 -256.345)" fill="none" stroke="#263238" stroke-linecap="round" stroke-linejoin="round" stroke-width="1"/>
      <path id="Path_43850" data-name="Path 43850" d="M89.394,318.113c-.235-5-.235-11.427,2.819-18.221,7.039-15.675,9.4-28.878,5.742-38.181" transform="translate(-60.77 -255.564)" fill="none" stroke="#263238" stroke-linecap="round" stroke-linejoin="round" stroke-width="1"/>
      <path id="Path_43851" data-name="Path 43851" d="M82.19,279s9.642,3.834,12.921,13.767" transform="translate(-60.341 -256.606)" fill="none" stroke="#263238" stroke-linecap="round" stroke-linejoin="round" stroke-width="1"/>
      <path id="Path_43852" data-name="Path 43852" d="M114.036,276.1s-5.573,7.593-15.036,6.775" transform="translate(-61.354 -256.431)" fill="none" stroke="#263238" stroke-linecap="round" stroke-linejoin="round" stroke-width="1"/>
      <path id="Path_43853" data-name="Path 43853" d="M113.614,300S98.174,304.445,92,302.988" transform="translate(-60.932 -257.872)" fill="none" stroke="#263238" stroke-linecap="round" stroke-linejoin="round" stroke-width="1"/>
      <path id="Path_43854" data-name="Path 43854" d="M74.67,305.49s6.907,7.574,13.842,7.452" transform="translate(-59.888 -258.203)" fill="none" stroke="#263238" stroke-linecap="round" stroke-linejoin="round" stroke-width="1"/>
      <path id="Path_43855" data-name="Path 43855" d="M106.727,321.73H73.188a.818.818,0,0,0-.818.818v2.547a.808.808,0,0,0,.818.808h.94l2.988,26.087h25.636L105.74,325.9h.987a.8.8,0,0,0,.808-.808v-2.547a.808.808,0,0,0-.808-.818Z" transform="translate(-59.749 -259.181)" fill="none" stroke="#263238" stroke-miterlimit="10" stroke-width="1"/>
      <line id="Line_135" data-name="Line 135" x2="19.509" transform="translate(16.568 66.721)" fill="none" stroke="#263238" stroke-linecap="round" stroke-linejoin="round" stroke-width="1"/>
      <line id="Line_136" data-name="Line 136" x2="2.932" transform="translate(39.751 66.721)" fill="none" stroke="#263238" stroke-linecap="round" stroke-linejoin="round" stroke-width="1"/>
    </g>
    <g id="freepik--character-3--inject-102" transform="translate(207.283 121.563)">
      <path id="Path_43856" data-name="Path 43856" d="M326.5,211.09l-3.759,20.43L292.09,250.145l4.238,7.781s35.437-10.807,36.3-13.335,9.031-29.3,9.031-29.3Z" transform="translate(-221.629 -132.53)" fill="#263238"/>
      <path id="Path_43857" data-name="Path 43857" d="M342.027,174.33,339.978,199.1l-1.081,13c-5.911,2.876-11.69-1.447-12.047-1.729h0C328.457,205.651,330.327,179.029,342.027,174.33Z" transform="translate(-223.724 -130.314)" fill="#999" stroke="#263238" stroke-linecap="round" stroke-linejoin="round" stroke-width="1"/>
      <path id="Path_43858" data-name="Path 43858" d="M339.938,200.222l-1.081,13c-5.911,2.876-11.69-1.447-12.047-1.729.254.113,3.364,1.428,5.385,0a15.771,15.771,0,0,1-1.879-2.481c-.122-.489,1.879-.62,1.879-.62s-1.316-10.534,2.19-15.036C335.756,191.642,337.9,195.213,339.938,200.222Z" transform="translate(-223.721 -131.435)" fill="#263238"/>
      <path id="Path_43859" data-name="Path 43859" d="M363.6,418.44l.94,2.763a55.917,55.917,0,0,1-4.774,6.71s-.94-.3-2.481,1.062a5.7,5.7,0,0,0-1.654,3.533s-7.18,8.608-16.286,8.73-6.362-4.464-6.362-4.464Z" transform="translate(-224.07 -145.026)" fill="#fff" stroke="#263238" stroke-linecap="round" stroke-linejoin="round" stroke-width="1"/>
      <path id="Path_43860" data-name="Path 43860" d="M355.041,395.058s-12.217-4.5-14.6,4.5c0,0,2.18,9.914.874,15.336s-7.884,15.778-8.288,17.742c-.8,3.853-.2,4.116-.2,4.116s4.783,2.763,11.211-.2,17.554-15.7,19.293-18.325-5.45-12.959-5.45-12.959Z" transform="translate(-224.071 -143.549)" fill="#fff"/>
      <g id="Group_35183" data-name="Group 35183" transform="translate(108.538 250.384)" clip-path="url(#clip-path)">
        <path id="Path_43861" data-name="Path 43861" d="M355.041,395.058s-12.217-4.5-14.6,4.5c0,0,2.18,9.914.874,15.336s-7.884,15.778-8.288,17.742c-.8,3.853-.2,4.116-.2,4.116s4.783,2.763,11.211-.2,17.554-15.7,19.293-18.325-5.45-12.959-5.45-12.959Z" transform="translate(-332.609 -393.933)" fill="#fff" opacity="0.4"/>
      </g>
      <path id="Path_43863" data-name="Path 43863" d="M355.041,395.058s-12.217-4.5-14.6,4.5c0,0,2.18,9.914.874,15.336s-7.884,15.778-8.288,17.742c-.8,3.853-.2,4.116-.2,4.116s4.783,2.763,11.211-.2,17.554-15.7,19.293-18.325-5.45-12.959-5.45-12.959Z" transform="translate(-224.071 -143.549)" fill="none" stroke="#263238" stroke-linecap="round" stroke-linejoin="round" stroke-width="1"/>
      <path id="Path_43864" data-name="Path 43864" d="M349.634,408.68a26.529,26.529,0,0,1-3.054,17.667" transform="translate(-224.913 -144.437)" fill="none" stroke="#263238" stroke-linecap="round" stroke-linejoin="round" stroke-width="1"/>
      <path id="Path_43865" data-name="Path 43865" d="M345.763,429.929a8.242,8.242,0,0,1-5.225,4.83,14.538,14.538,0,0,1-7.518,0l2.932-5.939a18.738,18.738,0,0,0,9.811,1.109Z" transform="translate(-224.095 -145.651)" fill="#fff" stroke="#263238" stroke-linecap="round" stroke-linejoin="round" stroke-width="1"/>
      <path id="Path_43866" data-name="Path 43866" d="M347.8,426.11s-6.39.385-9.726-.94" transform="translate(-224.4 -145.431)" fill="none" stroke="#263238" stroke-linecap="round" stroke-linejoin="round" stroke-width="1"/>
      <path id="Path_43867" data-name="Path 43867" d="M349.083,422.36s-5.977.94-9.313-.94" transform="translate(-224.502 -145.205)" fill="none" stroke="#263238" stroke-linecap="round" stroke-linejoin="round" stroke-width="1"/>
      <path id="Path_43868" data-name="Path 43868" d="M350.2,418.2s-5.234.761-8.655-.855" transform="translate(-224.609 -144.959)" fill="none" stroke="#263238" stroke-linecap="round" stroke-linejoin="round" stroke-width="1"/>
      <path id="Path_43869" data-name="Path 43869" d="M350.83,413.53s-5.826,1.823-8.58,0" transform="translate(-224.652 -144.73)" fill="none" stroke="#263238" stroke-linecap="round" stroke-linejoin="round" stroke-width="1"/>
      <path id="Path_43870" data-name="Path 43870" d="M351.554,401.771l1.015,6.4s-7.706,5.075-12.8-1.269V400.22S341.687,404.712,351.554,401.771Z" transform="translate(-224.502 -143.928)" fill="#fff" stroke="#263238" stroke-linecap="round" stroke-linejoin="round" stroke-width="1"/>
      <path id="Path_43871" data-name="Path 43871" d="M343.281,249c-7.809,24.743-32.045,64.428-29.592,74.587,1.344,5.544,9.341,36.96,15.6,50.746a24.4,24.4,0,0,0,7.518,8.8l3.712,7.96c9.05,3.938,12.292-4.069,12.292-4.069L350.987,378c4.849-8.815,2.819-8.815-3.486-54.5-.742-5.385,11.747-22.027,11.747-22.027l6.409,41.875,1.043,34.3,3.327,10.6s.827,9.952.752,10.553h14.876l1.616-10.939s6.907-6.512,6.907-14.03-1.485-45.812,0-56.967S390.7,253.7,390.7,253.7Z" transform="translate(-222.92 -134.814)" fill="#263238"/>
      <path id="Path_43872" data-name="Path 43872" d="M1.774,0H22.532a1.774,1.774,0,0,1,1.774,1.774V16.587H0V1.774A1.774,1.774,0,0,1,1.774,0Z" transform="translate(17.466 91.98) rotate(5.143)" fill="#fff"/>
      <g id="Group_35184" data-name="Group 35184" transform="translate(15.979 91.98)" clip-path="url(#clip-path-2)">
        <path id="Path_43873" data-name="Path 43873" d="M1.774,0H22.532a1.774,1.774,0,0,1,1.774,1.774V16.587H0V1.774A1.774,1.774,0,0,1,1.774,0Z" transform="translate(1.487 0) rotate(5.143)" fill="rgba(0,0,0,0.7)" opacity="0.3"/>
        <rect id="Rectangle_19354" data-name="Rectangle 19354" width="5.949" height="11.897" transform="matrix(0.996, 0.086, -0.086, 0.996, 18.326, 1.254)" fill="rgba(255,255,255,0.7)" opacity="0.3"/>
      </g>
      <path id="Path_43875" data-name="Path 43875" d="M1.774,0H22.532a1.774,1.774,0,0,1,1.774,1.774V16.587H0V1.774A1.774,1.774,0,0,1,1.774,0Z" transform="translate(17.466 91.98) rotate(5.143)" fill="none" stroke="#263238" stroke-linecap="round" stroke-linejoin="round" stroke-width="1.004"/>
      <path id="Path_43876" data-name="Path 43876" d="M1.767,0H22.441a1.767,1.767,0,0,1,1.767,1.767V16.521H0V1.767A1.767,1.767,0,0,1,1.767,0Z" transform="matrix(0.996, 0.086, -0.086, 0.996, 53.157, 93.293)" fill="#fff"/>
      <g id="Group_35185" data-name="Group 35185" transform="translate(51.743 93.293)" clip-path="url(#clip-path-3)">
        <path id="Path_43877" data-name="Path 43877" d="M1.767,0H22.441a1.767,1.767,0,0,1,1.767,1.767V16.521H0V1.767A1.767,1.767,0,0,1,1.767,0Z" transform="matrix(0.996, 0.086, -0.086, 0.996, 1.414, 0)" fill="rgba(0,0,0,0.7)" opacity="0.3"/>
        <rect id="Rectangle_19355" data-name="Rectangle 19355" width="3.59" height="11.897" transform="matrix(0.996, 0.086, -0.086, 0.996, 20.084, 3.17)" fill="rgba(255,255,255,0.7)" opacity="0.3"/>
      </g>
      <path id="Path_43879" data-name="Path 43879" d="M1.767,0H22.441a1.767,1.767,0,0,1,1.767,1.767V16.521H0V1.767A1.767,1.767,0,0,1,1.767,0Z" transform="matrix(0.996, 0.086, -0.086, 0.996, 53.157, 93.293)" fill="none" stroke="#263238" stroke-linecap="round" stroke-linejoin="round" stroke-width="1"/>
      <path id="Path_43880" data-name="Path 43880" d="M1.767,0H22.441a1.767,1.767,0,0,1,1.767,1.767V16.521H0V1.767A1.767,1.767,0,0,1,1.767,0Z" transform="matrix(0.996, 0.086, -0.086, 0.996, 45.675, 92.645)" fill="#fff" stroke="#263238" stroke-linecap="round" stroke-linejoin="round" stroke-width="1"/>
      <path id="Path_43881" data-name="Path 43881" d="M1.767,0H22.441a1.767,1.767,0,0,1,1.767,1.767V16.511H0V1.757A1.767,1.767,0,0,1,1.767,0Z" transform="matrix(0.996, 0.086, -0.086, 0.996, 81.246, 95.707)" fill="#fff" stroke="#263238" stroke-linecap="round" stroke-linejoin="round" stroke-width="1"/>
      <rect id="Rectangle_19356" data-name="Rectangle 19356" width="5.949" height="11.897" transform="matrix(0.996, 0.086, -0.086, 0.996, 62.394, 95.648)" fill="rgba(255,255,255,0.7)" opacity="0.3"/>
      <rect id="Rectangle_19357" data-name="Rectangle 19357" width="5.949" height="11.897" transform="matrix(0.996, 0.086, -0.086, 0.996, 97.575, 98.667)" fill="rgba(255,255,255,0.7)" opacity="0.3"/>
      <path id="Path_43882" data-name="Path 43882" d="M331.833,245.537l-5.817,67.6-108.906-9.4,5.817-67.586a4.266,4.266,0,0,1,4.623-3.891l100.382,8.627a4.266,4.266,0,0,1,3.9,4.652Z" transform="translate(-217.11 -133.804)" fill="#fff"/>
      <g id="Group_35186" data-name="Group 35186" transform="translate(0 98.438)" clip-path="url(#clip-path-4)">
        <path id="Path_43883" data-name="Path 43883" d="M331.833,245.537l-5.817,67.6-108.906-9.4,5.817-67.586a4.266,4.266,0,0,1,4.623-3.891l100.382,8.627a4.266,4.266,0,0,1,3.9,4.652Z" transform="translate(-217.11 -232.243)" fill="rgba(0,0,0,0.7)" opacity="0.3"/>
      </g>
      <path id="Path_43885" data-name="Path 43885" d="M331.833,245.537l-5.817,67.6-108.906-9.4,5.817-67.586a4.266,4.266,0,0,1,4.623-3.891l100.382,8.627a4.266,4.266,0,0,1,3.9,4.652Z" transform="translate(-217.11 -133.804)" fill="none" stroke="#263238" stroke-linecap="round" stroke-linejoin="round" stroke-width="1"/>
      <path id="Path_43886" data-name="Path 43886" d="M333.634,245.694l-5.817,67.6L247,306.335l5.826-67.586a4.266,4.266,0,0,1,4.624-3.891l72.294,6.212a4.266,4.266,0,0,1,3.89,4.623Z" transform="translate(-218.911 -133.961)" fill="#fff" stroke="#263238" stroke-linecap="round" stroke-linejoin="round" stroke-width="1"/>
      <path id="Path_43887" data-name="Path 43887" d="M328.617,247.845l-69.08-5.939a1.767,1.767,0,0,1-1.607-1.88h0a1.767,1.767,0,0,1,1.879-1.607l69.08,5.939a1.767,1.767,0,0,1,1.607,1.879h0a1.767,1.767,0,0,1-1.879,1.607Z" transform="translate(-219.57 -134.176)" fill="rgba(255,255,255,0.7)" opacity="0.3"/>
      <path id="Path_43888" data-name="Path 43888" d="M388.857,408.613s-5.206-3.712-15.975-2.97c0,0-.789,12.921-2.255,16.68S361.436,432.6,360,433.714s-1.438,5.018-1.438,5.018h32.722a104.226,104.226,0,0,0-2.6-16.6Z" transform="translate(-225.635 -144.249)" fill="#fff"/>
      <g id="Group_35187" data-name="Group 35187" transform="translate(132.925 261.297)" clip-path="url(#clip-path-5)">
        <path id="Path_43889" data-name="Path 43889" d="M388.857,408.613s-5.206-3.712-15.975-2.97c0,0-.789,12.921-2.255,16.68S361.436,432.6,360,433.714s-1.438,5.018-1.438,5.018h32.722a104.226,104.226,0,0,0-2.6-16.6Z" transform="translate(-358.56 -405.546)" fill="#fff" opacity="0.4"/>
      </g>
      <path id="Path_43891" data-name="Path 43891" d="M388.857,408.613s-5.206-3.712-15.975-2.97c0,0-.789,12.921-2.255,16.68S361.436,432.6,360,433.714s-1.438,5.018-1.438,5.018h32.722a104.226,104.226,0,0,0-2.6-16.6Z" transform="translate(-225.635 -144.249)" fill="none" stroke="#263238" stroke-linecap="round" stroke-linejoin="round" stroke-width="1"/>
      <path id="Path_43892" data-name="Path 43892" d="M383.209,410.59s-.771,11.9-2.622,15.036a21.738,21.738,0,0,1-3.627,4.7" transform="translate(-226.743 -144.553)" fill="none" stroke="#263238" stroke-linecap="round" stroke-linejoin="round" stroke-width="1"/>
      <path id="Path_43893" data-name="Path 43893" d="M375.043,433.232s-1.645,2.049-3.468,2.321-11.455-.273-11.455-.273l3.928-3.4S372.036,430.535,375.043,433.232Z" transform="translate(-225.729 -145.815)" fill="#fff" stroke="#263238" stroke-linecap="round" stroke-linejoin="round" stroke-width="1"/>
      <path id="Path_43894" data-name="Path 43894" d="M378.854,430.236s-6.973-4-11.944-.94" transform="translate(-226.138 -145.61)" fill="none" stroke="#263238" stroke-linecap="round" stroke-linejoin="round" stroke-width="1"/>
      <path id="Path_43895" data-name="Path 43895" d="M380.73,427.33s-4.868-3.806-10.61-1.72" transform="translate(-226.331 -145.42)" fill="none" stroke="#263238" stroke-linecap="round" stroke-linejoin="round" stroke-width="1"/>
      <path id="Path_43896" data-name="Path 43896" d="M382.919,422.919s-5.244-4.078-10.769-1.485" transform="translate(-226.454 -145.154)" fill="none" stroke="#263238" stroke-linecap="round" stroke-linejoin="round" stroke-width="1"/>
      <path id="Path_43897" data-name="Path 43897" d="M383.665,417.445s-6.362-3.421-10.986-.827" transform="translate(-226.486 -144.857)" fill="none" stroke="#263238" stroke-linecap="round" stroke-linejoin="round" stroke-width="1"/>
      <path id="Path_43898" data-name="Path 43898" d="M391.248,440.86v2.415h-3.759a6.528,6.528,0,0,0-6.287,0H363.554a12.8,12.8,0,0,1-5.394-1.212l.367-1.2Z" transform="translate(-225.61 -146.377)" fill="#fff" stroke="#263238" stroke-linecap="round" stroke-linejoin="round" stroke-width="1"/>
      <path id="Path_43899" data-name="Path 43899" d="M387.349,407.783l-.836,5.272s-9.82-3.186-15.242-1.118v-6.484S381.353,401.919,387.349,407.783Z" transform="translate(-226.401 -144.179)" fill="#fff" stroke="#263238" stroke-linecap="round" stroke-linejoin="round" stroke-width="1"/>
      <path id="Path_43900" data-name="Path 43900" d="M395.719,262.183s-20.872,4.088-41.348-2.547a59.2,59.2,0,0,1-13.278-6.127s.056-1.316.094-3.468c.169-8.4.122-29.536-4.3-34.77-2.819-3.3-5.028-23.691.413-34l16.643-13.382c23.042,4.5,27.91,10.6,31.716,23.757.7,2.406,1.363,5.046,2.1,7.96.8,3.176,1.551,7.057,2.265,11.277C393.473,231.9,395.719,262.183,395.719,262.183Z" transform="translate(-224.152 -129.926)" fill="#999"/>
      <g id="Group_35188" data-name="Group 35188" transform="translate(109.804 37.964)" clip-path="url(#clip-path-6)">
        <path id="Path_43901" data-name="Path 43901" d="M390.473,212.4l-9.4,41.978s-13.579,3.759-26.237,6.775a59.2,59.2,0,0,1-13.288-6.127s.056-1.316.094-3.468c11.371-5.817,27.966-14.369,27.835-14.773-.216-.63,0-22.554,0-22.554s15.036-3.486,16.633-21.1c.7,2.406,1.363,5.046,2.1,7.96C389.007,204.285,389.758,208.138,390.473,212.4Z" transform="translate(-334.414 -169.412)" opacity="0.2"/>
      </g>
      <path id="Path_43903" data-name="Path 43903" d="M395.719,262.183s-20.872,4.088-41.348-2.547a59.2,59.2,0,0,1-13.278-6.127s.056-1.316.094-3.468c.169-8.4.122-29.536-4.3-34.77-2.819-3.3-5.028-23.691.413-34l16.643-13.382c23.042,4.5,27.91,10.6,31.716,23.757.7,2.406,1.363,5.046,2.1,7.96.8,3.176,1.551,7.057,2.265,11.277C393.473,231.9,395.719,262.183,395.719,262.183Z" transform="translate(-224.152 -129.926)" fill="none" stroke="#263238" stroke-linecap="round" stroke-linejoin="round" stroke-width="1"/>
      <path id="Path_43904" data-name="Path 43904" d="M354.7,149.2s-7.349,10.525,2.424,18.738c0,0-11.859,13.307-15.759,11.474-1.645-.771,0-5.573,0-5.573l-6.879-12.724Z" transform="translate(-224.184 -128.8)" fill="#fff" stroke="#263238" stroke-linecap="round" stroke-linejoin="round" stroke-width="1"/>
      <path id="Path_43905" data-name="Path 43905" d="M351.682,153.479c2.293-10.027,1.193-24.959-12.856-23.634-9.848.94-16.868,6.39-14.1,19.6,1.156,5.573,2.1,13.466,7.217,20.59,1.419,1.973,16.267-5.009,15.365-10.657" transform="translate(-223.559 -127.628)" fill="#fff" stroke="#263238" stroke-linecap="round" stroke-linejoin="round" stroke-width="1"/>
      <path id="Path_43906" data-name="Path 43906" d="M332.06,148.3a6.8,6.8,0,0,1,6.09.592" transform="translate(-224.038 -128.718)" fill="none" stroke="#263238" stroke-linecap="round" stroke-linejoin="round" stroke-width="1"/>
      <path id="Path_43907" data-name="Path 43907" d="M324.54,149.575a1.767,1.767,0,0,1,2.114-.94" transform="translate(-223.584 -128.761)" fill="none" stroke="#263238" stroke-linecap="round" stroke-linejoin="round" stroke-width="1"/>
      <path id="Path_43908" data-name="Path 43908" d="M328.094,151.86s-2.894,5.272-2.9,6.024,3.562,1.006,3.562,1.006" transform="translate(-223.624 -128.96)" fill="#fff" stroke="#263238" stroke-linecap="round" stroke-linejoin="round" stroke-width="1"/>
      <path id="Path_43909" data-name="Path 43909" d="M334.817,152.935c0,.573-.254,1.043-.611,1.062s-.658-.451-.677-1.024.254-1.043.611-1.053S334.8,152.38,334.817,152.935Z" transform="translate(-224.126 -128.964)" fill="#263238"/>
      <path id="Path_43910" data-name="Path 43910" d="M330.55,163.228s5.554-1.043,6.578-3" transform="translate(-223.947 -129.465)" fill="none" stroke="#263238" stroke-linecap="round" stroke-linejoin="round" stroke-width="1"/>
      <path id="Path_43911" data-name="Path 43911" d="M324.31,140.186l4.323-1.259s6.061-2.819,7.349-2.425,3.9,4.407,3.815,6.7a15.027,15.027,0,0,1,4.6,8.8l1.24-.564s-.066-4.7,2.6-4.577,3.872,3.317,3.693,4.323-3.1,5.178-3.1,5.178,6.691-1,6.907-14.1-14.143-15.233-21.125-14.7a91.151,91.151,0,0,1-10.638.395l.395,3.759-2.819.742,2.124,2.6-2.331,1.062Z" transform="translate(-223.391 -127.492)" fill="#263238"/>
      <path id="Path_43912" data-name="Path 43912" d="M350.26,293s17.009,4.5,21.614,17.169" transform="translate(-225.134 -137.466)" fill="none" stroke="#fff" stroke-linecap="round" stroke-linejoin="round" stroke-width="1"/>
      <path id="Path_43913" data-name="Path 43913" d="M357.058,300.25s-9.191,15.308-23.258,23.258" transform="translate(-224.142 -137.903)" fill="none" stroke="#fff" stroke-linecap="round" stroke-linejoin="round" stroke-width="1"/>
      <path id="Path_43914" data-name="Path 43914" d="M344.8,391.654s5.225-1.175,6.653-3.2" transform="translate(-224.805 -143.218)" fill="none" stroke="#fff" stroke-linecap="round" stroke-linejoin="round" stroke-width="1"/>
      <path id="Path_43915" data-name="Path 43915" d="M375.76,393.854s5.112-2.65,10.205,0" transform="translate(-226.671 -143.473)" fill="none" stroke="#fff" stroke-linecap="round" stroke-linejoin="round" stroke-width="1"/>
      <path id="Path_43916" data-name="Path 43916" d="M392.541,318.09s-8.58,22.225-12.921,24.283" transform="translate(-226.904 -138.978)" fill="none" stroke="#fff" stroke-linecap="round" stroke-linejoin="round" stroke-width="1"/>
      <path id="Path_43917" data-name="Path 43917" d="M353.39,281.05c.235,2.415,10.337,13.607,18.673,18.043" transform="translate(-225.323 -136.746)" fill="none" stroke="#fff" stroke-linecap="round" stroke-linejoin="round" stroke-width="1"/>
      <path id="Path_43918" data-name="Path 43918" d="M362.56,271a15.571,15.571,0,0,1,.724,9.444,14.557,14.557,0,0,0,0,8.326" transform="translate(-225.876 -136.14)" fill="none" stroke="#fff" stroke-linecap="round" stroke-linejoin="round" stroke-width="1"/>
      <path id="Path_43919" data-name="Path 43919" d="M343,221.82s15.816,20.467,32.816,27.187" transform="translate(-224.697 -133.176)" fill="none" stroke="#263238" stroke-linecap="round" stroke-linejoin="round" stroke-width="1"/>
      <path id="Path_43920" data-name="Path 43920" d="M360.42,186.61s-.056,13.917,9.98,20.195" transform="translate(-225.747 -131.054)" fill="none" stroke="#263238" stroke-linecap="round" stroke-linejoin="round" stroke-width="1"/>
      <path id="Path_43921" data-name="Path 43921" d="M363.913,208.213c-2.124,2.086.188,28.267.188,28.267s-12.339,4.83-16.2,7.941-22.159,10.253-22.159,10.253-2.819,9.6.7,9.933,39.91-12.076,48.237-16.427c0,0,5.422-31.951,5.385-40.08" transform="translate(-223.592 -132.349)" fill="#fff" stroke="#263238" stroke-linecap="round" stroke-linejoin="round" stroke-width="1"/>
      <path id="Path_43922" data-name="Path 43922" d="M326.046,256.977c-1.691-.32-4.7-1.428-6.277-1.062s-4.464,2.105-7.433,2.819-1.739,1.879,0,2.227a11.7,11.7,0,0,0,3.844,0l-2.415,2.359a38.094,38.094,0,0,1-4.276,1.983c-.874,0-3.966.836-3.759,2.152s1.983,1.165,3.966,1.24c0,0-3.158.63-2.819,2.424.207,1.231,3.759.122,5.573.122,0,0-1.485,1.616-.376,2.114s3.571-.742,3.571-.742-.094,1.334,1.015,1.466,3.9-.94,5.8-2.086a51.438,51.438,0,0,0,5.357-3.966,8.824,8.824,0,0,1,2.434-1.579" transform="translate(-222.45 -135.227)" fill="#fff" stroke="#263238" stroke-linecap="round" stroke-linejoin="round" stroke-width="1"/>
      <path id="Path_43923" data-name="Path 43923" d="M310,269.513a21.5,21.5,0,0,0,2.6-.3c.742-.188,1.485-.432,1.485-.432" transform="translate(-222.708 -136.006)" fill="none" stroke="#263238" stroke-linecap="round" stroke-linejoin="round" stroke-width="1"/>
      <path id="Path_43924" data-name="Path 43924" d="M312.89,272.2a8.947,8.947,0,0,0,3.223-1.109" transform="translate(-222.882 -136.146)" fill="none" stroke="#263238" stroke-linecap="round" stroke-linejoin="round" stroke-width="1"/>
      <path id="Path_43925" data-name="Path 43925" d="M316.29,273.674a5.478,5.478,0,0,0,2.349-.874" transform="translate(-223.087 -136.249)" fill="none" stroke="#263238" stroke-linecap="round" stroke-linejoin="round" stroke-width="1"/>
      <path id="Path_43926" data-name="Path 43926" d="M314.581,264.56s-.677,1.551,0,2.415,1.494.94,1.616,1.879,1.739.94,2.321,1.551,1.024,1.785,2.885,1.879" transform="translate(-222.966 -135.752)" fill="none" stroke="#263238" stroke-linecap="round" stroke-linejoin="round" stroke-width="1"/>
      <path id="Path_43927" data-name="Path 43927" d="M365.408,179.33c-6.4,14.481,0,34.573,0,34.573s15.487,5.263,16.915,3,4.041-13.372,4.483-18.5" transform="translate(-225.876 -130.616)" fill="#999" stroke="#263238" stroke-linecap="round" stroke-linejoin="round" stroke-width="1"/>
      <path id="Path_43928" data-name="Path 43928" d="M382.852,201.33s-6.578,9.05-11.812,9.172" transform="translate(-226.387 -131.941)" fill="none" stroke="#263238" stroke-linecap="round" stroke-linejoin="round" stroke-width="1"/>
    </g>
    <g id="freepik--character-2--inject-102" transform="translate(118.527 92.521)">
      <path id="Path_43929" data-name="Path 43929" d="M133.369,441.944s-1.607-6.136.273-8.411c3.364-4.078-.413-7.518,2.97-8.918l1.419,1.645c.273-1.663-.517-6.747,5.761-7.405,7.593-.8,7.734,4.7,8.148,6.578l-.132-2.547c3.242,0,1.56,3.233,6.465,8.514a14,14,0,0,1,3.552,10.581Z" transform="translate(-123.269 -116.004)" fill="#263238"/>
      <path id="Path_43930" data-name="Path 43930" d="M194.867,441.926c-3.054-1.363-.254-12.884-.254-12.884s-4.107-2.753,0-5.638a11.427,11.427,0,0,0,11.662,1.879s.8-7.706,5.638-6.719c0,0,1.24,4.887,4.069,7.678,7.659,7.518,17.554,8.458,19.208,12.066.5,1.09-.1,3.58-.1,3.58Z" transform="translate(-126.888 -115.986)" fill="#263238"/>
      <path id="Path_43931" data-name="Path 43931" d="M177.92,247.8l3.759,7.969s15.543,32.12,25.063,68.9c.226.874,5.15,18.3,1.2,61.684l2.255,7.612-2.462,12.574s3.7,5.347,3.571,7.095c0,0-9.134,1.7-12.217,3.336-2.368,1.278-9.482,8.3-9.482,8.3-2.02-.413-2.2-8.57-2.2-8.57s-4.219-72.425-5.432-75.545-8.617-16.577-20.176-47.372c0,0-.263,43.012-3.345,53.894-2.753,9.679.507,36.772.507,36.772L157.086,414.6s6.5,6.757,1.231,8.57c0,0-3.524-6.775-13.56-8.317-5.1-.789-11.455,8.27-11.455,8.27-2.237-.714.94-12.094.94-12.094-7.114-53.678-1.879-43.961-3.289-70.2-.94-16.84-5.685-88.88-.085-94.735Z" transform="translate(-122.995 -105.597)" fill="#bfbfbf"/>
      <g id="Group_35189" data-name="Group 35189" transform="translate(5.186 140.503)" clip-path="url(#clip-path-7)">
        <path id="Path_43932" data-name="Path 43932" d="M128.26,272.61c25.128,1.973,46.883-6.249,56.328-10.544-1.795-4.022-2.894-6.3-2.894-6.3l-3.759-7.96-46.987-1.71C128.955,248.214,128.251,258.956,128.26,272.61Z" transform="translate(-128.186 -246.1)" opacity="0.2"/>
        <path id="Path_43933" data-name="Path 43933" d="M164.23,296.71c11.437,30.4,18.795,43.707,19.979,46.808.686,1.8,2.368,26.4,3.684,47.034,1.5-18.795,3.054-38.595,3.186-42.476.282-7.743-5.309-18.353-6.146-21.1s1.052-5.714,1.052-5.714L175.93,308.579c.338-4.3-4.99-23.089-4.99-23.089C167.773,288.488,164.954,294.869,164.23,296.71Z" transform="translate(-130.354 -248.474)" opacity="0.2"/>
      </g>
      <path id="Path_43935" data-name="Path 43935" d="M177.92,247.8l3.759,7.969s15.543,32.12,25.063,68.9c.226.874,5.15,18.3,1.2,61.684l2.255,7.612-2.462,12.574s3.7,5.347,3.571,7.095c0,0-9.134,1.7-12.217,3.336-2.368,1.278-9.482,8.3-9.482,8.3-2.02-.413-2.2-8.57-2.2-8.57s-4.219-72.425-5.432-75.545-8.617-16.577-20.176-47.372c0,0-.263,43.012-3.345,53.894-2.753,9.679.507,36.772.507,36.772L157.086,414.6s6.5,6.757,1.231,8.57c0,0-3.524-6.775-13.56-8.317-5.1-.789-11.455,8.27-11.455,8.27-2.237-.714.94-12.094.94-12.094-7.114-53.678-1.879-43.961-3.289-70.2-.94-16.84-5.685-88.88-.085-94.735Z" transform="translate(-122.995 -105.597)" fill="none" stroke="#263238" stroke-linecap="round" stroke-linejoin="round" stroke-width="1"/>
      <path id="Path_43936" data-name="Path 43936" d="M164,295.931s5.742-11.079,10.638-14.171" transform="translate(-125.153 -107.746)" fill="none" stroke="#263238" stroke-linecap="round" stroke-linejoin="round" stroke-width="1"/>
      <path id="Path_43937" data-name="Path 43937" d="M176.113,277.94s-17.441,5.31-23.493,6.334" transform="translate(-124.468 -107.516)" fill="none" stroke="#263238" stroke-linecap="round" stroke-linejoin="round" stroke-width="1"/>
      <path id="Path_43938" data-name="Path 43938" d="M168.031,259c.752,14.519,5.873,16.99.94,20.157,0,0,.141,6.794-2.321,11.1" transform="translate(-125.313 -106.375)" fill="none" stroke="#263238" stroke-linecap="round" stroke-linejoin="round" stroke-width="1"/>
      <path id="Path_43939" data-name="Path 43939" d="M135.291,253.09s2.058,22.319-4.811,26.519" transform="translate(-123.133 -106.019)" fill="none" stroke="#263238" stroke-linecap="round" stroke-linejoin="round" stroke-width="1"/>
      <path id="Path_43940" data-name="Path 43940" d="M130.465,260.75s-.517,14.857,0,26.829c0,0,1.72,50.6,3.439,56.957s-2.65,15.975-2.274,43.435" transform="translate(-123.119 -106.48)" fill="none" stroke="#263238" stroke-linecap="round" stroke-linejoin="round" stroke-width="1"/>
      <path id="Path_43941" data-name="Path 43941" d="M147.692,418.99a7.133,7.133,0,0,0-4.8.639" transform="translate(-123.881 -116.007)" fill="none" stroke="#263238" stroke-linecap="round" stroke-linejoin="round" stroke-width="1"/>
      <path id="Path_43942" data-name="Path 43942" d="M158.526,425.085a26.36,26.36,0,0,0-7.386-5.065" transform="translate(-124.378 -116.079)" fill="none" stroke="#263238" stroke-linecap="round" stroke-linejoin="round" stroke-width="1"/>
      <path id="Path_43943" data-name="Path 43943" d="M154.96,300.57c-3.853,4.323-9.961,12.47-16.22,13.156" transform="translate(-123.631 -108.88)" fill="none" stroke="#263238" stroke-linecap="round" stroke-linejoin="round" stroke-width="1"/>
      <path id="Path_43944" data-name="Path 43944" d="M162.036,293.09c-1.184,1.494-2.406,2.96-3.646,4.417" transform="translate(-124.815 -108.429)" fill="none" stroke="#263238" stroke-linecap="round" stroke-linejoin="round" stroke-width="1"/>
      <path id="Path_43945" data-name="Path 43945" d="M155.56,346.91S146.8,358.835,142,359.521" transform="translate(-123.828 -111.673)" fill="none" stroke="#263238" stroke-linecap="round" stroke-linejoin="round" stroke-width="1"/>
      <path id="Path_43946" data-name="Path 43946" d="M167.39,294.55s15.6,43.444,21.022,47.729c0,0,.611,31.951.789,43.106s2.744,25.984,2.744,25.984" transform="translate(-125.358 -108.517)" fill="none" stroke="#263238" stroke-linecap="round" stroke-linejoin="round" stroke-width="1"/>
      <path id="Path_43947" data-name="Path 43947" d="M210.414,418.52s-6,2.077-8.927,3.4a8.072,8.072,0,0,0-3.947,4.238" transform="translate(-127.175 -115.988)" fill="none" stroke="#263238" stroke-linecap="round" stroke-linejoin="round" stroke-width="1"/>
      <path id="Path_43948" data-name="Path 43948" d="M193.539,327.318c-8.373-5.253-19.415-11.822-23.869-21.078" transform="translate(-125.495 -109.222)" fill="none" stroke="#263238" stroke-linecap="round" stroke-linejoin="round" stroke-width="1"/>
      <path id="Path_43949" data-name="Path 43949" d="M202.539,333.105c-1.588-.874-3.148-1.785-4.7-2.725" transform="translate(-127.193 -110.677)" fill="none" stroke="#263238" stroke-linecap="round" stroke-linejoin="round" stroke-width="1"/>
      <path id="Path_43950" data-name="Path 43950" d="M173.908,265.044c-4.5-.066-9.4-.658-13.278-3.2" transform="translate(-124.95 -106.546)" fill="none" stroke="#263238" stroke-linecap="round" stroke-linejoin="round" stroke-width="1"/>
      <path id="Path_43951" data-name="Path 43951" d="M182.121,264.8c-1.287.179-2.584.291-3.881.357" transform="translate(-126.012 -106.724)" fill="none" stroke="#263238" stroke-linecap="round" stroke-linejoin="round" stroke-width="1"/>
      <path id="Path_43952" data-name="Path 43952" d="M187.126,158.215c-3.439-5.206-20.965-6.531-32.214-6.531s-24.9-1.879-31.068,10.807c-4.7,9.689,6.127,60.923,6.127,60.923l-2.65,22.121c20.373,6.39,55.275,4.981,55.275,4.981l-4.7-20S190.565,163.412,187.126,158.215Z" transform="translate(-122.662 -99.901)" fill="#263238"/>
      <path id="Path_43953" data-name="Path 43953" d="M149.673,138s1.513,12.057-3.073,14.66c0,0,2.293,8.843,10.337,9.4s11.6-8.082,11.6-8.082Z" transform="translate(-124.105 -99.083)" fill="#fff" stroke="#263238" stroke-linecap="round" stroke-linejoin="round" stroke-width="1"/>
      <path id="Path_43954" data-name="Path 43954" d="M1.729,0H22.4A1.767,1.767,0,0,1,24.17,1.767V16.521H0V1.767A1.767,1.767,0,0,1,1.73,0Z" transform="matrix(0.996, -0.092, 0.092, 0.996, 66.476, 8.119)" fill="#fff"/>
      <g id="Group_35190" data-name="Group 35190" transform="translate(66.476 5.899)" clip-path="url(#clip-path-8)">
        <path id="Path_43955" data-name="Path 43955" d="M1.729,0H22.4A1.767,1.767,0,0,1,24.17,1.767V16.521H0V1.767A1.767,1.767,0,0,1,1.73,0Z" transform="matrix(0.996, -0.092, 0.092, 0.996, 0, 2.22)" fill="rgba(0,0,0,0.7)" opacity="0.3"/>
        <rect id="Rectangle_19358" data-name="Rectangle 19358" width="5.949" height="11.897" transform="matrix(0.996, -0.092, 0.092, 0.996, 16.985, 2.195)" fill="rgba(255,255,255,0.7)" opacity="0.3"/>
      </g>
      <path id="Path_43957" data-name="Path 43957" d="M1.729,0H22.4A1.767,1.767,0,0,1,24.17,1.767V16.521H0V1.767A1.767,1.767,0,0,1,1.73,0Z" transform="matrix(0.996, -0.092, 0.092, 0.996, 66.476, 8.119)" fill="none" stroke="#263238" stroke-linecap="round" stroke-linejoin="round" stroke-width="1"/>
      <path id="Path_43958" data-name="Path 43958" d="M1.767,0H22.441a1.767,1.767,0,0,1,1.767,1.767V16.521H0V1.767A1.767,1.767,0,0,1,1.767,0Z" transform="matrix(0.996, -0.092, 0.092, 0.996, 102.033, 4.82)" fill="#fff"/>
      <g id="Group_35191" data-name="Group 35191" transform="translate(102.033 2.596)" clip-path="url(#clip-path-9)">
        <path id="Path_43959" data-name="Path 43959" d="M1.767,0H22.441a1.767,1.767,0,0,1,1.767,1.767V16.521H0V1.767A1.767,1.767,0,0,1,1.767,0Z" transform="matrix(0.996, -0.092, 0.092, 0.996, 0, 2.223)" fill="rgba(0,0,0,0.7)" opacity="0.3"/>
        <rect id="Rectangle_19359" data-name="Rectangle 19359" width="3.59" height="11.897" transform="matrix(0.996, -0.092, 0.092, 0.996, 18.946, 2.046)" fill="rgba(255,255,255,0.7)" opacity="0.3"/>
      </g>
      <path id="Path_43961" data-name="Path 43961" d="M1.767,0H22.441a1.767,1.767,0,0,1,1.767,1.767V16.521H0V1.767A1.767,1.767,0,0,1,1.767,0Z" transform="matrix(0.996, -0.092, 0.092, 0.996, 102.033, 4.82)" fill="none" stroke="#263238" stroke-linecap="round" stroke-linejoin="round" stroke-width="1"/>
      <path id="Path_43962" data-name="Path 43962" d="M1.8,0H22.478a1.767,1.767,0,0,1,1.767,1.767V16.521H0V1.767A1.767,1.767,0,0,1,1.8,0Z" transform="matrix(0.996, -0.092, 0.092, 0.996, 94.516, 5.507)" fill="#fff" stroke="#263238" stroke-linecap="round" stroke-linejoin="round" stroke-width="1"/>
      <path id="Path_43963" data-name="Path 43963" d="M1.767,0H22.441a1.767,1.767,0,0,1,1.767,1.767V16.521H0V1.767A1.767,1.767,0,0,1,1.767,0Z" transform="matrix(0.996, -0.092, 0.092, 0.996, 130.112, 2.223)" fill="#fff" stroke="#263238" stroke-linecap="round" stroke-linejoin="round" stroke-width="1"/>
      <rect id="Rectangle_19360" data-name="Rectangle 19360" width="5.949" height="11.897" transform="matrix(0.996, -0.092, 0.092, 0.996, 111.541, 5.507)" fill="rgba(255,255,255,0.7)" opacity="0.3"/>
      <rect id="Rectangle_19361" data-name="Rectangle 19361" width="5.949" height="11.897" transform="matrix(0.996, -0.092, 0.092, 0.996, 146.71, 2.253)" fill="rgba(255,255,255,0.7)" opacity="0.3"/>
      <path id="Path_43964" data-name="Path 43964" d="M292.229,109.171l6.24,67.548L189.6,186.774l-6.2-67.567a4.276,4.276,0,0,1,3.862-4.652L287.587,105.3a4.266,4.266,0,0,1,4.642,3.872Z" transform="translate(-126.321 -97.111)" fill="#fff"/>
      <g id="Group_35192" data-name="Group 35192" transform="translate(57.059 8.17)" clip-path="url(#clip-path-10)">
        <path id="Path_43965" data-name="Path 43965" d="M292.229,109.171l6.24,67.548L189.6,186.774l-6.2-67.567a4.276,4.276,0,0,1,3.862-4.652L287.587,105.3a4.266,4.266,0,0,1,4.642,3.872Z" transform="translate(-183.38 -105.281)" fill="rgba(0,0,0,0.7)" opacity="0.3"/>
      </g>
      <path id="Path_43967" data-name="Path 43967" d="M292.229,109.171l6.24,67.548L189.6,186.774l-6.2-67.567a4.276,4.276,0,0,1,3.862-4.652L287.587,105.3a4.266,4.266,0,0,1,4.642,3.872Z" transform="translate(-126.321 -97.111)" fill="none" stroke="#263238" stroke-linecap="round" stroke-linejoin="round" stroke-width="1"/>
      <path id="Path_43968" data-name="Path 43968" d="M294.027,109.17l6.24,67.548-80.817,7.452-6.23-67.548a4.276,4.276,0,0,1,3.862-4.652l72.256-6.672a4.266,4.266,0,0,1,4.689,3.872Z" transform="translate(-128.118 -97.111)" fill="#fff" stroke="#263238" stroke-linecap="round" stroke-linejoin="round" stroke-width="1"/>
      <path id="Path_43969" data-name="Path 43969" d="M289.091,112.287l-69.042,6.371a1.767,1.767,0,0,1-1.879-1.6h0a1.757,1.757,0,0,1,1.588-1.879L288.8,108.81a1.767,1.767,0,0,1,1.879,1.6h0a1.776,1.776,0,0,1-1.588,1.879Z" transform="translate(-128.418 -97.323)" fill="rgba(255,255,255,0.7)" opacity="0.3"/>
      <path id="Path_43970" data-name="Path 43970" d="M163.382,112.53s-15.929-3.2-17.714,7.057,4.05,14.613,4.05,14.613Z" transform="translate(-124.028 -97.519)" fill="#263238"/>
      <path id="Path_43971" data-name="Path 43971" d="M149.9,139.907a27.647,27.647,0,0,1-.818-15.872c1.56-6.578,9.4-15.628,21.285-7.405,6.118,4.238,6.494,13.438,4.586,21.858-.451,2.011-.113,3.975-.78,5.826-2.349,6.484-6.644,11.474-8.993,11.587-3.919.2-11.756-4.548-11.437-8.683" transform="translate(-124.206 -97.597)" fill="#fff" stroke="#263238" stroke-linecap="round" stroke-linejoin="round" stroke-width="1"/>
      <path id="Path_43972" data-name="Path 43972" d="M166.492,138.366s-3.167-2.293-6.212-.413" transform="translate(-124.929 -99.035)" fill="none" stroke="#263238" stroke-linecap="round" stroke-linejoin="round" stroke-width="1"/>
      <path id="Path_43973" data-name="Path 43973" d="M173.25,137.877s2.4-2.2,3.956-1.879" transform="translate(-125.711 -98.96)" fill="none" stroke="#263238" stroke-linecap="round" stroke-linejoin="round" stroke-width="1"/>
      <path id="Path_43974" data-name="Path 43974" d="M162.13,142.113c0,.583.291,1.062.658,1.062s.667-.479.667-1.062-.3-1.053-.667-1.053S162.13,141.53,162.13,142.113Z" transform="translate(-125.041 -99.267)" fill="#263238"/>
      <ellipse id="Ellipse_2308" data-name="Ellipse 2308" cx="0.667" cy="1.053" rx="0.667" ry="1.053" transform="translate(46.872 41.21)" fill="#263238"/>
      <path id="Path_43975" data-name="Path 43975" d="M171.588,140.36c-1.165,1.522.47,7.321,0,7.734s-3.458-.761-3.458-.761-.7-.883.761-1.353" transform="translate(-125.392 -99.225)" fill="none" stroke="#263238" stroke-linecap="round" stroke-linejoin="round" stroke-width="1"/>
      <path id="Path_43976" data-name="Path 43976" d="M168.674,151.6s-4.013,0-5.084-1.466" transform="translate(-125.129 -99.814)" fill="none" stroke="#263238" stroke-linecap="round" stroke-linejoin="round" stroke-width="1"/>
      <path id="Path_43977" data-name="Path 43977" d="M158.074,128.124l-.31,4.849s-3.439,1.776-4.3,3.58a7.208,7.208,0,0,0-.545,3.759s-2.086-3.646-3.214-3.345c-.4.1-.4,1.635-.4,1.635s-4.7-10.487-.451-16.032S158.074,128.124,158.074,128.124Z" transform="translate(-124.133 -98.059)" fill="#757575" stroke="#263238" stroke-linecap="round" stroke-linejoin="round" stroke-width="1"/>
      <path id="Path_43978" data-name="Path 43978" d="M151.366,140.15s-.94-3.524-4.107-4.454-1,7.518,1.7,8.617,3.374,1.879,3.533.874" transform="translate(-124.05 -98.939)" fill="#fff" stroke="#263238" stroke-linecap="round" stroke-linejoin="round" stroke-width="1"/>
      <path id="Path_43979" data-name="Path 43979" d="M147.123,126.894c-.263-.357-1.428-9.4,4.539-13.457s16.051-3.627,22.469,1.992,4.6,15.365,0,18.691v-4.069s-2.114,4.078-8.458,4.417l1.936-2.988a16.864,16.864,0,0,1-8.617,1.72s2.584-2.058,2.208-3.89C161.21,129.31,152.479,134.224,147.123,126.894Z" transform="translate(-124.12 -97.44)" fill="#263238"/>
      <path id="Path_43980" data-name="Path 43980" d="M147.823,161.889c-4.4.526-10.657,6.268-6.578,16.464,2.6,6.465,23.991,2.622,23.991,2.622,7.931-3.27,19.518-15.036,28.023-20.5,0,0-1.795-11.277-3.862-9.679-9.613,7.358-17.517,7.866-30.927,14.312C158.5,165.075,150.586,161.56,147.823,161.889Z" transform="translate(-123.702 -99.845)" fill="#fff" stroke="#263238" stroke-linecap="round" stroke-linejoin="round" stroke-width="1"/>
      <path id="Path_43981" data-name="Path 43981" d="M158.78,175.93c-.132,4.21,1.6,4.952,4.511,5.949" transform="translate(-124.838 -101.369)" fill="#fff" stroke="#263238" stroke-linecap="round" stroke-linejoin="round" stroke-width="1"/>
      <path id="Path_43982" data-name="Path 43982" d="M191.89,150.781c.2-.611,3.759-6.869,4.764-8.458s5.5-3.026,7.236-3.984,1.879-2.415,2.819-1.372,0,3.421-5.206,5.949a50.3,50.3,0,0,0,5.554,0c1.391-.207,2.631-1.466,3.251-.592s.742,2.443-2.359,3.4a16.125,16.125,0,0,1-4.586.94,32.2,32.2,0,0,1,4.464,1.3c.5.366,1.24,1.222,1.983,1.353s1.551.94.188,1.879a3.383,3.383,0,0,1-3.167.056s3.6,1.739,2.481,2.819-4.7.865-4.7.865-5.31,6.475-9.8,5.122" transform="translate(-126.834 -98.999)" fill="#fff" stroke="#263238" stroke-linecap="round" stroke-linejoin="round" stroke-width="1"/>
      <path id="Path_43983" data-name="Path 43983" d="M198.66,142.68a1.692,1.692,0,0,1,1.259,1.24c.31,1.109,1.222,1.175,1.776,2.415s.395,3.158.94,3.815,0,3.43,0,3.43" transform="translate(-127.242 -99.365)" fill="none" stroke="#263238" stroke-linecap="round" stroke-linejoin="round" stroke-width="1"/>
      <path id="Path_43984" data-name="Path 43984" d="M148.831,161.638c-2.3-2.932-7.471-1.607-7.471-1.607" transform="translate(-123.789 -100.392)" fill="none" stroke="#fff" stroke-linecap="round" stroke-linejoin="round" stroke-width="1"/>
      <path id="Path_43985" data-name="Path 43985" d="M138.36,154.3s5.319.78,6.888,5.206" transform="translate(-123.608 -100.065)" fill="none" stroke="#fff" stroke-linecap="round" stroke-linejoin="round" stroke-width="1"/>
      <path id="Path_43986" data-name="Path 43986" d="M147.491,184.008s-5.187,4.013-13.081-1.748" transform="translate(-123.37 -101.75)" fill="none" stroke="#fff" stroke-linecap="round" stroke-linejoin="round" stroke-width="1"/>
      <path id="Path_43987" data-name="Path 43987" d="M140.78,185.41s-2.631,3.637-9.04,3.59" transform="translate(-123.209 -101.94)" fill="none" stroke="#fff" stroke-linecap="round" stroke-linejoin="round" stroke-width="1"/>
      <path id="Path_43988" data-name="Path 43988" d="M174.686,234.1s-13.57,10.816-27.356,9.4" transform="translate(-124.149 -104.874)" fill="none" stroke="#fff" stroke-linecap="round" stroke-linejoin="round" stroke-width="1"/>
      <path id="Path_43989" data-name="Path 43989" d="M137.41,208.81s21.059,15.449,36.65,16.436" transform="translate(-123.551 -103.35)" fill="none" stroke="#fff" stroke-linecap="round" stroke-linejoin="round" stroke-width="1"/>
    </g>
    <g id="freepik--character-1--inject-102" transform="translate(95.351 261.867)">
      <path id="Path_43990" data-name="Path 43990" d="M138,330.381a16.06,16.06,0,0,1,11.888-1.485c6.869,1.729,24.715,27.252,27.2,29.743s7.123,3.759,11.4,8.26c6.766,7.057,16.605,13.3,17.6,13.3s1.795-.62,3.035-.865,10.845-1.118,10.845-1.118,3.223.714,0,2.1-2.979,2.612-2.979,2.612-.648,1.043.648,2.039,2.058.451,3.909,3.073-2.612,1.137-2.612,1.137.987,2.819-1,2.537-.244,2.753-3.468,2.34-10.121-4.764-11.85-9.322c0,0-28.136-13.448-32.346-16.915s-21.933-22.065-23.146-22.309" transform="translate(-100.411 -279.901)" fill="#263238"/>
      <path id="Path_43991" data-name="Path 43991" d="M216.217,357.31h20.674a1.767,1.767,0,0,1,1.767,1.767v14.754H214.45V359.077a1.767,1.767,0,0,1,1.767-1.767Z" transform="translate(-105.018 -281.646)" fill="#fff"/>
      <g id="Group_35193" data-name="Group 35193" transform="translate(109.432 75.664)" clip-path="url(#clip-path-11)">
        <path id="Path_43992" data-name="Path 43992" d="M216.217,357.31h20.674a1.767,1.767,0,0,1,1.767,1.767v14.754H214.45V359.077a1.767,1.767,0,0,1,1.767-1.767Z" transform="translate(-214.45 -357.31)" fill="rgba(0,0,0,0.7)" opacity="0.3"/>
        <rect id="Rectangle_19362" data-name="Rectangle 19362" width="5.949" height="11.897" transform="translate(16.915 1.56)" fill="rgba(255,255,255,0.7)" opacity="0.3"/>
      </g>
      <path id="Path_43994" data-name="Path 43994" d="M216.217,357.31h20.674a1.767,1.767,0,0,1,1.767,1.767v14.754H214.45V359.077a1.767,1.767,0,0,1,1.767-1.767Z" transform="translate(-105.018 -281.646)" fill="none" stroke="#263238" stroke-linecap="round" stroke-linejoin="round" stroke-width="1"/>
      <path id="Path_43995" data-name="Path 43995" d="M254.217,357.31h20.674a1.767,1.767,0,0,1,1.767,1.767v14.754H252.45V359.077a1.767,1.767,0,0,1,1.767-1.767Z" transform="translate(-107.308 -281.646)" fill="#fff"/>
      <g id="Group_35194" data-name="Group 35194" transform="translate(145.142 75.664)" clip-path="url(#clip-path-12)">
        <path id="Path_43996" data-name="Path 43996" d="M254.217,357.31h20.674a1.767,1.767,0,0,1,1.767,1.767v14.754H252.45V359.077a1.767,1.767,0,0,1,1.767-1.767Z" transform="translate(-252.45 -357.31)" fill="rgba(0,0,0,0.7)" opacity="0.3"/>
        <rect id="Rectangle_19363" data-name="Rectangle 19363" width="3.59" height="11.897" transform="translate(18.879 1.56)" fill="rgba(255,255,255,0.7)" opacity="0.3"/>
      </g>
      <path id="Path_43998" data-name="Path 43998" d="M254.217,357.31h20.674a1.767,1.767,0,0,1,1.767,1.767v14.754H252.45V359.077a1.767,1.767,0,0,1,1.767-1.767Z" transform="translate(-107.308 -281.646)" fill="none" stroke="#263238" stroke-linecap="round" stroke-linejoin="round" stroke-width="1"/>
      <path id="Path_43999" data-name="Path 43999" d="M246.217,357.31h20.674a1.767,1.767,0,0,1,1.767,1.767v14.754H244.45V359.077a1.767,1.767,0,0,1,1.767-1.767Z" transform="translate(-106.826 -281.646)" fill="#fff" stroke="#263238" stroke-linecap="round" stroke-linejoin="round" stroke-width="1"/>
      <path id="Path_44000" data-name="Path 44000" d="M284.217,357.31h20.674a1.767,1.767,0,0,1,1.767,1.767v14.754H282.45V359.077a1.767,1.767,0,0,1,1.767-1.767Z" transform="translate(-109.116 -281.646)" fill="#fff" stroke="#263238" stroke-linecap="round" stroke-linejoin="round" stroke-width="1"/>
      <rect id="Rectangle_19364" data-name="Rectangle 19364" width="5.949" height="11.897" transform="translate(154.539 77.224)" fill="rgba(255,255,255,0.7)" opacity="0.3"/>
      <rect id="Rectangle_19365" data-name="Rectangle 19365" width="5.949" height="11.897" transform="translate(189.855 77.224)" fill="rgba(255,255,255,0.7)" opacity="0.3"/>
      <path id="Path_44001" data-name="Path 44001" d="M312.41,370.956V438.8H203.11V370.956a4.276,4.276,0,0,1,4.276-4.276H308.135a4.276,4.276,0,0,1,4.276,4.276Z" transform="translate(-104.335 -282.21)" fill="#fff"/>
      <g id="Group_35195" data-name="Group 35195" transform="translate(98.775 84.47)" clip-path="url(#clip-path-13)">
        <path id="Path_44002" data-name="Path 44002" d="M312.41,370.956V438.8H203.11V370.956a4.276,4.276,0,0,1,4.276-4.276H308.135a4.276,4.276,0,0,1,4.276,4.276Z" transform="translate(-203.11 -366.68)" fill="rgba(0,0,0,0.7)" opacity="0.3"/>
      </g>
      <path id="Path_44004" data-name="Path 44004" d="M312.41,370.956V438.8H203.11V370.956a4.276,4.276,0,0,1,4.276-4.276H308.135a4.276,4.276,0,0,1,4.276,4.276Z" transform="translate(-104.335 -282.21)" fill="none" stroke="#263238" stroke-linecap="round" stroke-linejoin="round" stroke-width="1"/>
      <path id="Path_44005" data-name="Path 44005" d="M314.218,370.956V438.8H233.11V370.956a4.276,4.276,0,0,1,4.276-4.276h72.557a4.276,4.276,0,0,1,4.276,4.276Z" transform="translate(-106.142 -282.21)" fill="#fff" stroke="#263238" stroke-linecap="round" stroke-linejoin="round" stroke-width="1"/>
      <path id="Path_44006" data-name="Path 44006" d="M309.02,373.571H239.687a1.767,1.767,0,0,1-1.767-1.767h0a1.767,1.767,0,0,1,1.767-1.8H309.02a1.767,1.767,0,0,1,1.767,1.767h0a1.767,1.767,0,0,1-1.767,1.8Z" transform="translate(-106.432 -282.41)" fill="rgba(255,255,255,0.7)" opacity="0.3"/>
      <path id="Path_44007" data-name="Path 44007" d="M172.239,440.011c-5.638,0-13.56-3.627-22.685-7.461-9.463-3.984-20.242-8.194-31.18-8.824-4.078-.235-1.607,16.286-1.607,16.286h-8.927s-8.815-11.765-9.839-22.3c0,0,7.2-4.445,8.927-4.7a15.754,15.754,0,0,1,1.795-.085c1.936,0,4.52.085,4.52.085h0c-.413-.244-7-4.21-10.638-8.241-3-3.327-4.37-8.58-4.473-11.718a57.475,57.475,0,0,1,.686-6.2l46.912.78s.507.357,1.41,1.024c5.441,3.966,25.326,18.738,35.268,29.874,3.214,3.6,5.385,6.813,5.7,9.162C189.605,438.526,180.744,440.011,172.239,440.011Z" transform="translate(-98 -283.426)" fill="#757575" stroke="#263238" stroke-linecap="round" stroke-linejoin="round" stroke-width="1"/>
      <path id="Path_44008" data-name="Path 44008" d="M182.416,418.511,159.6,423.727a33.652,33.652,0,0,0-10.065,8.824c-9.463-3.984-20.242-8.194-31.18-8.824-4.078-.235-1.607,16.286-1.607,16.286H107.82s-8.8-11.765-9.82-22.3c0,0,8.307,11.841,10.337,17.855,0,0,3.223-11.126,8.458-15.59a42.908,42.908,0,0,0-8-7.02c1.936,0,4.52.085,4.52.085h0c-.413-.244-7-4.21-10.638-8.241-3-3.327-4.21-8.589-4.473-11.718-.132-1.541.056-6.2.056-6.2s34.986,4.99,48.951,1.8C152.589,392.631,172.474,407.376,182.416,418.511Z" transform="translate(-98 -283.428)" fill="#263238"/>
      <path id="Path_44009" data-name="Path 44009" d="M148.8,419.69s18.588,9.313,23.55,12.959,6.437,2.659,6.437,2.659" transform="translate(-101.061 -285.405)" fill="none" stroke="#263238" stroke-linecap="round" stroke-linejoin="round" stroke-width="1"/>
      <path id="Path_44010" data-name="Path 44010" d="M102.91,418.64s4.464,6.813,4.7,8.852" transform="translate(-98.296 -285.342)" fill="none" stroke="#263238" stroke-linecap="round" stroke-linejoin="round" stroke-width="1"/>
      <path id="Path_44011" data-name="Path 44011" d="M181.042,279.452s9.9-4.3,8.956,14,2.415,19.246,2.415,19.246-24.9,10.224-31.227,1.485S160.866,281.529,181.042,279.452Z" transform="translate(-101.663 -276.927)" fill="#263238"/>
      <path id="Path_44012" data-name="Path 44012" d="M179.4,314.454s-10.243,4.83-11.173,9.294-13.758-2.255-13.758-2.255l9.294-13.363Z" transform="translate(-101.403 -278.682)" fill="#fff" stroke="#263238" stroke-linecap="round" stroke-linejoin="round" stroke-width="1"/>
      <path id="Path_44013" data-name="Path 44013" d="M108.849,366.779c-23.493,29.921-4.426,44.355,22.206,41.969l-5.338,8.458,13.4,2.321s10.271-6.71,24.273-13.88c23.832-12.217,33.464-11.484,31.011-23.71s-31.66-20.157-60.942-7.274C133.432,374.654,117.532,355.765,108.849,366.779Z" transform="translate(-98.013 -282.008)" fill="#757575" stroke="#263238" stroke-linecap="round" stroke-linejoin="round" stroke-width="1"/>
      <path id="Path_44014" data-name="Path 44014" d="M118.206,435.155s6.118-16.915,8.674-17.855,12.217,2.725,13.4,5.45c0,0,3.261-5,4.6-2.876s-.592,5.638,0,8.326,7.2,6.447,9.839,6.945,4.144,1.983,4.144,3.468v3.223H118.206a8.5,8.5,0,0,1,0-6.681Z" transform="translate(-99.177 -285.252)" fill="#fff" stroke="#263238" stroke-linecap="round" stroke-linejoin="round" stroke-width="1"/>
      <path id="Path_44015" data-name="Path 44015" d="M146.116,426.09s-5.385,2.659-7.349,1.879,1.006,4.464,1.748,4.962,5.638-1.738,5.638-1.738" transform="translate(-100.417 -285.791)" fill="none" stroke="#263238" stroke-linecap="round" stroke-linejoin="round" stroke-width="1"/>
      <path id="Path_44016" data-name="Path 44016" d="M123.66,423.12s7.311.141,9.538,2.819" transform="translate(-99.546 -285.612)" fill="none" stroke="#263238" stroke-linecap="round" stroke-linejoin="round" stroke-width="1"/>
      <path id="Path_44017" data-name="Path 44017" d="M118.25,436.31s11.653,2.725,12.639,2.725a28.347,28.347,0,0,0,4.7-1.363s3.2,1.607,5.319,2.6,15.975,0,15.975,0" transform="translate(-99.22 -286.407)" fill="none" stroke="#263238" stroke-linecap="round" stroke-linejoin="round" stroke-width="1"/>
      <path id="Path_44018" data-name="Path 44018" d="M133.16,410.183c11.126-1.2,32.74-14.914,40.258-19.678s9.4-3.515,9.4-3.515" transform="translate(-100.119 -283.425)" fill="none" stroke="#263238" stroke-linecap="round" stroke-linejoin="round" stroke-width="1"/>
      <path id="Path_44019" data-name="Path 44019" d="M98.21,382.666l1.776-13.485,4.285-3.233c6.945-16.849,38.407-48.321,46.987-48.218,12.884.15,15.158,13.673,16.746,28.474s-18.485,12.574-18.485,12.574v3.712L138.1,368.4l6.916-.216S125.124,387.524,98.21,382.666Z" transform="translate(-98.013 -279.26)" fill="#fff" stroke="#263238" stroke-linecap="round" stroke-linejoin="round" stroke-width="1"/>
      <path id="Path_44020" data-name="Path 44020" d="M157.495,289.377c2.7-8.458,15.036-10.713,19.471-9.332a15.778,15.778,0,0,1,8.373,7.64c1.128,2.434-1.231,6.738.451,9.247,2.406,3.6,2.2,11.192,1.334,15.976-.47,2.537-11.023,4.041-19.65-1.88C158.209,304.62,154.882,297.515,157.495,289.377Z" transform="translate(-101.534 -276.966)" fill="#fff" stroke="#263238" stroke-linecap="round" stroke-linejoin="round" stroke-width="1"/>
      <path id="Path_44021" data-name="Path 44021" d="M169.506,277.345s10.863-1.767,10.939,1.024c.479,18.541-10.638,22.431-10.638,22.431s-4.539-3.618-5.554-1.137,1.6,9.341,4.811,9.482a7.349,7.349,0,0,0-.132,7.743s-18.4,3.073-19.922-5.45a67.1,67.1,0,0,0,1.522-9C151.726,290.492,148.935,282.457,169.506,277.345Z" transform="translate(-101.074 -276.793)" fill="#263238"/>
      <path id="Path_44022" data-name="Path 44022" d="M186.26,297.49c2.265,2.039,3.891,2.039,3.862,2.772-.085,2.284-2.819,3.421-2.819,3.421" transform="translate(-103.319 -278.04)" fill="#fff" stroke="#263238" stroke-linecap="round" stroke-linejoin="round" stroke-width="1"/>
      <path id="Path_44023" data-name="Path 44023" d="M186.992,308.13a8.335,8.335,0,0,1-4.952.122" transform="translate(-103.065 -278.682)" fill="none" stroke="#263238" stroke-linecap="round" stroke-linejoin="round" stroke-width="1"/>
      <path id="Path_44024" data-name="Path 44024" d="M180.788,285.024s7.227-2.1,5.9,9.632c0,0,3.007-4.088,3-8.683,0-7.96-10.647-6.362-10.647-6.362l1.391,5.638" transform="translate(-102.884 -276.955)" fill="#263238"/>
      <path id="Path_44025" data-name="Path 44025" d="M187.769,291.464a2.434,2.434,0,0,0-1.879-.348" transform="translate(-103.297 -277.653)" fill="none" stroke="#263238" stroke-linecap="round" stroke-linejoin="round" stroke-width="1"/>
      <path id="Path_44026" data-name="Path 44026" d="M182.353,291.35s-3.881.226-5.563,2.819" transform="translate(-102.748 -277.67)" fill="none" stroke="#263238" stroke-linecap="round" stroke-linejoin="round" stroke-width="1"/>
      <path id="Path_44027" data-name="Path 44027" d="M181.63,297.852c.056.62-.207,1.156-.592,1.193s-.742-.442-.808-1.062.207-1.156.592-1.193S181.573,297.232,181.63,297.852Z" transform="translate(-102.955 -277.998)" fill="#263238"/>
      <path id="Path_44028" data-name="Path 44028" d="M133.81,414.68s8.646.94,10.525,4.7" transform="translate(-100.158 -285.103)" fill="none" stroke="#263238" stroke-linecap="round" stroke-linejoin="round" stroke-width="1"/>
      <path id="Path_44029" data-name="Path 44029" d="M157.1,324.351a16.06,16.06,0,0,1,11.888-1.485c6.879,1.739,24.715,27.252,27.2,29.743s7.123,3.759,11.4,8.26c6.766,7.057,16.605,13.3,17.6,13.3s1.795-.62,3.035-.865,10.845-1.118,10.845-1.118,3.223.724,0,2.1-2.979,2.622-2.979,2.622-.639,1.034.648,2.03,2.058.451,3.909,3.073-2.612,1.137-2.612,1.137.987,2.819-1,2.537-.244,2.753-3.468,2.34-10.121-4.764-11.85-9.322c0,0-28.136-13.448-32.346-16.915s-21.915-22.065-23.164-22.309" transform="translate(-101.562 -279.538)" fill="#fff" stroke="#263238" stroke-linecap="round" stroke-linejoin="round" stroke-width="1"/>
      <path id="Path_44030" data-name="Path 44030" d="M152.8,321.453s13.87-3.712,18.71-.987,14.011,15.365,14.011,15.365-11.183,10.008-14.641,9.1-14.04-2.406-14.04-2.406" transform="translate(-101.303 -279.365)" fill="#fff" stroke="#263238" stroke-linecap="round" stroke-linejoin="round" stroke-width="1"/>
      <path id="Path_44031" data-name="Path 44031" d="M165.159,345.3s-5.028,2.763-6.879,2.763" transform="translate(-101.633 -280.922)" fill="none" stroke="#263238" stroke-linecap="round" stroke-linejoin="round" stroke-width="1"/>
      <path id="Path_44032" data-name="Path 44032" d="M157.1,330.55c.423.742.282,8.871,9.106,11.4" transform="translate(-101.562 -280.033)" fill="none" stroke="#263238" stroke-linecap="round" stroke-linejoin="round" stroke-width="1"/>
      <path id="Path_44033" data-name="Path 44033" d="M106.91,369.161s18.795,3.223,25.279-2.481" transform="translate(-98.537 -282.21)" fill="none" stroke="#263238" stroke-linecap="round" stroke-linejoin="round" stroke-width="1"/>
      <path id="Path_44034" data-name="Path 44034" d="M139.523,371.641s-4.7-.827-6.428,1.588-11.145,4.7-11.145,4.7" transform="translate(-99.443 -282.501)" fill="none" stroke="#263238" stroke-linecap="round" stroke-linejoin="round" stroke-width="1"/>
      <path id="Path_44035" data-name="Path 44035" d="M100.432,390.74s-2.716,11.709,8.871,16.915" transform="translate(-98.13 -283.66)" fill="none" stroke="#263238" stroke-linecap="round" stroke-linejoin="round" stroke-width="1"/>
      <path id="Path_44036" data-name="Path 44036" d="M106.91,391.494s.066,5.77,1.879,8.927l5.761,1.879,6.447-3.59s-1.372-7.377-1.494-8.871" transform="translate(-98.537 -283.606)" fill="none" stroke="#263238" stroke-linecap="round" stroke-linejoin="round" stroke-width="1"/>
    </g>
  </g>
</svg>
