<svg xmlns="http://www.w3.org/2000/svg" width="686.549" height="658.5" viewBox="0 0 686.549 658.5">
  <g id="Thinking_face-bro" data-name="Thinking face-bro" transform="translate(-39.42 -44.518)">
    <g id="freepik--background-simple--inject-2" transform="translate(39.42 44.518)">
      <path id="Path_43700" data-name="Path 43700" d="M74.374,301.539S10.167,398.493,55.794,544.725s178.566,183.537,257.4,142.929,90.331-93.46,154.046-131.812,195.1-37,245.695-142.516-54.329-253.4-173.1-338.567S162.863,90.322,74.374,301.539Z" transform="translate(-39.42 -44.518)"/>
      <path id="Path_43701" data-name="Path 43701" d="M74.374,301.539S10.167,398.493,55.794,544.725s178.566,183.537,257.4,142.929,90.331-93.46,154.046-131.812,195.1-37,245.695-142.516-54.329-253.4-173.1-338.567S162.863,90.322,74.374,301.539Z" transform="translate(-39.42 -44.518)" fill="#fff" opacity="0.7"/>
    </g>
    <g id="freepik--Plant--inject-2" transform="translate(471.046 447.445)">
      <path id="Path_43702" data-name="Path 43702" d="M323.233,346.776c5.685,2.477,19.549,2.16,19.565,2.16s-2.986-9.084-3.256-9.64c-3.033-6.352-12.7-16.882-20.486-15.881a9.354,9.354,0,0,0-7.512,11.72C312.847,340.63,318.405,344.663,323.233,346.776Z" transform="translate(-311.208 -283.464)" fill="#263238"/>
      <path id="Path_43703" data-name="Path 43703" d="M327.663,401.724c5.876.858,18.263-2.732,19.248-3.017a165.866,165.866,0,0,0,7.512,20.772c1.7,3.939,3.541,7.861,5.431,11.768-1.128-1.588-2.16-3.176-2.319-3.319-4.621-5.336-16.675-12.943-23.949-9.846a9.354,9.354,0,0,0-4.145,13.292c2.684,4.891,9.116,7.305,14.293,8.068s15.881-2.08,18.708-2.874c.731,1.493,1.461,2.986,2.207,4.478,3.589,7.131,7.194,14.293,10.513,21.328,1.175,2.493,2.239,4.987,3.319,7.48-1-1.461-1.858-2.684-2.017-2.859-4.621-5.336-16.675-12.943-23.949-9.846a9.338,9.338,0,0,0-4.145,13.276c2.684,4.891,9.116,7.321,14.293,8.068s14.865-1.795,18.2-2.732c1.016,2.6,2.049,5.193,2.922,7.75.556,1.763,1.223,3.414,1.683,5.209s.985,3.526,1.461,5.257c.81,3.383,1.667,6.861,2.382,10.164.508,2.3.953,4.51,1.4,6.734-1.128-2.493-3.462-7.337-3.716-7.718-3.748-5.987-14.515-15.325-22.233-13.372a9.354,9.354,0,0,0-6.114,12.514c1.922,5.241,7.941,8.608,12.943,10.148,5.558,1.683,17.834.143,19.375,0,.731,3.669,1.413,7.258,2,10.64.318,1.794.6,3.478.873,5.161h4.891c-.365-1.937-.746-3.938-1.159-6.019-.731-3.732-1.588-7.7-2.509-11.784a100.391,100.391,0,0,0,10.815-5.082c4.05,4.383,14.4,9.529,15.754,10.164-1.413,3.462-2.827,6.829-4.193,9.973-.413.953-.826,1.842-1.223,2.747h5.145l.381-.921c1.461-3.51,2.922-7.305,4.415-11.212,1.477.318,13.642,2.8,19.311,1.509,5.145-1.159,11.371-4.066,13.673-9.148a9.354,9.354,0,0,0-5.161-12.927c-7.5-2.525-18.93,5.987-23.123,11.673-.238.333-2.525,4.256-3.907,6.765.588-1.588,1.191-3.176,1.779-4.764,1.191-3.176,2.287-6.543,3.494-10.069.508-1.731,1.032-3.478,1.588-5.241s.937-3.637,1.413-5.463c1.016-4.288,1.842-8.671,2.573-13.1,2.859,1.032,13.054,4.59,18.327,4.208s11.863-2.3,14.912-6.972a9.37,9.37,0,0,0-3.176-13.562c-7.035-3.621-19.629,3.049-24.632,8.036-.3.3-3.494,4.288-5.209,6.5.429-2.668.858-5.32,1.191-8.036.969-7.845,1.715-15.8,2.493-23.742.238-2.43.492-4.86.746-7.273,1.016.381,13.054,4.86,18.962,4.447,5.257-.381,11.863-2.3,14.9-6.988a9.354,9.354,0,0,0-3.176-13.562c-7.019-3.621-19.613,3.065-24.616,8.036-.381.381-4.955,6.114-6.051,7.623.572-5.336,1.175-10.656,2-15.881a163.2,163.2,0,0,1,4.558-20.884c.461.191,12.991,4.907,19.057,4.494,5.257-.381,11.847-2.3,14.9-6.988a9.354,9.354,0,0,0-3.176-13.562c-7.019-3.621-19.613,3.065-24.615,8.036-.4.4-5.32,6.559-6.13,7.75.111-.4.191-.826.318-1.223a120.694,120.694,0,0,1,8.274-19.756c1.795-3.51,3.7-6.765,5.638-9.91,2.255,1.128,12.562,6.13,18.057,6.352s12.038-.985,15.579-5.288a9.37,9.37,0,0,0-1.588-13.832c-6.591-4.367-19.835.889-25.41,5.288-.3.238-3.081,3-5.066,5.05.889-1.4,1.779-2.859,2.668-4.193,3.3-4.971,6.638-9.322,9.624-13.165,1.715-2.16,3.3-4.081,4.764-5.876,2.779,0,13.959-.381,18.851-2.684s10.227-6.352,11.387-11.879a9.37,9.37,0,0,0-7.829-11.514c-7.845-.842-17.183,9.926-20.058,16.373-.254.556-3.176,9.719-2.986,9.719h.175c-1.493,1.683-3.065,3.51-4.764,5.542-3.081,3.78-6.511,8.068-9.942,12.991a168.724,168.724,0,0,0-10.307,16.421,122.015,122.015,0,0,0-8.8,19.82c0,.079,0,.175,0,.254,0-2.319,0-8.8-.127-9.29-.905-7-6.765-19.994-14.547-21.423a9.354,9.354,0,0,0-10.783,8.8c-.445,5.558,3.573,11.117,7.512,14.642,4.431,3.954,16.739,7.782,17.723,8.083a167.491,167.491,0,0,0-5.209,21.471c-.746,4.24-1.382,8.512-1.953,12.816a35.448,35.448,0,0,0-.1-4.034c-.921-7-6.781-19.994-14.547-21.439a9.354,9.354,0,0,0-10.8,8.8c-.445,5.558,3.589,11.117,7.512,14.642s14.42,7.051,17.183,7.94c-.191,1.588-.413,3.3-.619,4.955-.953,7.941-1.858,15.881-2.986,23.6-.4,2.716-.889,5.4-1.382,8.068a26.79,26.79,0,0,0-.1-3.51c-.905-6.988-6.765-19.978-14.531-21.423a9.354,9.354,0,0,0-10.8,8.8c-.445,5.558,3.573,11.117,7.512,14.642s13.4,6.7,16.691,7.766c-.572,2.716-1.143,5.447-1.826,8.068-.508,1.779-.873,3.51-1.477,5.272s-1.128,3.478-1.683,5.193c-1.191,3.272-2.4,6.638-3.637,9.8-.842,2.192-1.683,4.272-2.525,6.352.429-2.7,1.143-8.036,1.159-8.48a36.193,36.193,0,0,0-4.875-17.66,10.185,10.185,0,0,0-.127-2.08,9.338,9.338,0,0,0-11.434-7.94c-7.639,2.033-12.483,15.436-12.848,22.487,0,.413.254,4.955.476,7.813-.381-1.667-.746-3.287-1.159-4.987-.794-3.383-1.7-6.734-2.652-10.339-.524-1.715-1.048-3.462-1.588-5.225s-1.239-3.541-1.858-5.336c-1.509-4.129-3.176-8.242-5.066-12.355,2.954-.7,13.419-3.367,17.612-6.591s8.623-8.465,8.576-14.039a9.338,9.338,0,0,0-10.1-9.529c-7.861.858-14.674,13.372-16.1,20.28-.079.429-.556,5.511-.762,8.306-1.112-2.462-2.223-4.923-3.446-7.369-3.51-7.083-7.274-14.118-11.021-21.169-1.143-2.16-2.255-4.336-3.383-6.5,1.064-.238,13.562-3.176,18.263-6.749,4.193-3.176,8.623-8.465,8.576-14.039a9.338,9.338,0,0,0-10.1-9.529c-7.845.858-14.674,13.372-16.1,20.28-.1.524-.762,7.829-.842,9.687-2.477-4.764-4.891-9.529-7.083-14.293a161.406,161.406,0,0,1-7.718-19.931c.492-.111,13.546-3.081,18.374-6.765,4.177-3.176,8.623-8.465,8.576-14.039a9.354,9.354,0,0,0-10.1-9.529c-7.861.842-14.674,13.372-16.1,20.28-.111.54-.81,8.4-.842,9.83-.127-.4-.286-.794-.413-1.191a121.582,121.582,0,0,1-4-21.026c-.429-3.923-.635-7.7-.746-11.387,2.493-.3,13.848-1.81,18.549-4.669s9.529-7.448,10.069-13.007a9.338,9.338,0,0,0-8.989-10.624c-7.941,0-16.056,11.673-18.231,18.39-.111.365-.905,4.208-1.445,7.019,0-1.668-.079-3.383-.079-4.971,0-5.971.4-11.45.762-16.294.238-2.747.508-5.241.778-7.559,2.287-1.588,11.434-7.94,14.293-12.625s4.987-11.005,2.938-16.2a9.354,9.354,0,0,0-12.879-5.288c-7.019,3.637-8.862,17.771-7.7,24.727.1.6,2.747,9.83,2.874,9.751l.127-.1c-.3,2.223-.6,4.621-.889,7.242-.476,4.844-.985,10.323-1.112,16.326a165.172,165.172,0,0,0,.461,19.375,121.115,121.115,0,0,0,3.589,21.392,2.249,2.249,0,0,0,.079.254c-1.255-1.953-4.907-7.305-5.241-7.686-4.605-5.336-16.675-12.927-23.949-9.846a9.354,9.354,0,0,0-4.145,13.292C316.022,398.548,322.454,400.962,327.663,401.724Z" transform="translate(-310.842 -298.234)" fill="#263238"/>
      <path id="Path_43704" data-name="Path 43704" d="M414.231,353.016c.127.079,2.525-9.227,2.6-9.83.985-6.988-1.255-21.074-8.369-24.5a9.354,9.354,0,0,0-12.7,5.638c-1.906,5.241.508,11.673,3.367,16.1C402.479,345.647,414.231,353.016,414.231,353.016Z" transform="translate(-261.881 -286.687)" fill="#263238"/>
    </g>
    <g id="freepik--Picture--inject-2" transform="translate(74.168 134.217)">
      <path id="Path_43705" data-name="Path 43705" d="M271.755,373.613H61.3V101H271.755ZM62.888,372.025H270.167V102.588H62.888Z" transform="translate(-61.3 -101)" fill="#263238"/>
      <path id="Path_43706" data-name="Path 43706" d="M263.64,363.092H65V105.82H263.64ZM66.715,361.5H262.051v-254.1H66.588Z" transform="translate(-59.124 -98.165)" fill="#263238"/>
      <path id="Path_43707" data-name="Path 43707" d="M195.974,275.243H96.13V146.21h99.844ZM97.75,273.655h96.636V147.8H97.718Z" transform="translate(-40.816 -74.412)" fill="#263238"/>
    </g>
    <g id="freepik--Symbol--inject-2" transform="translate(475.109 87.876)">
      <path id="Path_43708" data-name="Path 43708" d="M350.315,275.383l-34.287-4.844,4.764-34.049,34.3,4.764Zm-32.493-6.194,31.143,4.4,4.367-30.9-31.159-4.4Zm37.956-44.848-31.365-4.431,4.542-32.175.3-.191a188.6,188.6,0,0,0,23.631-17.136,92.267,92.267,0,0,0,17.93-20.312,59.713,59.713,0,0,0,8.925-24c.937-6.622.175-12.038-2.271-16.135s-6.479-6.464-12.054-7.258a16.405,16.405,0,0,0-12.371,2.509,15.341,15.341,0,0,0-5.892,10.815A25.3,25.3,0,0,0,347,122.29c.207,2.049.477,4.256.81,6.559l.111.842-32.763,2.43-.127-.683a63.519,63.519,0,0,1-1.223-10.132,56.19,56.19,0,0,1,.508-9.91c1.953-13.832,7.845-24.425,17.469-31.492s22.551-9.529,38.321-7.273c16.1,2.271,28.141,8.5,35.812,18.485s10.418,23.234,8.147,39.337a76.135,76.135,0,0,1-9.656,28.332,92.111,92.111,0,0,1-19.152,22.678,179.455,179.455,0,0,1-26.092,18.6Zm-29.57-5.781,28.221,3.986,3.319-23.536.333-.191a177.539,177.539,0,0,0,26.172-18.628,90.889,90.889,0,0,0,18.819-22.329,74.341,74.341,0,0,0,9.529-27.712c2.207-15.659-.429-28.491-7.829-38.114s-19.057-15.659-34.779-17.882c-15.341-2.16-27.855.191-37.162,6.988s-15.055,17.009-16.945,30.4a54.48,54.48,0,0,0-.492,9.624,62.526,62.526,0,0,0,1.048,9.2l29.666-2.207c-.27-2.017-.508-3.954-.7-5.781a26.841,26.841,0,0,1,.175-6.638,16.85,16.85,0,0,1,6.527-11.863,17.9,17.9,0,0,1,13.531-2.811c6.082.858,10.513,3.557,13.181,7.941s3.478,10.18,2.493,17.167a61.172,61.172,0,0,1-9.163,24.695,93.857,93.857,0,0,1-18.231,20.645,192.509,192.509,0,0,1-23.5,17.088Z" transform="translate(-313.766 -71.82)" fill="#263238"/>
    </g>
    <g id="freepik--Character--inject-2" transform="translate(185.077 132.166)">
      <path id="Path_43709" data-name="Path 43709" d="M256.963,250.413s-101.94,1.35-105.116,8.607-17.676,95.159-18.581,125.46-1.35,50.3,1.81,53.916,52.566,32.175,52.566,32.175-23.107,81.1-15.881,83.836,51.661,14.039,80.2,14.5,56.648.445,58.919.445,75.212,2.716,100.59-3.176,33.064-6.352,33.064-16.31-6.352-22.233-6.8-24.457,17.231-174.008,7.258-216.14-23.107-58.458-33.08-61.174-81.1-.905-81.1-.905Z" transform="translate(-130.277 -13.323)"/>
      <path id="Path_43710" data-name="Path 43710" d="M350.271,571.1c-11.117,0-23.52-.175-36.892-.556h-2.207c-5.082,0-31.762,0-58.919-.445-29.015-.461-73.418-11.911-80.469-14.563-1.588-.572-5.193-1.937,4.764-43.847,4.351-18.454,9.529-36.828,10.481-40.338-5.638-3.256-49.152-28.506-52.217-32.032-3.351-3.827-2.97-22.233-2.017-54.456.921-30.7,15.659-118.965,18.644-125.809,3.176-7.353,88.7-8.862,105.831-9.084l73.847-3.176c2.922-.079,71.465-1.779,81.343.937,6.13,1.588,21.646,11.021,33.652,61.745,8.211,34.716-2.112,155.221-6,200.577-.746,8.719-1.286,15.023-1.239,15.643a33.955,33.955,0,0,0,1.239,3.256c1.938,4.764,5.558,13.721,5.558,21.312,0,9.529-6.464,10.926-25.68,15.262l-7.94,1.826C401.091,569.859,379.667,571.1,350.271,571.1Zm25.965-323.369c-21.582,0-44.7.572-45.118.588l-73.847,3.176h0c-39.226.524-102.242,3.176-104.4,8.131-2.97,6.781-17.6,94.635-18.517,125.222-.794,26.728-1.493,49.819,1.588,53.376,2.525,2.89,38.654,24.076,52.407,32a.794.794,0,0,1,.365.905c-11.291,39.528-20.486,81.263-16.373,82.851,7,2.62,51.105,13.991,79.929,14.452,27.172.429,53.821.445,58.9.445h2.255c48.453,1.366,83.312.238,98.145-3.176,2.906-.683,5.574-1.271,8.02-1.826,18.771-4.24,24.441-5.527,24.441-13.721,0-7.273-3.541-16.024-5.447-20.725a30.971,30.971,0,0,1-1.334-3.589c-.079-.461.143-3.256,1.239-16.04,3.875-45.293,14.182-165.591,6.019-200.1-11.8-49.9-26.664-58.982-32.508-60.586C407.824,248.062,392.467,247.728,376.237,247.728Zm-119,2.922Z" transform="translate(-130.554 -13.561)" fill="#263238"/>
      <path id="Path_43711" data-name="Path 43711" d="M238.725,278.4a.778.778,0,0,1-.731-.476.794.794,0,0,1,.413-1.048,94.354,94.354,0,0,0,10.513-5.288.8.8,0,0,1,.794,1.382,96.042,96.042,0,0,1-10.688,5.368A.683.683,0,0,1,238.725,278.4Z" transform="translate(-68.335 1.312)" fill="#263238"/>
      <path id="Path_43712" data-name="Path 43712" d="M248.414,282.8a.826.826,0,0,1-.667-.349.794.794,0,0,1,.238-1.1,132.178,132.178,0,0,0,32.762-31.1.794.794,0,0,1,1.112-.191.778.778,0,0,1,.191,1.1,134.145,134.145,0,0,1-33.191,31.508A.763.763,0,0,1,248.414,282.8Z" transform="translate(-62.634 -11.371)" fill="#263238"/>
      <path id="Path_43713" data-name="Path 43713" d="M254.3,280.545a.81.81,0,0,1-.7-.413.794.794,0,0,1,.318-1.08c7.941-4.256,17.231-17.231,17.326-17.358a.794.794,0,1,1,1.286.921c-.381.54-9.529,13.4-17.866,17.834a.731.731,0,0,1-.365.1Z" transform="translate(-59.178 -4.674)" fill="#263238"/>
      <path id="Path_43714" data-name="Path 43714" d="M225.57,357.421a.794.794,0,0,1-.746-.556l-2.668-8.29a.778.778,0,0,1,.508-1,.794.794,0,0,1,1,.508l2.668,8.29a.794.794,0,0,1-.508,1,.716.716,0,0,1-.254.048Z" transform="translate(-77.635 46.038)" fill="#263238"/>
      <path id="Path_43715" data-name="Path 43715" d="M238.116,396.384a.778.778,0,0,1-.746-.556l-11.815-36.669a.831.831,0,0,1,1.588-.492l11.815,36.685a.81.81,0,0,1-.508,1Z" transform="translate(-75.634 52.24)" fill="#263238"/>
      <path id="Path_43716" data-name="Path 43716" d="M236.038,390.239a.683.683,0,0,1-.429-.127.794.794,0,0,1-.254-1.1l11.784-18.565a.778.778,0,0,1,1.1-.254.81.81,0,0,1,.254,1.1L236.7,389.874a.81.81,0,0,1-.667.365Z" transform="translate(-69.919 59.291)" fill="#263238"/>
      <path id="Path_43717" data-name="Path 43717" d="M252.868,388.422a.778.778,0,0,1-.588-1.318l28.586-32.175a.8.8,0,0,1,1.191,1.064l-28.586,32.175a.778.778,0,0,1-.6.254Z" transform="translate(-60.022 50.23)" fill="#263238"/>
      <path id="Path_43718" data-name="Path 43718" d="M267.941,457.607h-.222l-61.507-17.93a.794.794,0,0,1-.54-.985.778.778,0,0,1,.985-.54l61.491,17.9a.8.8,0,1,1-.222,1.588Z" transform="translate(-87.323 99.31)" fill="#263238"/>
      <path id="Path_43719" data-name="Path 43719" d="M205.79,439.52h-.222l-10.545-3.081a.825.825,0,0,1,.445-1.588l10.545,3.081a.813.813,0,0,1-.222,1.588Z" transform="translate(-93.921 97.371)" fill="#263238"/>
      <path id="Path_43720" data-name="Path 43720" d="M238.882,134.988s-32-7.353-38.114.873,6.067,16.008,4.335,17.739-38.94,20.756-35.923,39.369,28.125,37.638,29,42.879-29,6.924-32.89,14.706-9.529,44.562,22.932,56.679,73.053-8.226,84.36-8.226,22.5,22.075,35.478,20.772A31.476,31.476,0,0,0,328.4,308.964s13.4,18.613,32.874,10.815,41.973-35.049,32.461-43.26-20.344-10.815-13.419-18.168,21.2-26.823,19.057-43.7-22.075-18.168-29.856-23.361,8.655-13.848,8.226-28.125-10.831-38.114-63.6-54-78.738-8.226-81.342,5.193a22.233,22.233,0,0,0,6.082,20.629Z" transform="translate(-112.831 -99.38)" fill="#263238"/>
      <path id="Path_43721" data-name="Path 43721" d="M352.153,322.744c-12.371,0-21.106-9.417-23.44-12.244a32.127,32.127,0,0,1-20.248,10.418c-7.226.731-13.769-5.288-20.074-11.117-5.4-4.987-10.513-9.687-15.484-9.687-3.033,0-8.48,1.588-15.373,3.621-18.184,5.32-45.674,13.356-69.257,4.558C177,304.083,169.22,296.6,165.027,286.058c-5.558-14.166-2.827-30.174-.127-35.542,2.223-4.431,11.688-6.908,20.042-9.084,5.828-1.588,13.07-3.414,12.7-5.145s-3.589-5.161-7.448-9.322c-7.766-8.4-19.518-21.09-21.535-33.509-2.652-16.278,23.424-32.223,33.255-38.226a27.333,27.333,0,0,0,2.874-1.842,19.136,19.136,0,0,0-1.747-2.477c-2.636-3.43-7.051-9.2-2.652-15.166,5.336-7.242,28.586-3.176,36.4-1.7a23.281,23.281,0,0,1-4.463-19.581,14.738,14.738,0,0,1,7.4-9.656c13.229-7.941,40.56-6.575,74.942,3.859,54.885,16.643,63.762,41.481,64.175,54.821.207,7.178-3.637,12.911-6.733,17.469-2.112,3.176-3.923,5.844-3.542,7.8a3.478,3.478,0,0,0,1.7,2.16,43.289,43.289,0,0,0,8.369,3.716c9,3.335,20.2,7.5,21.82,20.216,2.128,16.6-11.117,35.685-19.248,44.34a5.4,5.4,0,0,0-1.953,4.066c.254,2.319,3.383,4.431,7.353,7.083a82.471,82.471,0,0,1,7.941,5.876,8.369,8.369,0,0,1,2.35,8.115c-2,11.943-19.677,30.349-35.018,36.526a26.267,26.267,0,0,1-9.735,1.89Zm-23.424-14.293h0a.762.762,0,0,1,.619.334c.143.175,13.292,18.009,31.953,10.545,14.928-5.971,32.111-23.822,34.033-35.272.492-2.954-.111-5.193-1.81-6.654a80.8,80.8,0,0,0-7.8-5.717c-4.3-2.89-7.7-5.177-8.052-8.211a6.924,6.924,0,0,1,2.4-5.352c7.4-7.941,20.883-27,18.819-43.053-1.509-11.752-12.212-15.722-20.8-18.914a45.056,45.056,0,0,1-8.7-3.875,5.05,5.05,0,0,1-2.366-3.176c-.508-2.589,1.382-5.415,3.78-8.989,2.97-4.415,6.654-9.91,6.464-16.58-.4-12.911-9.1-36.987-63.048-53.344-33.954-10.307-60.808-11.768-73.656-4.018a13.2,13.2,0,0,0-6.67,8.592,21.614,21.614,0,0,0,5.8,20.01.826.826,0,0,1,.191.969.794.794,0,0,1-.889.413c-8.766-2.017-32.54-5.828-37.257.556-3.684,5.018,0,9.783,2.636,13.276,1.588,2.017,2.684,3.494,1.588,4.558a25.632,25.632,0,0,1-3.176,2.08c-8.655,5.288-34.938,21.376-32.508,36.606,1.938,11.943,13.483,24.425,21.138,32.683,4.526,4.891,7.512,8.115,7.845,10.148.524,3.176-5.542,4.764-13.928,6.94-7.639,1.985-17.136,4.463-19.057,8.258-2.509,5.018-5.145,20.725.175,34.239a36.526,36.526,0,0,0,22.329,21.328c23.091,8.623,50.263.667,68.288-4.59,7.019-2.049,12.546-3.684,15.881-3.684,5.59,0,10.926,4.907,16.564,10.1,6.051,5.574,12.308,11.323,18.835,10.672a30.857,30.857,0,0,0,19.788-10.513A.81.81,0,0,1,328.729,308.451Z" transform="translate(-113.109 -99.709)" fill="#263238"/>
      <path id="Path_43722" data-name="Path 43722" d="M218.306,209.7s-10.815,67.494-11.244,69.654,19.057,21.63,45.42,18.168a62.412,62.412,0,0,0,39.8-21.185l-8.21-67.065s-22.5,10.815-36.352,10.386S218.306,209.7,218.306,209.7Z" transform="translate(-86.49 -35.276)" fill="#fff"/>
      <path id="Path_43723" data-name="Path 43723" d="M246.554,299.055a55.028,55.028,0,0,1-37.781-15.881c-2.43-2.589-2.255-3.414-2.192-3.732.413-2.112,11.117-68.939,11.228-69.622a.81.81,0,0,1,1.207-.556c.159.1,15.563,9.417,29.03,9.846s35.748-10.2,35.97-10.307a.794.794,0,0,1,.731,0,.81.81,0,0,1,.4.6l8.226,67.05a.794.794,0,0,1-.159.588,63.858,63.858,0,0,1-40.322,21.5,48.221,48.221,0,0,1-6.337.508ZM219.206,211.3c-1.477,9.2-10.672,66.525-11.117,68.542.334,1.969,18.787,20.645,44.467,17.231a62.619,62.619,0,0,0,39.067-20.645l-7.909-65.668c-4.574,2.112-23.329,10.386-35.716,10.005-12.022-.365-25.092-7.337-28.792-9.465Z" transform="translate(-86.787 -35.603)" fill="#263238"/>
      <path id="Path_43724" data-name="Path 43724" d="M211.34,245.749l45.563-8.814L215.787,209.54Z" transform="translate(-83.971 -35.117)" fill="#263238"/>
      <path id="Path_43725" data-name="Path 43725" d="M211.63,246.843a.874.874,0,0,1-.54-.206.826.826,0,0,1-.238-.683l4.431-36.209a.778.778,0,0,1,.461-.619.842.842,0,0,1,.778,0l41.1,27.411a.778.778,0,0,1,.349.81.794.794,0,0,1-.635.619l-45.547,8.814Zm5.082-35.621-4.161,33.842,42.577-8.242Z" transform="translate(-84.261 -35.417)" fill="#263238"/>
      <path id="Path_43726" data-name="Path 43726" d="M203.31,173.413s-7.623-9.656-11.117,2.541,11.688,27,11.688,27Z" transform="translate(-95.538 -58.496)" fill="#fff"/>
      <path id="Path_43727" data-name="Path 43727" d="M204.126,203.968a.826.826,0,0,1-.508-.206c-.635-.619-15.547-15.214-11.895-27.728,1.159-3.97,2.906-6.209,5.193-6.654,3.716-.715,7.226,3.653,7.369,3.843a.762.762,0,0,1,.175.476l.508,29.475a.826.826,0,0,1-.476.746,1.255,1.255,0,0,1-.365.048Zm-6.352-33.1a2.973,2.973,0,0,0-.54,0c-1.588.318-3,2.239-3.97,5.543-2.747,9.433,6.479,20.741,10.1,24.695l-.476-27.172c-.969-1.016-3.16-3.065-5.177-3.065Z" transform="translate(-95.846 -58.782)" fill="#263238"/>
      <path id="Path_43728" data-name="Path 43728" d="M267.982,173.413s7.623-9.656,11.117,2.541-11.688,27-11.688,27Z" transform="translate(-50.996 -58.496)" fill="#fff"/>
      <path id="Path_43729" data-name="Path 43729" d="M267.744,203.952a1.032,1.032,0,0,1-.318,0,.778.778,0,0,1-.476-.746l.508-29.475a.858.858,0,0,1,.159-.476c.159-.191,3.684-4.574,7.369-3.843,2.3.445,4.05,2.684,5.209,6.654,3.637,12.514-11.275,27.109-11.911,27.728a.778.778,0,0,1-.54.159Zm1.286-29.983-.413,27.172c3.6-3.954,12.848-15.262,10.1-24.695-.969-3.3-2.35-5.225-3.986-5.542C272.54,170.49,270.031,172.809,269.031,173.968Z" transform="translate(-51.267 -58.765)" fill="#263238"/>
      <path id="Path_43730" data-name="Path 43730" d="M224,138.478s-21.821,21.2-24.981,27.554-1.89,78.738,1.588,85.757,38.257,34.16,43.943,36.368,18.66,4.431,28.776-.635,34.462-30.984,37-37.622-.635-82.581-2.223-89.807-39.766-33.318-55.965-34.573S224,138.478,224,138.478Z" transform="translate(-92.28 -84.576)" fill="#fff"/>
      <path id="Path_43731" data-name="Path 43731" d="M259.122,291.565a42.878,42.878,0,0,1-14.595-2.477c-6.114-2.382-40.846-29.713-44.372-36.749s-4.891-79.8-1.588-86.409c3.176-6.352,23.822-26.505,25.108-27.7.794-.937,12.7-14.483,28.792-13.213,15.706,1.239,54.9,26.871,56.679,35.081,1.477,6.829,4.764,83.455,2.176,90.268-2.716,7.146-27.363,33.048-37.384,38.114a33.35,33.35,0,0,1-14.817,3.081ZM250.387,126.53c-14.547,0-25.41,12.625-25.521,12.7h0c-.222.206-21.757,21.169-24.822,27.3s-1.715,78.389,1.588,84.979,37.733,33.715,43.53,35.97c6.1,2.366,18.613,4.161,28.141-.6,10.211-5.1,34.271-31.063,36.606-37.193,2.557-6.7-.778-82.581-2.255-89.346s-39.321-32.493-55.266-33.715c-.651,0-1.3-.1-1.953-.1Zm-26.124,12.244Z" transform="translate(-92.59 -84.872)" fill="#263238"/>
      <path id="Path_43732" data-name="Path 43732" d="M225.3,130.743s32.683,29.825,56.187,30.968l23.52,1.143s-51.613-6.876-67.669-41.846C237.34,121.008,219.569,106.144,225.3,130.743Z" transform="translate(-76.43 -89.8)" fill="#263238"/>
      <path id="Path_43733" data-name="Path 43733" d="M305.287,163.951h0l-23.5-1.143c-23.52-1.143-55.345-29.936-56.7-31.174a.842.842,0,0,1-.238-.4c-1.89-8.131-1.477-12.9,1.271-14.579,4.066-2.493,11.26,3.367,12.054,4.034a.778.778,0,0,1,.222.286c15.69,34.176,66.525,41.291,67.034,41.4a.794.794,0,0,1,.7.858A.81.81,0,0,1,305.287,163.951ZM226.3,130.6c2.668,2.382,33.461,29.507,55.584,30.587l13.276.651c-15.881-4-46.388-14.753-58.109-40.068-2.065-1.7-7.512-5.368-10.084-3.8-1.461.889-2.684,3.78-.667,12.657Z" transform="translate(-76.708 -90.102)" fill="#263238"/>
      <path id="Path_43734" data-name="Path 43734" d="M239.23,195.746a.794.794,0,0,1-.794-.731l-2.525-31.937a.8.8,0,0,1,1.588-.127l2.525,31.937a.794.794,0,0,1-.731.858Z" transform="translate(-69.522 -62.947)" fill="#263238"/>
      <path id="Path_43735" data-name="Path 43735" d="M236.736,196.64c-4.415,0-8.639-4.764-8.814-5.018a.794.794,0,1,1,1.191-1.048s3.938,4.478,7.623,4.478c3.033,0,7.623-5.908,9.147-8.179a.778.778,0,0,1,1.1-.222.794.794,0,0,1,.222,1.1C246.6,188.652,241.151,196.64,236.736,196.64Z" transform="translate(-74.349 -48.658)" fill="#263238"/>
      <path id="Path_43736" data-name="Path 43736" d="M237.8,207.422c-.969,0-1.953,0-2.938-.1-9.783-.651-17.072-12.53-17.39-13.038a.8.8,0,1,1,1.366-.826c0,.127,7.178,11.673,16.135,12.276a66.492,66.492,0,0,0,19.327-2.192.825.825,0,0,1,.445,1.588,71.052,71.052,0,0,1-16.945,2.287Z" transform="translate(-80.432 -44.798)" fill="#263238"/>
      <path id="Path_43737" data-name="Path 43737" d="M239.659,165.326s11.117-8.226,15.484-11.117,18.66,2.525,18.66,2.525-10.751-6-16.437-6.956-17.39,7.273-18.343,11.117S235.26,163.738,239.659,165.326Z" transform="translate(-68.728 -70.307)" fill="#263238"/>
      <path id="Path_43738" data-name="Path 43738" d="M239.952,166.308a.81.81,0,0,1-.27,0c-2.1-.746-2.716-.969-2.906-1.588a1.477,1.477,0,0,1,.508-1.334,5.24,5.24,0,0,0,1.27-2.366c1.032-4.145,13.022-12.7,19.232-11.657,5.765.953,16.262,6.8,16.707,7.035a.81.81,0,0,1,.333,1.032.794.794,0,0,1-1,.413c-3.859-1.461-14.595-4.764-17.945-2.6-4.367,2.8-15.341,10.958-15.452,11.037A.905.905,0,0,1,239.952,166.308Zm-1.35-2.144,1.223.461c1.89-1.413,11.228-8.306,15.182-10.847,2.271-1.461,6.607-1.032,10.609-.159a36.938,36.938,0,0,0-8.083-2.827c-5.257-.858-16.6,7.115-17.469,10.482a6.511,6.511,0,0,1-1.461,2.954Z" transform="translate(-69.021 -70.559)" fill="#263238"/>
      <path id="Path_43739" data-name="Path 43739" d="M236.433,162.259a7.8,7.8,0,0,0-6.956-4.764c-5.368-.318-29.094,6.019-24.981,6.019s21.185-.318,25.616-.318a15.388,15.388,0,0,0,6.321-.937Z" transform="translate(-88.276 -65.732)" fill="#263238"/>
      <path id="Path_43740" data-name="Path 43740" d="M204.791,164.611a1.207,1.207,0,0,1-1.159-.508.905.905,0,0,1,0-.873c.969-1.588,21.757-6.5,26.156-6.225a8.528,8.528,0,0,1,7.655,5.272.81.81,0,0,1-.381.985,16.531,16.531,0,0,1-6.686,1.032c-2.255,0-7.782,0-13.213.159S206.808,164.611,204.791,164.611Zm24.52-6.019c-4,0-15.15,2.684-20.915,4.4l8.782-.127c5.431-.079,10.974-.159,13.229-.159a19.246,19.246,0,0,0,5.225-.6,7.019,7.019,0,0,0-5.939-3.51Z" transform="translate(-88.57 -66.019)" fill="#263238"/>
      <path id="Path_43741" data-name="Path 43741" d="M267.818,171.88a64.175,64.175,0,0,1-14.547,1.588c-6.352-.318-12.022-2.223-9.529.619s7.591,5.384,15.484,3.8S270.026,174.723,267.818,171.88Z" transform="translate(-65.268 -57.265)" fill="#263238"/>
      <path id="Path_43742" data-name="Path 43742" d="M231.776,171.88a64.176,64.176,0,0,1-14.547,1.588c-6.352-.318-12.006-2.223-9.529.619s7.591,5.384,15.5,3.8S233.936,174.723,231.776,171.88Z" transform="translate(-86.461 -57.265)" fill="#263238"/>
      <path id="Path_43743" data-name="Path 43743" d="M156.38,335.3s9.529-52.407,13.848-57.537,51.486-43.7,54.075-46.293,21.2-30.73,22.075-27.268-2.16,18.613-7.8,26.823-13.4,18.184-13.4,18.184,29.062,7.353,30.65,9.084,11.593,23.266,12.117,25.95c.921,4.637-.413,9.608-4.32,9.957-3.557.3-26.823-11.688-26.823-11.688l-18.549,2.541s-13.4,16.437-22.5,19.47a80.056,80.056,0,0,1-12.546,3.462L183.648,340Z" transform="translate(-116.293 -38.431)" fill="#fff"/>
      <path id="Path_43744" data-name="Path 43744" d="M183.94,341.141H183.8l-27.252-4.764a.793.793,0,0,1-.651-.921c.4-2.144,9.608-52.614,14.023-57.9,2.89-3.478,23.949-21.042,39.321-33.858,7.782-6.5,13.944-11.625,14.8-12.5s3.287-4.272,6.194-8.322c11.307-15.754,14.658-19.756,16.326-19.438a1.127,1.127,0,0,1,.873.873c.937,3.748-2.192,19.137-7.94,27.474-4.574,6.654-10.608,14.547-12.7,17.247,6.765,1.731,28.236,7.321,29.92,8.989s11.768,23.552,12.324,26.378a11.514,11.514,0,0,1-1.35,8.814,5.145,5.145,0,0,1-3.684,2.08c-3.621.318-23.821-9.973-27-11.657l-18.041,2.493c-1.763,2.144-13.959,16.6-22.662,19.486A96.079,96.079,0,0,1,184.305,309l.429,31.333a.842.842,0,0,1-.286.619.873.873,0,0,1-.508.191Zm-26.283-6.209,25.41,4.4-.429-31.063a.81.81,0,0,1,.7-.794,79.212,79.212,0,0,0,12.4-3.43c8.75-2.922,22-19.057,22.122-19.216a.826.826,0,0,1,.508-.286l18.692-2.525a.667.667,0,0,1,.461.079c8.925,4.59,24.012,11.831,26.394,11.593a3.526,3.526,0,0,0,2.557-1.461,9.91,9.91,0,0,0,1.064-7.543c-.572-2.859-10.466-24.123-11.895-25.553-1.35-1.191-19.343-6.082-30.349-8.877a.794.794,0,0,1-.429-1.255c0-.111,7.829-10.037,13.372-18.136s8.147-21.709,7.766-25.648c-2.414,1.779-10.164,12.594-14.468,18.581-3.065,4.272-5.479,7.639-6.352,8.512s-6.8,5.812-14.912,12.594c-14.468,12.054-36.32,30.285-39.131,33.652C167.757,282.6,160.356,319.876,157.657,334.931Z" transform="translate(-116.585 -38.716)" fill="#263238"/>
      <path id="Path_43745" data-name="Path 43745" d="M242.311,264.912a.746.746,0,0,1-.651-.349c-5.034-7.416-13.419-19.518-14.483-20.359s-14.483-2.859-26.41-4.463a.8.8,0,0,1,.222-1.588c5.971.81,25.6,3.526,27.188,4.764s13.451,18.724,14.785,20.645a.794.794,0,0,1-.206,1.112A.905.905,0,0,1,242.311,264.912Z" transform="translate(-90.596 -18.294)" fill="#263238"/>
      <path id="Path_43746" data-name="Path 43746" d="M240.6,267.208a.778.778,0,0,1-.6-.286c-3.4-3.923-10.2-11.657-11.609-12.848-1.143-.921-14.547-4.351-26.6-7.115a.794.794,0,0,1-.588-.953.778.778,0,0,1,.953-.588c4.208.953,25.41,5.86,27.252,7.448s11.387,12.546,11.8,13.022a.778.778,0,0,1-.079,1.112.762.762,0,0,1-.524.207Z" transform="translate(-89.948 -14.031)" fill="#263238"/>
      <path id="Path_43747" data-name="Path 43747" d="M268.84,392.962s-33.985-6.352-35.335-6.8-25.41-7.7-28.586-9.068-41.688-8.147-43.5-5.431S157.8,390.246,157.34,391.6s-4.081,7.7-3.176,11.339a33.987,33.987,0,0,1,0,9.957s-.461,21.3,4.971,21.757S169.568,414.7,169.568,414.7s7.7,4.542,23.552,5.447,31.27-6.8,31.27-6.8l42.18,10.037Z" transform="translate(-117.681 59.855)" fill="#fff"/>
      <path id="Path_43748" data-name="Path 43748" d="M159.648,435.718h-.238c-5.876-.492-5.781-18.883-5.717-22.567a33.177,33.177,0,0,0,0-9.751c-.794-3.176,1.413-7.941,2.6-10.434.27-.6.492-1.08.588-1.334s.4-2.207.683-4.177c1.112-7.321,2.207-14.055,3.478-15.96,2.382-3.557,42.148,4.145,44.467,5.145s17.231,5.59,24.361,7.782l4.113,1.255c1.032.333,21.646,4.24,35.24,6.781a.794.794,0,0,1,.651.842l-2.223,30.365a.778.778,0,0,1-.318.588.746.746,0,0,1-.651.127l-41.862-9.894c-2.128,1-16.643,7.591-31.413,6.749-12.959-.746-20.486-3.843-22.98-5.066C169.16,421.076,164.936,435.718,159.648,435.718Zm5.336-63.651a5.5,5.5,0,0,0-2.62.365c-1.143,1.715-2.477,10.529-3.176,15.262-.4,2.684-.6,3.986-.746,4.431a14.049,14.049,0,0,1-.667,1.509c-1.016,2.192-3.176,6.781-2.493,9.386a34.288,34.288,0,0,1,0,10.259c-.175,8.449,1.032,20.645,4.272,20.852,3.494.222,7.718-11.7,9.529-19.327a.858.858,0,0,1,.461-.556.81.81,0,0,1,.715,0s7.766,4.447,23.2,5.336,30.714-6.638,30.873-6.718a.841.841,0,0,1,.524,0l41.291,9.751L268.29,393.9c-5.717-1.064-33.445-6.257-34.748-6.7l-4.081-1.255c-7.718-2.366-22.059-6.765-24.536-7.829C201.828,376.768,173.941,372.067,164.984,372.067Z" transform="translate(-117.972 59.581)" fill="#263238"/>
      <path id="Path_43749" data-name="Path 43749" d="M164.473,280.82l45.563,8.338-1.7,28.475s10.084,4.764,13.149,32.889,11.847,93.269,9.656,98.1-15.786,25.886-47.373,27.2-48.691-27.633-51.756-36.86,13.165-69.575,14.039-74.831,5.257-41.291,9.211-47.373a48.073,48.073,0,0,1,8.766-10.1Z" transform="translate(-130.85 6.803)"/>
      <path id="Path_43750" data-name="Path 43750" d="M181.961,476.962c-31.428,0-47.643-29.364-50.406-37.432-2.477-7.416,6.7-44.975,11.625-65.112,1.27-5.209,2.192-8.973,2.382-10.084s.413-2.779.762-5.257c1.683-12.07,5.209-37.193,8.56-42.4a48.326,48.326,0,0,1,8.655-10.037l.429-25.521a.778.778,0,0,1,.286-.6.81.81,0,0,1,.651-.159l45.61,8.322a.794.794,0,0,1,.651.842l-1.715,28.014c2.112,1.366,10.386,8.21,13.118,33.255.762,7.019,1.906,16.484,3.176,26.505,4.653,38.623,8.083,68.463,6.479,72-.127.254-12.308,26.172-48.072,27.649ZM165.54,282.055l-.429,24.933a.778.778,0,0,1-.286.6,47.646,47.646,0,0,0-8.607,9.91c-3.176,4.907-6.781,30.746-8.322,41.767-.349,2.493-.619,4.367-.778,5.3-.191,1.175-1.112,4.955-2.4,10.18-4.542,18.6-13.991,57.283-11.657,64.286,2.668,7.94,19.137,37.638,50.962,36.288,28.872-1.191,43.482-19.692,46.69-26.728,1.588-3.414-3.176-42.561-6.606-71.147-1.207-10.037-2.35-19.5-3.176-26.521-2.986-27.315-12.625-32.223-12.7-32.27a.81.81,0,0,1-.445-.762L209.5,290.09Zm-1.27,24.917Z" transform="translate(-131.138 6.521)" fill="#263238"/>
      <path id="Path_43751" data-name="Path 43751" d="M178.119,303.076a65.093,65.093,0,0,1-7.718-.492.794.794,0,0,1-.7-.873.81.81,0,0,1,.889-.7,65.109,65.109,0,0,0,7.528.476.794.794,0,1,1,0,1.588Z" transform="translate(-108.461 18.675)" fill="#263238"/>
      <path id="Path_43752" data-name="Path 43752" d="M170.452,303.335h-.175a162.005,162.005,0,0,1-18.231-5.177.794.794,0,0,1,.54-1.493,158.924,158.924,0,0,0,18.025,5.114.794.794,0,0,1,.6.953.778.778,0,0,1-.762.6Z" transform="translate(-119.137 16.098)" fill="#263238"/>
      <path id="Path_43753" data-name="Path 43753" d="M362.888,314.875l-4.526,116.9s-4.987.461-6.8,2.716a32.939,32.939,0,0,0-3.176,4.987s-45.753,1.81-67.51,8.163a210.359,210.359,0,0,0-36.24,14.039l-19.947-.429L220.61,513.8l26.744.905s13.134,7.7,72.941,13.149,87.457,6.8,93.793-.461,9.068-18.581,9.973-24.457,11.784-42.148,11.784-94.714-49.39-128.636-60.268-145.9-22.233-15.881-29.9-14.039" transform="translate(-78.519 -12.944)"/>
      <path id="Path_43754" data-name="Path 43754" d="M389,533.421c-15.166,0-37.368-1.683-68.495-4.51-56.314-5.13-71.274-12.181-73.053-13.149l-26.537-.905a.762.762,0,0,1-.762-.858l4.018-52.471a.778.778,0,0,1,.81-.731l19.74.445a215.075,215.075,0,0,1,36.209-14.007c20.423-5.955,62.38-7.94,67.24-8.179a32.132,32.132,0,0,1,3.049-4.764c1.588-1.985,5.145-2.7,6.654-2.922l4.494-116.233a.762.762,0,0,1,.826-.762.794.794,0,0,1,.762.826l-4.526,116.9a.794.794,0,0,1-.715.762c-1.3.111-4.939.778-6.257,2.414a33.355,33.355,0,0,0-3.081,4.844.778.778,0,0,1-.683.445c-.445,0-45.912,1.874-67.32,8.131a213.53,213.53,0,0,0-36.1,13.975.906.906,0,0,1-.4.1l-19.184-.429-3.954,50.978,25.9.873a.97.97,0,0,1,.381.111c.127,0,13.88,7.7,72.624,13.038,59.554,5.415,87.123,6.67,93.126-.191,6.845-7.813,9.211-20.391,9.783-24.06.143-1,.556-2.716,1.159-5.336A382.331,382.331,0,0,0,435.324,408.5c0-33.573-19.835-81.883-58.934-143.58l-1.207-1.89c-11.291-17.882-23.3-15.055-29.046-13.705a.81.81,0,0,1-.969-.588.794.794,0,0,1,.6-.953c9.322-2.192,20.28-2.192,30.761,14.388l1.191,1.906C417,326.015,436.912,374.627,436.912,408.5a384.815,384.815,0,0,1-10.64,89.617c-.588,2.477-1,4.272-1.143,5.209-.588,3.78-3.033,16.723-10.164,24.87C411.772,531.833,403.689,533.421,389,533.421Z" transform="translate(-78.792 -13.221)" fill="#263238"/>
      <path id="Path_43755" data-name="Path 43755" d="M307.644,373.595a.762.762,0,0,1-.683-.4.794.794,0,0,1,.143-.985l26.283-24.457a.778.778,0,0,1,1.112,0,.794.794,0,0,1,0,1.128l-23.821,22.233,24.6-7.146a.825.825,0,0,1,.445,1.588l-27.808,8.068Z" transform="translate(-27.801 46.031)" fill="#263238"/>
      <path id="Path_43756" data-name="Path 43756" d="M330.675,358.812a.8.8,0,0,1-.206-1.588l8.782-2.541a.778.778,0,0,1,.985.54.794.794,0,0,1-.54.985l-8.8,2.541A.508.508,0,0,1,330.675,358.812Z" transform="translate(-14.322 50.221)" fill="#263238"/>
      <path id="Path_43757" data-name="Path 43757" d="M342.147,376.158h-.286c-11.53-4.447-40.258-6.733-40.56-6.749a.8.8,0,0,1,.127-1.588c1.191.1,29.253,2.335,41,6.845a.807.807,0,0,1-.286,1.588Z" transform="translate(-31.496 57.967)" fill="#263238"/>
      <path id="Path_43758" data-name="Path 43758" d="M333.627,390.167a.81.81,0,0,1-.635-.318,49.241,49.241,0,0,0-3.875-4.478.794.794,0,0,1,1.143-1.1,59.936,59.936,0,0,1,3.986,4.605.794.794,0,0,1-.127,1.112.842.842,0,0,1-.492.175Z" transform="translate(-14.813 67.525)" fill="#263238"/>
      <path id="Path_43759" data-name="Path 43759" d="M336.469,387.738a.889.889,0,0,1-.508-.175,76.847,76.847,0,0,0-27.347-14.2.815.815,0,0,1,.365-1.588,78.356,78.356,0,0,1,28,14.5.794.794,0,0,1-.508,1.413Z" transform="translate(-27.136 60.283)" fill="#263238"/>
      <path id="Path_43760" data-name="Path 43760" d="M236.175,430.457a.794.794,0,0,1-.794-.794L235,385.72a.794.794,0,0,1,.778-.81h0a.794.794,0,0,1,.794.794l.461,43.943a.81.81,0,0,1-.794.81Z" transform="translate(-70.056 68.018)" fill="#263238"/>
      <path id="Path_43761" data-name="Path 43761" d="M241.091,407.328H222.034a.794.794,0,0,1,0-1.588h19.057a.794.794,0,0,1,.794.794.81.81,0,0,1-.794.794Z" transform="translate(-78.149 80.268)" fill="#263238"/>
      <path id="Path_43762" data-name="Path 43762" d="M224.9,391.223a.794.794,0,0,1-.794-.746.778.778,0,0,1,.746-.826l7.7-.461a.794.794,0,0,1,.842.746.81.81,0,0,1-.746.842l-7.7.445Z" transform="translate(-76.461 70.535)" fill="#263238"/>
    </g>
  </g>
</svg>
