<svg xmlns="http://www.w3.org/2000/svg" xmlns:xlink="http://www.w3.org/1999/xlink" width="445.208" height="445.056" viewBox="0 0 445.208 445.056">
  <defs>
    <clipPath id="clip-path">
      <path id="Path_43293" data-name="Path 43293" d="M203.9,405.694c-1.593-13.65-5.278-42.589-5.835-46.206a63.271,63.271,0,0,1-.216-10.92s12.513-21.2,14.628-38.141c.626-5.062,1.194-10.715,1.74-16.312-8.6-.353-26.368-2.275-42.975-11.625a29.232,29.232,0,0,0-2.787,5.562c-4.368,12.035-1.536,22.9,3.595,38.414s10.329,22.966,8.907,29.985-1.308,16.039,1.137,22.841c1.445,4.118,6.882,17.552,10.886,28.438A19.668,19.668,0,0,0,203.9,405.694Z" transform="translate(-166.299 -282.49)" fill="#ef820d" stroke="#263238" stroke-miterlimit="10" stroke-width="1"/>
    </clipPath>
    <clipPath id="clip-path-2">
      <path id="Path_43297" data-name="Path 43297" d="M167.35,299.261c5.688,6.086,19.884,17.177,45.728,12.808,1.718-15.925,3.094-34.717,4.459-39.62,1.558-5.585,5.005-18.2,5.005-18.2a65.054,65.054,0,0,0,1.138-19.838c-1.263-9.567-15.356-11.455-19.9-11.045s-8.133,1.138-8.133,1.138-12.4-2.491-15.925,4.391,7.678,37.731,8.156,41.087-15.163,14.162-19.52,26.163A27.461,27.461,0,0,0,167.35,299.261Z" transform="translate(-167.35 -223.315)" fill="gray" stroke="#263238" stroke-linecap="round" stroke-linejoin="round" stroke-width="1"/>
    </clipPath>
    <clipPath id="clip-path-3">
      <path id="Path_43303" data-name="Path 43303" d="M193.924,188.09s-8.179,12.513-16.744,16.426c0,0,1.138,14.06,6.108,18.655s13.025,3.72,17.779,0,2.7-26.163,2.7-26.163S196.427,193.232,193.924,188.09Z" transform="translate(-177.18 -188.09)" fill="#fff" stroke="#263238" stroke-linecap="round" stroke-linejoin="round" stroke-width="1"/>
    </clipPath>
    <clipPath id="clip-path-4">
      <circle id="Ellipse_2205" data-name="Ellipse 2205" cx="104.868" cy="104.868" r="104.868" transform="matrix(0.946, -0.324, 0.324, 0.946, 0, 68.04)" fill="#ef820d" stroke="#263238" stroke-miterlimit="10" stroke-width="1"/>
    </clipPath>
    <clipPath id="clip-path-5">
      <path id="Path_43331" data-name="Path 43331" d="M201.646,226.706s-13.138-.239-20.327,4.55-5.619,8.509-3.538,12.41,7.792,4.55,17.9,2.082,22.682-9.157,30.565-14.06,33.227-32.578,33.227-32.578l6.473-3.617s7.382-1.638,9.1-2.514-.648-1.8-2.036-1.49-5.847.705-5.847.705,8.133-3.777,8.747-5.369.409-2.514-1.467-1.138-8.327,3.31-8.327,3.31,9.851-7.121,10.056-8.383-.466-2.082-1.877-.8-10.454,6.37-10.454,6.37l6.472-8.622s.2-2.582-2.275-.273a63.831,63.831,0,0,1-6.165,5.528,40.228,40.228,0,0,1-4.652,2,5.813,5.813,0,0,1,.614-3.777c.921-1.411,2.878-2.275,1.058-5.073-.512-.8-1.138.25-1.536,1.786s-4.7,6.143-4.721,7.109a69.131,69.131,0,0,0,1.866,7.337s-15.948,15.163-23.717,21.727-10.135,7.826-10.135,7.826Z" transform="translate(-176.033 -175.699)" fill="#fff" stroke="#263238" stroke-linecap="round" stroke-linejoin="round" stroke-width="1"/>
    </clipPath>
  </defs>
  <g id="World-bro" transform="translate(-57.352 -54.468)">
    <g id="freepik--background-simple--inject-43" transform="translate(81.311 54.468)">
      <path id="Path_43271" data-name="Path 43271" d="M96.667,334.459s31.532,75.076,85.1,114.753,125.616,40.848,181.912-.375,54.771-126.264,93.2-195.175,36.56-147.5-32.931-185.085S324.4,79.951,240.9,83.909,30.986,157.6,96.667,334.459Z" transform="translate(-78.415 -54.468)" fill="#ef820d"/>
      <path id="Path_43272" data-name="Path 43272" d="M96.667,334.459s31.532,75.076,85.1,114.753,125.616,40.848,181.912-.375,54.771-126.264,93.2-195.175,36.56-147.5-32.931-185.085S324.4,79.951,240.9,83.909,30.986,157.6,96.667,334.459Z" transform="translate(-78.415 -54.468)" fill="#fff" opacity="0.7"/>
    </g>
    <g id="freepik--Plants--inject-43" transform="translate(57.352 320.108)">
      <path id="Path_43273" data-name="Path 43273" d="M125.418,348.9c-1.615,5.187-4.038,1.32-5.449-19.759-.671-9.885-1.649-30.1,9.635-26.572,10.841,3.413-.5,34.353-.5,34.353Zm15.243,1.74s20.782-25.594,11.625-32.328c-9.521-7.007-15.163,12.433-17.745,22-5.506,20.4-4.47,24.843-1.251,20.475Zm6.552,20.873s19.6-16.551,13.582-23.023c-6.268-6.734-13.4,7.3-16.756,14.242-7.166,14.788-7.018,18.348-3.924,15.459Zm7.405,20.748s19.6-16.562,13.571-23.035c-6.256-6.734-13.389,7.314-16.744,14.253-7.166,14.788-7.018,18.337-3.924,15.459ZM114.7,352.683S84.3,339.932,80.418,350.6c-4.05,11.1,16.187,11.057,26.095,10.852,21.124-.455,25.094-2.7,19.986-4.55Zm5.494,16.358s-32.34-6.45-34.023,4.778c-1.752,11.694,18.075,7.621,27.733,5.437,20.612-4.63,24.058-7.621,18.678-8.418Zm8.736,17.609s-27.494-4.709-28.654,4.823c-1.217,9.931,15.459,6.029,23.569,3.959,17.324-4.391,20.18-7,15.607-7.553Zm5.46,14.674s-26.8-7.69-29.007,1.706c-2.275,9.737,14.788,7.633,23.023,6.438,17.688-2.537,20.794-4.823,16.312-5.858Zm-23.74-74.689s-14.947-35.946-27.881-28.119c-13.457,8.145,4.141,23.456,12.922,30.713,18.712,15.573,24.172,16.323,21.4,10.579Z" transform="translate(-54.53 -286.701)" fill="#ef820d"/>
      <path id="Path_43274" data-name="Path 43274" d="M125.418,348.9c-1.615,5.187-4.038,1.32-5.449-19.759-.671-9.885-1.649-30.1,9.635-26.572,10.841,3.413-.5,34.353-.5,34.353Zm15.243,1.74s20.782-25.594,11.625-32.328c-9.521-7.007-15.163,12.433-17.745,22-5.506,20.4-4.47,24.843-1.251,20.475Zm6.552,20.873s19.6-16.551,13.582-23.023c-6.268-6.734-13.4,7.3-16.756,14.242-7.166,14.788-7.018,18.348-3.924,15.459Zm7.405,20.748s19.6-16.562,13.571-23.035c-6.256-6.734-13.389,7.314-16.744,14.253-7.166,14.788-7.018,18.337-3.924,15.459ZM114.7,352.683S84.3,339.932,80.418,350.6c-4.05,11.1,16.187,11.057,26.095,10.852,21.124-.455,25.094-2.7,19.986-4.55Zm5.494,16.358s-32.34-6.45-34.023,4.778c-1.752,11.694,18.075,7.621,27.733,5.437,20.612-4.63,24.058-7.621,18.678-8.418Zm8.736,17.609s-27.494-4.709-28.654,4.823c-1.217,9.931,15.459,6.029,23.569,3.959,17.324-4.391,20.18-7,15.607-7.553Zm5.46,14.674s-26.8-7.69-29.007,1.706c-2.275,9.737,14.788,7.633,23.023,6.438,17.688-2.537,20.794-4.823,16.312-5.858Zm-23.74-74.689s-14.947-35.946-27.881-28.119c-13.457,8.145,4.141,23.456,12.922,30.713,18.712,15.573,24.172,16.323,21.4,10.579Z" transform="translate(-54.53 -286.701)" fill="#fff" opacity="0.4"/>
      <path id="Path_43275" data-name="Path 43275" d="M88.1,309.49s32.863,33.932,41.508,51.564c9.942,20.259,17.4,43.92,20.134,63.36" transform="translate(-53.124 -285.038)" fill="none" stroke="#ef820d" stroke-linecap="round" stroke-linejoin="round" stroke-width="1.252"/>
      <line id="Line_3" data-name="Line 3" y1="35.07" x2="1.263" transform="translate(69.568 29.548)" fill="none" stroke="#ef820d" stroke-linecap="round" stroke-linejoin="round" stroke-width="1.252"/>
      <line id="Line_4" data-name="Line 4" y1="30.429" x2="12.592" transform="translate(76.484 45.587)" fill="none" stroke="#ef820d" stroke-linecap="round" stroke-linejoin="round" stroke-width="1.252"/>
      <line id="Line_5" data-name="Line 5" x1="31.964" y1="3.788" transform="translate(41.972 68.075)" fill="none" stroke="#ef820d" stroke-linecap="round" stroke-linejoin="round" stroke-width="1.252"/>
      <line id="Line_6" data-name="Line 6" y1="22.591" x2="16.744" transform="translate(83.765 69.486)" fill="none" stroke="#ef820d" stroke-linecap="round" stroke-linejoin="round" stroke-width="1.252"/>
      <line id="Line_7" data-name="Line 7" x1="23.751" y2="1.763" transform="translate(56.862 85.354)" fill="none" stroke="#ef820d" stroke-linecap="round" stroke-linejoin="round" stroke-width="1.252"/>
      <line id="Line_8" data-name="Line 8" x1="18.143" y2="2.23" transform="translate(68.465 102.212)" fill="none" stroke="#ef820d" stroke-linecap="round" stroke-linejoin="round" stroke-width="1.252"/>
      <line id="Line_9" data-name="Line 9" y1="13.798" x2="8.668" transform="translate(91.261 99.095)" fill="none" stroke="#ef820d" stroke-linecap="round" stroke-linejoin="round" stroke-width="1.252"/>
      <line id="Line_10" data-name="Line 10" x1="21.374" y2="0.705" transform="translate(71.002 117.671)" fill="none" stroke="#ef820d" stroke-linecap="round" stroke-linejoin="round" stroke-width="1.252"/>
      <path id="Path_43276" data-name="Path 43276" d="M408.47,364.988c-6.893.523-3.413-4.152,20.782-15.709,11.375-5.426,34.8-16.062,35.911-1.069,1.069,14.39-40.825,15.5-40.825,15.5Zm5.085,18.815s39.984,12.513,43.647-1.411c3.811-14.537-21.806-12.092-34.308-10.659-26.686,3.06-31.452,6.37-24.764,8.11Zm-21.613,17.541s28.756,15.391,33.579,5.244c5.016-10.556-14.924-12.4-24.7-13.116-20.839-1.524-24.957.318-20.1,2.616ZM370.9,419.816s28.756,15.391,33.579,5.244c5.016-10.556-14.924-12.4-24.684-13.116-20.851-1.524-24.969.307-20.111,2.616Zm28.108-65.748s.819-41.895-13.65-41.485c-15.027.432-5.471,24.32-.58,35.923,10.431,24.752,14.947,28.438,14.788,21.476ZM382.262,368.23s-7.542-41.224-21.613-37.959c-14.64,3.413-.523,24.934,6.575,35.263,15.14,22.182,20.293,24.855,18.712,18.132Zm-16.71,18.587s-7.326-34.694-19.144-31.6c-12.3,3.219.136,21.09,6.381,29.712,13.32,18.4,17.734,20.555,16.244,14.9Zm-14.788,13.332s-3.606-35.263-15.675-33.454c-12.57,1.9-2.116,20.987,3.185,30.224,11.3,19.725,15.447,22.318,14.572,16.539Zm77.181-63.087s35.456-34.5,20.145-46.115c-15.925-12.08-25.765,15.925-30.269,29.678-9.623,29.428-7.963,36.219-2.457,30.247Z" transform="translate(-19.976 -287.994)" fill="#ef820d"/>
      <path id="Path_43277" data-name="Path 43277" d="M408.47,364.988c-6.893.523-3.413-4.152,20.782-15.709,11.375-5.426,34.8-16.062,35.911-1.069,1.069,14.39-40.825,15.5-40.825,15.5Zm5.085,18.815s39.984,12.513,43.647-1.411c3.811-14.537-21.806-12.092-34.308-10.659-26.686,3.06-31.452,6.37-24.764,8.11Zm-21.613,17.541s28.756,15.391,33.579,5.244c5.016-10.556-14.924-12.4-24.7-13.116-20.839-1.524-24.957.318-20.1,2.616ZM370.9,419.816s28.756,15.391,33.579,5.244c5.016-10.556-14.924-12.4-24.684-13.116-20.851-1.524-24.969.307-20.111,2.616Zm28.108-65.748s.819-41.895-13.65-41.485c-15.027.432-5.471,24.32-.58,35.923,10.431,24.752,14.947,28.438,14.788,21.476ZM382.262,368.23s-7.542-41.224-21.613-37.959c-14.64,3.413-.523,24.934,6.575,35.263,15.14,22.182,20.293,24.855,18.712,18.132Zm-16.71,18.587s-7.326-34.694-19.144-31.6c-12.3,3.219.136,21.09,6.381,29.712,13.32,18.4,17.734,20.555,16.244,14.9Zm-14.788,13.332s-3.606-35.263-15.675-33.454c-12.57,1.9-2.116,20.987,3.185,30.224,11.3,19.725,15.447,22.318,14.572,16.539Zm77.181-63.087s35.456-34.5,20.145-46.115c-15.925-12.08-25.765,15.925-30.269,29.678-9.623,29.428-7.963,36.219-2.457,30.247Z" transform="translate(-19.976 -287.994)" fill="#fff" opacity="0.4"/>
      <path id="Path_43278" data-name="Path 43278" d="M436.2,302.82s-24.684,54.737-41.462,73.222C375.47,397.291,351,417.2,329.31,429.505" transform="translate(-19.953 -285.956)" fill="none" stroke="#ef820d" stroke-linecap="round" stroke-linejoin="round" stroke-width="1.252"/>
      <line id="Line_11" data-name="Line 11" y1="14.947" x2="42.031" transform="translate(385.002 61.614)" fill="none" stroke="#ef820d" stroke-linecap="round" stroke-linejoin="round" stroke-width="1.252"/>
      <line id="Line_12" data-name="Line 12" x2="41.861" y2="0.614" transform="translate(374.787 90.086)" fill="none" stroke="#ef820d" stroke-linecap="round" stroke-linejoin="round" stroke-width="1.252"/>
      <line id="Line_13" data-name="Line 13" x1="10.499" y1="39.551" transform="translate(367.984 45.575)" fill="none" stroke="#ef820d" stroke-linecap="round" stroke-linejoin="round" stroke-width="1.252"/>
      <line id="Line_14" data-name="Line 14" x2="34.546" y2="9.18" transform="translate(359.214 106.228)" fill="none" stroke="#ef820d" stroke-linecap="round" stroke-linejoin="round" stroke-width="1.252"/>
      <line id="Line_15" data-name="Line 15" x1="13.229" y1="27.244" transform="translate(352.457 72.102)" fill="none" stroke="#ef820d" stroke-linecap="round" stroke-linejoin="round" stroke-width="1.252"/>
      <line id="Line_16" data-name="Line 16" x1="11.136" y1="20.384" transform="translate(337.442 93.942)" fill="none" stroke="#ef820d" stroke-linecap="round" stroke-linejoin="round" stroke-width="1.252"/>
      <line id="Line_17" data-name="Line 17" x2="20.373" y2="3.777" transform="translate(338.136 124.837)" fill="none" stroke="#ef820d" stroke-linecap="round" stroke-linejoin="round" stroke-width="1.252"/>
      <line id="Line_18" data-name="Line 18" x1="10.852" y1="24.923" transform="translate(322.165 103.464)" fill="none" stroke="#ef820d" stroke-linecap="round" stroke-linejoin="round" stroke-width="1.252"/>
      <path id="Path_43279" data-name="Path 43279" d="M318.638,365.211c-2.275,3.469-3.242.125.148-15.664,1.593-7.405,5.13-22.466,12.672-17.495,7.246,4.778-7.6,25.139-7.6,25.139Zm10.829,4.482s20.657-14.435,15.345-21.306c-5.517-7.144-13.753,5.949-17.666,12.433-8.338,13.832-8.509,17.313-5.221,14.788Zm.432,16.721s17.882-8.042,14.788-14.06c-3.185-6.268-11.375,2.548-15.311,6.939-8.384,9.362-9.021,12-6.131,10.533Zm1.069,16.8s17.882-8.042,14.788-14.06c-3.185-6.268-11.375,2.548-15.311,6.939-8.372,9.362-9.009,12-6.131,10.533Zm-20.987-37.538s-19.656-15.766-24.752-8.747c-5.312,7.314,9.567,11.534,16.892,13.468,15.607,4.106,19,3.3,15.629.865Zm.591,13.172s-22.4-11.546-26-3.651c-3.742,8.224,11.682,9.407,19.235,9.84,16.119.933,19.281-.546,15.493-2.275Zm2.719,14.788s-19.213-9.248-22.079-2.48c-2.98,7.03,10.1,7.678,16.494,7.872,13.65.409,16.3-.91,13.059-2.275Zm.921,11.933s-18.121-11.227-21.681-4.812c-3.72,6.677,9.214,8.7,15.561,9.578,13.525,1.865,16.289.83,13.218-.876ZM312.439,345.7s-3.413-29.575-14.572-26.516c-11.6,3.151-1.888,18.1,3.026,25.31,10.477,15.379,14.321,17.063,13.5,12.274Z" transform="translate(-26.185 -283.735)" fill="#ef820d"/>
      <path id="Path_43280" data-name="Path 43280" d="M318.638,365.211c-2.275,3.469-3.242.125.148-15.664,1.593-7.405,5.13-22.466,12.672-17.495,7.246,4.778-7.6,25.139-7.6,25.139Zm10.829,4.482s20.657-14.435,15.345-21.306c-5.517-7.144-13.753,5.949-17.666,12.433-8.338,13.832-8.509,17.313-5.221,14.788Zm.432,16.721s17.882-8.042,14.788-14.06c-3.185-6.268-11.375,2.548-15.311,6.939-8.384,9.362-9.021,12-6.131,10.533Zm1.069,16.8s17.882-8.042,14.788-14.06c-3.185-6.268-11.375,2.548-15.311,6.939-8.372,9.362-9.009,12-6.131,10.533Zm-20.987-37.538s-19.656-15.766-24.752-8.747c-5.312,7.314,9.567,11.534,16.892,13.468,15.607,4.106,19,3.3,15.629.865Zm.591,13.172s-22.4-11.546-26-3.651c-3.742,8.224,11.682,9.407,19.235,9.84,16.119.933,19.281-.546,15.493-2.275Zm2.719,14.788s-19.213-9.248-22.079-2.48c-2.98,7.03,10.1,7.678,16.494,7.872,13.65.409,16.3-.91,13.059-2.275Zm.921,11.933s-18.121-11.227-21.681-4.812c-3.72,6.677,9.214,8.7,15.561,9.578,13.525,1.865,16.289.83,13.218-.876ZM312.439,345.7s-3.413-29.575-14.572-26.516c-11.6,3.151-1.888,18.1,3.026,25.31,10.477,15.379,14.321,17.063,13.5,12.274Z" transform="translate(-26.185 -283.735)" fill="#fff" opacity="0.4"/>
      <path id="Path_43281" data-name="Path 43281" d="M298.24,328.6s17.006,31.85,19.645,46.638c3.049,16.983,3.549,35.934,1.456,50.8" transform="translate(-24.226 -282.41)" fill="none" stroke="#ef820d" stroke-linecap="round" stroke-linejoin="round" stroke-width="1.252"/>
      <line id="Line_19" data-name="Line 19" y1="25.492" x2="8.304" transform="translate(290.975 57.485)" fill="none" stroke="#ef820d" stroke-linecap="round" stroke-linejoin="round" stroke-width="1.252"/>
      <line id="Line_20" data-name="Line 20" y1="19.702" x2="15.652" transform="translate(293.659 73.103)" fill="none" stroke="#ef820d" stroke-linecap="round" stroke-linejoin="round" stroke-width="1.252"/>
      <line id="Line_21" data-name="Line 21" x1="22.693" y1="9.51" transform="translate(269.965 79.712)" fill="none" stroke="#ef820d" stroke-linecap="round" stroke-linejoin="round" stroke-width="1.252"/>
      <line id="Line_22" data-name="Line 22" y1="13.081" x2="17.051" transform="translate(295.627 93.067)" fill="none" stroke="#ef820d" stroke-linecap="round" stroke-linejoin="round" stroke-width="1.252"/>
      <line id="Line_23" data-name="Line 23" x1="17.825" y1="3.697" transform="translate(276.903 96.843)" fill="none" stroke="#ef820d" stroke-linecap="round" stroke-linejoin="round" stroke-width="1.252"/>
      <line id="Line_24" data-name="Line 24" x1="13.798" y1="2.173" transform="translate(281.783 112.006)" fill="none" stroke="#ef820d" stroke-linecap="round" stroke-linejoin="round" stroke-width="1.252"/>
      <line id="Line_25" data-name="Line 25" y1="8.315" x2="9.271" transform="translate(296.753 114.702)" fill="none" stroke="#ef820d" stroke-linecap="round" stroke-linejoin="round" stroke-width="1.252"/>
      <line id="Line_26" data-name="Line 26" x1="15.857" y1="3.981" transform="translate(280.714 122.779)" fill="none" stroke="#ef820d" stroke-linecap="round" stroke-linejoin="round" stroke-width="1.252"/>
      <path id="Path_43282" data-name="Path 43282" d="M96.537,387.172c.694,3.287-1.775,1.934-8.9-9.009-3.39-5.073-9.976-15.686-2.821-17.154,6.825-1.445,10.09,18.678,10.09,18.678Zm8.748-3.663s3.481-20.066-3.481-20.942c-7.257-.9-4.425,11.284-2.935,17.222,3.185,12.661,5.085,14.788,5.494,11.375Zm9.84,9.282s5.562-14.845.364-16.517c-5.4-1.74-5.016,7.963-4.732,12.74.6,10.135,1.752,12.012,2.548,9.521Zm10.238,8.952s5.562-14.845.364-16.517c-5.4-1.74-5.016,7.963-4.732,12.74.6,10.135,1.752,12.012,2.548,9.521Zm-33.488-9.328s-20.236,2.275-19.11,9.225c1.138,7.212,12.069,1.081,17.347-2.025,11.25-6.609,12.717-9.021,9.4-8.475Zm7.963,7.166s-19.338,6.279-16.9,12.843c2.582,6.825,12.035-1.342,16.6-5.437,9.714-8.713,10.67-11.375,7.53-10.181Zm10.022,6.825s-16.244,5.756-13.991,11.25c2.275,5.688,10.147-1.422,13.9-4.982,7.963-7.6,8.77-9.862,6.131-8.782Zm7.371,6.268s-16.8,4.072-15.152,9.76c1.718,5.938,10.238-.33,14.355-3.481,8.782-6.7,9.76-8.873,7.03-8.076ZM81.84,379.642S62.935,364.774,58.328,372.9c-4.8,8.452,9.3,11.375,16.244,12.683,14.788,2.741,17.961,1.5,14.788-.762Z" transform="translate(-57.352 -277.964)" fill="#ef820d"/>
      <path id="Path_43283" data-name="Path 43283" d="M96.537,387.172c.694,3.287-1.775,1.934-8.9-9.009-3.39-5.073-9.976-15.686-2.821-17.154,6.825-1.445,10.09,18.678,10.09,18.678Zm8.748-3.663s3.481-20.066-3.481-20.942c-7.257-.9-4.425,11.284-2.935,17.222,3.185,12.661,5.085,14.788,5.494,11.375Zm9.84,9.282s5.562-14.845.364-16.517c-5.4-1.74-5.016,7.963-4.732,12.74.6,10.135,1.752,12.012,2.548,9.521Zm10.238,8.952s5.562-14.845.364-16.517c-5.4-1.74-5.016,7.963-4.732,12.74.6,10.135,1.752,12.012,2.548,9.521Zm-33.488-9.328s-20.236,2.275-19.11,9.225c1.138,7.212,12.069,1.081,17.347-2.025,11.25-6.609,12.717-9.021,9.4-8.475Zm7.963,7.166s-19.338,6.279-16.9,12.843c2.582,6.825,12.035-1.342,16.6-5.437,9.714-8.713,10.67-11.375,7.53-10.181Zm10.022,6.825s-16.244,5.756-13.991,11.25c2.275,5.688,10.147-1.422,13.9-4.982,7.963-7.6,8.77-9.862,6.131-8.782Zm7.371,6.268s-16.8,4.072-15.152,9.76c1.718,5.938,10.238-.33,14.355-3.481,8.782-6.7,9.76-8.873,7.03-8.076ZM81.84,379.642S62.935,364.774,58.328,372.9c-4.8,8.452,9.3,11.375,16.244,12.683,14.788,2.741,17.961,1.5,14.788-.762Z" transform="translate(-57.352 -277.964)" fill="#fff" opacity="0.4"/>
      <path id="Path_43284" data-name="Path 43284" d="M64.77,375.68s27.96,8.327,37.936,15.277a137.823,137.823,0,0,1,29.985,28.085" transform="translate(-56.332 -275.936)" fill="none" stroke="#ef820d" stroke-linecap="round" stroke-linejoin="round" stroke-width="1.252"/>
      <line id="Line_27" data-name="Line 27" x1="9.896" y1="19.292" transform="translate(29.312 91.667)" fill="none" stroke="#ef820d" stroke-linecap="round" stroke-linejoin="round" stroke-width="1.252"/>
      <line id="Line_28" data-name="Line 28" x1="2.389" y1="20.214" transform="translate(43.986 94.807)" fill="none" stroke="#ef820d" stroke-linecap="round" stroke-linejoin="round" stroke-width="1.252"/>
      <line id="Line_29" data-name="Line 29" x1="18.382" y2="7.599" transform="translate(25.376 113.553)" fill="none" stroke="#ef820d" stroke-linecap="round" stroke-linejoin="round" stroke-width="1.252"/>
      <line id="Line_30" data-name="Line 30" y1="17.233" x2="2.207" transform="translate(55.156 104.248)" fill="none" stroke="#ef820d" stroke-linecap="round" stroke-linejoin="round" stroke-width="1.252"/>
      <line id="Line_31" data-name="Line 31" x1="12.274" y2="8.122" transform="translate(39.151 118.809)" fill="none" stroke="#ef820d" stroke-linecap="round" stroke-linejoin="round" stroke-width="1.252"/>
      <line id="Line_32" data-name="Line 32" x1="9.112" y2="6.677" transform="translate(50.629 126.089)" fill="none" stroke="#ef820d" stroke-linecap="round" stroke-linejoin="round" stroke-width="1.252"/>
      <line id="Line_33" data-name="Line 33" y1="10.056" x2="0.512" transform="translate(65.473 120.39)" fill="none" stroke="#ef820d" stroke-linecap="round" stroke-linejoin="round" stroke-width="1.252"/>
      <line id="Line_34" data-name="Line 34" x1="11.318" y2="6.825" transform="translate(56.202 132.686)" fill="none" stroke="#ef820d" stroke-linecap="round" stroke-linejoin="round" stroke-width="1.252"/>
    </g>
    <g id="freepik--Floor--inject-43" transform="translate(126.442 463.919)">
      <ellipse id="Ellipse_2203" data-name="Ellipse 2203" cx="153.883" cy="17.802" rx="153.883" ry="17.802" fill="#263238"/>
    </g>
    <g id="freepik--Character--inject-43" transform="translate(124.348 77.481)">
      <path id="Path_43285" data-name="Path 43285" d="M222.892,195.673s-4.96-12.74-16.983-18.587-42.646,11.125-45.444,18.3,7.769,5.562,5.1,10.818S127.341,220.379,122.7,232.05s5.87,16.687,3.947,22.375-14.674,16.483-8.918,28.893,31.5,4.812,39.392,2.628,3.64,3.731,6.438,8.179,23.126-.705,30.156-7.212,4.106,7.3,10.966,5.471c2.5-.66,8.372-13.184,14.037-34.125S228.239,214.271,222.892,195.673Z" transform="translate(-116.249 -60.785)" fill="#263238"/>
      <path id="Path_43286" data-name="Path 43286" d="M185.4,335.832s-5.767,4.766-13.229,12.433-18.6,33.853-21.294,37.913-8.475,9.1-8.475,9.1S132.165,394.6,131.7,397s-.762,6.9-2.127,9.237-3.993,5.483-2.753,9.5,2.8,8.054,4.982,6.984,2.889-2.525,4.755-7.849,17.154-16.71,22.5-24.218,25.424-27.357,28.028-30.2,6.825-1.968,8.5-13.957S191.1,331.976,185.4,335.832Z" transform="translate(-114.839 -39.019)" fill="#fff" stroke="#263238" stroke-linecap="round" stroke-linejoin="round" stroke-width="1"/>
      <path id="Path_43287" data-name="Path 43287" d="M183.98,360.459c2.616-2.855,6.825-1.968,8.5-13.957S188,331.976,182.3,335.832c0,0-5.767,4.766-13.229,12.433-6.586,6.757-16,27.881-20,35.593a16.142,16.142,0,0,0,7.781,5.6C163.232,381.219,181.5,363.166,183.98,360.459Z" transform="translate(-111.735 -39.019)" fill="#ef820d" stroke="#263238" stroke-miterlimit="10" stroke-width="1"/>
      <path id="Path_43288" data-name="Path 43288" d="M137.705,394.85l2.685-7.018c-3-.068-8.361.068-8.691,1.786-.455,2.389-.762,6.9-2.127,9.237s-3.993,5.483-2.753,9.5,2.8,8.042,4.982,6.984,2.889-2.525,4.755-7.849c.842-2.389,4.368-5.983,8.486-9.908C142.312,394.7,137.705,394.85,137.705,394.85Z" transform="translate(-114.839 -31.64)" fill="#b2b2b2" stroke="#263238" stroke-linecap="round" stroke-linejoin="round" stroke-width="1"/>
      <path id="Path_43289" data-name="Path 43289" d="M195.748,224.519s-12.4-2.491-15.925,4.391S187.5,266.641,187.979,270s-15.163,14.162-19.52,26.163-1.536,22.9,3.595,38.414,10.329,22.966,8.907,29.985S179.653,380.6,182.1,387.4s15.652,38.971,15.368,43.226-5.415,10.067-5.3,11.967,9.9,8.019,13.434,11.807,10.5,6.154,11.114,4.061-5.631-7.963-6.689-13.491-4.732-17.859-5.426-25.253-5.824-47.776-6.484-52.121a63.27,63.27,0,0,1-.216-10.92s12.513-21.2,14.628-38.141,3.651-40.53,5.21-46.115,5.005-18.2,5.005-18.2a65.054,65.054,0,0,0,1.138-19.838c-1.263-9.567-15.356-11.455-19.9-11.045A80.012,80.012,0,0,0,195.748,224.519Z" transform="translate(-109.364 -54.266)" fill="#fff" stroke="#263238" stroke-linecap="round" stroke-linejoin="round" stroke-width="1"/>
      <path id="Path_43290" data-name="Path 43290" d="M203.9,405.694c-1.593-13.65-5.278-42.589-5.835-46.206a63.271,63.271,0,0,1-.216-10.92s12.513-21.2,14.628-38.141c.626-5.062,1.194-10.715,1.74-16.312-8.6-.353-26.368-2.275-42.975-11.625a29.232,29.232,0,0,0-2.787,5.562c-4.368,12.035-1.536,22.9,3.595,38.414s10.329,22.966,8.907,29.985-1.308,16.039,1.137,22.841c1.445,4.118,6.882,17.552,10.886,28.438A19.668,19.668,0,0,0,203.9,405.694Z" transform="translate(-109.366 -46.125)" fill="#ef820d"/>
      <g id="Group_35092" data-name="Group 35092" transform="translate(56.933 236.365)" clip-path="url(#clip-path)">
        <path id="Path_43291" data-name="Path 43291" d="M196.5,296.455c-1.365,9.1-4.106,4.106-5.028,2.275s-9.589-12.8-9.1-8.679,6.393,50.233,9.1,64.838c2.343,12.513,6.006,35.889,8.167,50.733.671-.25,1.342-.523,2.048-.865-1.593-13.65-5.278-42.589-5.835-46.206a63.27,63.27,0,0,1-.216-10.92s12.513-21.2,14.628-38.141c.626-5.062,1.194-10.715,1.74-16.312a107.765,107.765,0,0,1-14.788-1.684C196.978,293.259,196.739,294.92,196.5,296.455Z" transform="translate(-164.091 -281.576)" fill="#263238" opacity="0.3"/>
        <path id="Path_43292" data-name="Path 43292" d="M190.55,303.2s2.673,28.017,3.2,38.334" transform="translate(-162.964 -279.642)" fill="none" stroke="#263238" stroke-linecap="round" stroke-linejoin="round" stroke-width="1"/>
      </g>
      <path id="Path_43294" data-name="Path 43294" d="M203.9,405.694c-1.593-13.65-5.278-42.589-5.835-46.206a63.271,63.271,0,0,1-.216-10.92s12.513-21.2,14.628-38.141c.626-5.062,1.194-10.715,1.74-16.312-8.6-.353-26.368-2.275-42.975-11.625a29.232,29.232,0,0,0-2.787,5.562c-4.368,12.035-1.536,22.9,3.595,38.414s10.329,22.966,8.907,29.985-1.308,16.039,1.137,22.841c1.445,4.118,6.882,17.552,10.886,28.438A19.668,19.668,0,0,0,203.9,405.694Z" transform="translate(-109.366 -46.125)" fill="none" stroke="#263238" stroke-miterlimit="10" stroke-width="1"/>
      <path id="Path_43295" data-name="Path 43295" d="M167.35,299.261c5.688,6.086,19.884,17.177,45.728,12.808,1.718-15.925,3.094-34.717,4.459-39.62,1.558-5.585,5.005-18.2,5.005-18.2a65.054,65.054,0,0,0,1.138-19.838c-1.263-9.567-15.356-11.455-19.9-11.045s-8.133,1.138-8.133,1.138-12.4-2.491-15.925,4.391,7.678,37.731,8.156,41.087-15.163,14.162-19.52,26.163A27.461,27.461,0,0,0,167.35,299.261Z" transform="translate(-109.221 -54.262)" fill="gray"/>
      <g id="Group_35093" data-name="Group 35093" transform="translate(58.129 169.053)" clip-path="url(#clip-path-2)">
        <path id="Path_43296" data-name="Path 43296" d="M221.566,234.441c-1.263-9.567-15.356-11.455-19.9-11.045s-8.133,1.138-8.133,1.138-.569-.114-1.49-.228l1.251,6.313s14.162,13.707,14.617,21.465-5.483,14.162-6.825,22.386-3.2,21.92-4.55,31.054-4.106,4.106-5.028,2.275-9.589-12.8-9.1-8.679c.136,1.138.683,5.551,1.479,11.614,7.064,2.275,16.05,3.231,27.2,1.342,1.718-15.925,3.094-34.717,4.459-39.62,1.558-5.585,5.005-18.2,5.005-18.2a65.052,65.052,0,0,0,1.012-19.815Z" transform="translate(-165.281 -223.311)" fill="#263238" opacity="0.3"/>
      </g>
      <path id="Path_43298" data-name="Path 43298" d="M167.35,299.261c5.688,6.086,19.884,17.177,45.728,12.808,1.718-15.925,3.094-34.717,4.459-39.62,1.558-5.585,5.005-18.2,5.005-18.2a65.054,65.054,0,0,0,1.138-19.838c-1.263-9.567-15.356-11.455-19.9-11.045s-8.133,1.138-8.133,1.138-12.4-2.491-15.925,4.391,7.678,37.731,8.156,41.087-15.163,14.162-19.52,26.163A27.461,27.461,0,0,0,167.35,299.261Z" transform="translate(-109.221 -54.262)" fill="none" stroke="#263238" stroke-linecap="round" stroke-linejoin="round" stroke-width="1"/>
      <path id="Path_43299" data-name="Path 43299" d="M186.46,220.027a28.725,28.725,0,0,1,2.2,6.313c.307,2.389,2.878,6.6,6.677,9.931s6.154.171,5.983-4.345-2.537-15.345-2.537-15.345S190.919,220.8,186.46,220.027Z" transform="translate(-106.593 -55.188)" fill="#fff" stroke="#263238" stroke-linecap="round" stroke-linejoin="round" stroke-width="1"/>
      <path id="Path_43300" data-name="Path 43300" d="M177.216,204a2.377,2.377,0,0,0-2.776,2.423c-.182,2.832,4.709,4.106,4.709,4.106Z" transform="translate(-108.247 -56.922)" fill="#fff" stroke="#263238" stroke-linecap="round" stroke-linejoin="round" stroke-width="1"/>
      <path id="Path_43301" data-name="Path 43301" d="M193.924,188.09s-8.179,12.513-16.744,16.426c0,0,1.138,14.06,6.108,18.655s13.025,3.72,17.779,0,2.7-26.163,2.7-26.163S196.427,193.232,193.924,188.09Z" transform="translate(-107.869 -59.106)" fill="#fff"/>
      <g id="Group_35094" data-name="Group 35094" transform="translate(69.311 128.984)" clip-path="url(#clip-path-3)">
        <path id="Path_43302" data-name="Path 43302" d="M191.948,188.09l-.227.33.1,1.615a58.616,58.616,0,0,1,4.982,22.637,18.439,18.439,0,0,1-5.255,13.514,15.288,15.288,0,0,0,7.542-3.014c4.755-3.708,2.7-26.163,2.7-26.163S194.451,193.232,191.948,188.09Z" transform="translate(-175.204 -188.09)" fill="#263238" opacity="0.3"/>
      </g>
      <path id="Path_43304" data-name="Path 43304" d="M193.924,188.09s-8.179,12.513-16.744,16.426c0,0,1.138,14.06,6.108,18.655s13.025,3.72,17.779,0,2.7-26.163,2.7-26.163S196.427,193.232,193.924,188.09Z" transform="translate(-107.869 -59.106)" fill="none" stroke="#263238" stroke-linecap="round" stroke-linejoin="round" stroke-width="1"/>
      <path id="Path_43305" data-name="Path 43305" d="M186.964,201.5a8.383,8.383,0,0,1,0,3.56c-.4,2.343-2.343,3.162.466,3.583" transform="translate(-106.665 -57.262)" fill="none" stroke="#263238" stroke-linecap="round" stroke-linejoin="round" stroke-width="1"/>
      <path id="Path_43306" data-name="Path 43306" d="M185.16,211.462s4.55,2.207,10.238-3.822" transform="translate(-106.772 -56.418)" fill="none" stroke="#263238" stroke-linecap="round" stroke-linejoin="round" stroke-width="1"/>
      <path id="Path_43307" data-name="Path 43307" d="M179.55,204.777s1.854-2.958,5.767-1.274" transform="translate(-107.544 -57.058)" fill="none" stroke="#263238" stroke-linecap="round" stroke-linejoin="round" stroke-width="1"/>
      <path id="Path_43308" data-name="Path 43308" d="M190.92,203.056s4.55-3.731,8.122-.887" transform="translate(-105.98 -57.317)" fill="none" stroke="#263238" stroke-linecap="round" stroke-linejoin="round" stroke-width="1"/>
      <path id="Path_43309" data-name="Path 43309" d="M189.66,196.972a5.926,5.926,0,0,1,7.963-1.365" transform="translate(-106.153 -58.206)" fill="none" stroke="#263238" stroke-linecap="round" stroke-linejoin="round" stroke-width="1"/>
      <circle id="Ellipse_2204" data-name="Ellipse 2204" cx="104.868" cy="104.868" r="104.868" transform="matrix(0.946, -0.324, 0.324, 0.946, 65.013, 68.04)" fill="#ef820d"/>
      <g id="Group_35095" data-name="Group 35095" transform="translate(65.013 0)" clip-path="url(#clip-path-4)">
        <path id="Path_43310" data-name="Path 43310" d="M278.217,150.9l10.693,2.218,3.64,3.777,4.743.728,1.513,4.516-1.1,3.049-3.242,1.479-7.94-1.3-.216-.967,3.754-2.616L287.476,157l-7.1-.967-3.788-3.242Z" transform="translate(-159.212 -64.22)" fill="#8f8f8f"/>
        <path id="Path_43311" data-name="Path 43311" d="M371.069,250.542l-8.475-1.422-10.238-1.3-7.53,1.672-7.371.1-7.394,3.413-4.323,1.217-2.673.592-4.448,4.118-4.425,3.026-7.474-2.673.193-7.178-4.55-.785-4.857,1.138-1.229-2.139-.478-4.482-2.275-2.059-3.3,1.24-.432,2.65-4.072,1.138-4.539-3.526-2.753-5.517,2.139-7.61,7.155-1.081L290,232.354l2.912-.648,3.162-2.992,3.413.262,6.052,6.563,1.649-.614-1.729-5.483-2.1-2.594-.546-4.721,8.133-5.892-.785-9.248,3.185-4.027,1.922-6.29,2.275-1.024,4.778-4.891-.193-1.991-3.833,1.138-1.138-1.786-2.673.6-3.913,1.888,1.24-3.595,7.963-4.323,1.467-2.616,4.55,4.55,2.673,1.695,3.185-1.729-2.161-2.832-5.9-2.446-7.28-5.267-7-2.787-6.04.33-3.572-2.275-4.1-.1-.273,1.138,1.081,7.144,1.513,2.218-.466,8.258L291.727,185v-3.56l-5.688-1.3-2.787-2.184-.125-6.347,5.9-6.666-.808-5.938-2.616.842-2.184-1.809-1.536-3.492-1.763.137-.1,4.106-2.571,1.081-3.094-8.236-2.275-.785-3.72-.705-3.413,2.81,5.961,3.606,1.888,3.913-10.238-4.618-7.53-5.21-1.945-6.45-6.745-.546-4.152,4.243a38.6,38.6,0,0,1-3.219,2.753,42,42,0,0,1-5.619,2.275v4.345l-5.54,1.49,1.081,2.559,9.316-.535,5.744,4.072,1.888,8.509-1,8.122,2.275,7.963-4.163,13.423,2.48,18.052,4.448,9.726,4.891,7.075,3.754-.33-2.059-3.708-2.594-2.48-2.4-5.073,2.082-.978,5.346,7.963,4.152,7.235,1.4,6.313,5.858,4.55,9.612,4.243,13.389.592,4.7,2.787,3.777,3.242,4.971,1.695,5.688.273,5.289-1.433s.3,2.491.569,3.7-2.218,6.108-2.218,6.108l-1.593,5.449,3.14,4.914,5.824,1,9.259,6.1,3.72.705.819,3.64.8,1.6a104.4,104.4,0,0,0,45.626-35.263l-.262-1.8,3.868-13.343-3.64-1.49Z" transform="translate(-165.92 -65.217)" fill="#8f8f8f"/>
        <path id="Path_43312" data-name="Path 43312" d="M374.222,155.017l-3.674-4.027L366,146.44l-2.594-7.064,4.55-.25-.3-2.48-3.219.455,2.4-1.809,2.548-2.343-.546-2.434-3.777-3.231-1.786-5.1a104.936,104.936,0,0,0-126.606-2.434l6.484,2.73-2.434,5.13-4.4,2,.967,6.677-1.786,1.138-1.831,3.208,1.217,4.323,4.232-.432-.785,4.55,4.129-.921,5.051-10.545-.125-4.05,6.689-2,1.058-3.287L262.017,126l-.193-4.288,5.051-1.376a26.31,26.31,0,0,1,3.947-2.923,30.383,30.383,0,0,1,4.391.307l4.3,2.1,5.1-1.138,3.777-3.64,5.688-.762a6.211,6.211,0,0,0,2.889.387c1.217-.273,4.482-2.787,4.482-2.787l8.019,2.81,3.413,1.547.808,3.64,3.754-.33.728-2.446,3.481.751.193,2-6.825,3.56,5.312,4.425,9.828,2.912,4.721,4.05,5.46-.694.671-2.7,1.831-.921-7.394-3.413-3.993.375,2.946-1.672-3.833-3.481,4.072-1.138,5.995,1.729,2.514,5.562,3.413,2.559,3.754,6.563,6.211,2.7,1.775,8.019,6.4,2.412.341,2.719v3.322l2.434,4.05.967,2.082,4.288-.193,1.035-4.55Z" transform="translate(-165.114 -71.261)" fill="#8f8f8f"/>
        <path id="Path_43313" data-name="Path 43313" d="M355.236,126.19l.307,1.4-.353,4.152,1.49,3.242,2.889.375,1.024,4.618-3.185-.569,2.184,13.286-1.729,5.995,3.413,6.37,3.8,2.207,2.912,13.127,5.426,9.5,5.13,7.018,5.915.216.865-5.289.648-.8a106.207,106.207,0,0,0-2.036-12.9A104.4,104.4,0,0,0,355.236,126.19Z" transform="translate(-148.403 -67.618)" fill="#8f8f8f"/>
        <path id="Path_43314" data-name="Path 43314" d="M309.706,136.231,292.1,132.75l-6.984,1.809-.683,4.994-3.617-2.514-5.073,2.4,1.3,8.133,5.073,2.184,2.139-5.324,4.448,2.832,8.986,4.891,3.026,6.723,8.1,6.62,9.828-3.97-1.058-3.595-3.105-3.64-2.639-9.612,1.513-4.675Z" transform="translate(-159.329 -66.716)" fill="#8f8f8f"/>
        <path id="Path_43315" data-name="Path 43315" d="M318.947,137.969l-3.856-.159-2.571,3.367,3.265,6.666,3.162-.694Z" transform="translate(-154.271 -66.02)" fill="#8f8f8f"/>
        <path id="Path_43316" data-name="Path 43316" d="M340.556,138.215l-9.237-2.537-2.343-2.548-1.786,1.16,2.776,4.482,2.867,5.995,3.97.648.512-1.126-3-3.162,6.859,1.024Z" transform="translate(-152.254 -66.664)" fill="#8f8f8f"/>
        <path id="Path_43317" data-name="Path 43317" d="M293.781,228.55l-.751,1.183,7.769.569,3.674,2.753,4.721-.535,1.115-3.049-5.813.273Z" transform="translate(-156.952 -53.542)" fill="#8f8f8f"/>
        <path id="Path_43318" data-name="Path 43318" d="M314.178,228.39l-4.778,2.582,1.16,1.786,6.325-1.4.773-2.218-2.127.728Z" transform="translate(-154.7 -53.564)" fill="#8f8f8f"/>
        <path id="Path_43319" data-name="Path 43319" d="M278.217,150.9l10.693,2.218,3.64,3.777,4.743.728,1.513,4.516-1.1,3.049-3.242,1.479-7.94-1.3-.216-.967,3.754-2.616L287.476,157l-7.1-.967-3.788-3.242Z" transform="translate(-159.212 -64.22)" fill="none" stroke="#263238" stroke-miterlimit="10" stroke-width="1"/>
        <path id="Path_43320" data-name="Path 43320" d="M371.069,250.542l-8.475-1.422-10.238-1.3-7.53,1.672-7.371.1-7.394,3.413-4.323,1.217-2.673.592-4.448,4.118-4.425,3.026-7.474-2.673.193-7.178-4.55-.785-4.857,1.138-1.229-2.139-.478-4.482-2.275-2.059-3.3,1.24-.432,2.65-4.072,1.138-4.539-3.526-2.753-5.517,2.139-7.61,7.155-1.081L290,232.354l2.912-.648,3.162-2.992,3.413.262,6.052,6.563,1.649-.614-1.729-5.483-2.1-2.594-.546-4.721,8.133-5.892-.785-9.248,3.185-4.027,1.922-6.29,2.275-1.024,4.778-4.891-.193-1.991-3.833,1.138-1.138-1.786-2.673.6-3.913,1.888,1.24-3.595,7.963-4.323,1.467-2.616,4.55,4.55,2.673,1.695,3.185-1.729-2.161-2.832-5.9-2.446-7.28-5.267-7-2.787-6.04.33-3.572-2.275-4.1-.1-.273,1.138,1.081,7.144,1.513,2.218-.466,8.258L291.727,185v-3.56l-5.688-1.3-2.787-2.184-.125-6.347,5.9-6.666-.808-5.938-2.616.842-2.184-1.809-1.536-3.492-1.763.137-.1,4.106-2.571,1.081-3.094-8.236-2.275-.785-3.72-.705-3.413,2.81,5.961,3.606,1.888,3.913-10.238-4.618-7.53-5.21-1.945-6.45-6.745-.546-4.152,4.243a38.6,38.6,0,0,1-3.219,2.753,42,42,0,0,1-5.619,2.275v4.345l-5.54,1.49,1.081,2.559,9.316-.535,5.744,4.072,1.888,8.509-1,8.122,2.275,7.963-4.163,13.423,2.48,18.052,4.448,9.726,4.891,7.075,3.754-.33-2.059-3.708-2.594-2.48-2.4-5.073,2.082-.978,5.346,7.963,4.152,7.235,1.4,6.313,5.858,4.55,9.612,4.243,13.389.592,4.7,2.787,3.777,3.242,4.971,1.695,5.688.273,5.289-1.433s.3,2.491.569,3.7-2.218,6.108-2.218,6.108l-1.593,5.449,3.14,4.914,5.824,1,9.259,6.1,3.72.705.819,3.64.8,1.6a104.4,104.4,0,0,0,45.626-35.263l-.262-1.8,3.868-13.343-3.64-1.49Z" transform="translate(-165.92 -65.217)" fill="none" stroke="#263238" stroke-miterlimit="10" stroke-width="1"/>
        <path id="Path_43321" data-name="Path 43321" d="M374.222,155.017l-3.674-4.027L366,146.44l-2.594-7.064,4.55-.25-.3-2.48-3.219.455,2.4-1.809,2.548-2.343-.546-2.434-3.777-3.231-1.786-5.1a104.936,104.936,0,0,0-126.606-2.434l6.484,2.73-2.434,5.13-4.4,2,.967,6.677-1.786,1.138-1.831,3.208,1.217,4.323,4.232-.432-.785,4.55,4.129-.921,5.051-10.545-.125-4.05,6.689-2,1.058-3.287L262.017,126l-.193-4.288,5.051-1.376a26.31,26.31,0,0,1,3.947-2.923,30.383,30.383,0,0,1,4.391.307l4.3,2.1,5.1-1.138,3.777-3.64,5.688-.762a6.211,6.211,0,0,0,2.889.387c1.217-.273,4.482-2.787,4.482-2.787l8.019,2.81,3.413,1.547.808,3.64,3.754-.33.728-2.446,3.481.751.193,2-6.825,3.56,5.312,4.425,9.828,2.912,4.721,4.05,5.46-.694.671-2.7,1.831-.921-7.394-3.413-3.993.375,2.946-1.672-3.833-3.481,4.072-1.138,5.995,1.729,2.514,5.562,3.413,2.559,3.754,6.563,6.211,2.7,1.775,8.019,6.4,2.412.341,2.719v3.322l2.434,4.05.967,2.082,4.288-.193,1.035-4.55Z" transform="translate(-165.114 -71.261)" fill="none" stroke="#263238" stroke-miterlimit="10" stroke-width="1"/>
        <path id="Path_43322" data-name="Path 43322" d="M355.236,126.19l.307,1.4-.353,4.152,1.49,3.242,2.889.375,1.024,4.618-3.185-.569,2.184,13.286-1.729,5.995,3.413,6.37,3.8,2.207,2.912,13.127,5.426,9.5,5.13,7.018,5.915.216.865-5.289.648-.8a106.207,106.207,0,0,0-2.036-12.9A104.4,104.4,0,0,0,355.236,126.19Z" transform="translate(-148.403 -67.618)" fill="none" stroke="#263238" stroke-miterlimit="10" stroke-width="1"/>
        <path id="Path_43323" data-name="Path 43323" d="M309.706,136.231,292.1,132.75l-6.984,1.809-.683,4.994-3.617-2.514-5.073,2.4,1.3,8.133,5.073,2.184,2.139-5.324,4.448,2.832,8.986,4.891,3.026,6.723,8.1,6.62,9.828-3.97-1.058-3.595-3.105-3.64-2.639-9.612,1.513-4.675Z" transform="translate(-159.329 -66.716)" fill="none" stroke="#263238" stroke-miterlimit="10" stroke-width="1"/>
        <path id="Path_43324" data-name="Path 43324" d="M318.947,137.969l-3.856-.159-2.571,3.367,3.265,6.666,3.162-.694Z" transform="translate(-154.271 -66.02)" fill="none" stroke="#263238" stroke-miterlimit="10" stroke-width="1"/>
        <path id="Path_43325" data-name="Path 43325" d="M340.556,138.215l-9.237-2.537-2.343-2.548-1.786,1.16,2.776,4.482,2.867,5.995,3.97.648.512-1.126-3-3.162,6.859,1.024Z" transform="translate(-152.254 -66.664)" fill="none" stroke="#263238" stroke-miterlimit="10" stroke-width="1"/>
        <path id="Path_43326" data-name="Path 43326" d="M293.781,228.55l-.751,1.183,7.769.569,3.674,2.753,4.721-.535,1.115-3.049-5.813.273Z" transform="translate(-156.952 -53.542)" fill="none" stroke="#263238" stroke-miterlimit="10" stroke-width="1"/>
        <path id="Path_43327" data-name="Path 43327" d="M314.178,228.39l-4.778,2.582,1.16,1.786,6.325-1.4.773-2.218-2.127.728Z" transform="translate(-154.7 -53.564)" fill="none" stroke="#263238" stroke-miterlimit="10" stroke-width="1"/>
        <path id="Path_43328" data-name="Path 43328" d="M334.042,102.54A105.675,105.675,0,0,1,208.46,251.8,105.63,105.63,0,1,0,334.042,102.54Z" transform="translate(-168.581 -70.871)" stroke="#263238" stroke-linecap="round" stroke-linejoin="round" stroke-width="1" opacity="0.2"/>
      </g>
      <circle id="Ellipse_2206" data-name="Ellipse 2206" cx="104.868" cy="104.868" r="104.868" transform="matrix(0.946, -0.324, 0.324, 0.946, 65.013, 68.04)" fill="none" stroke="#263238" stroke-miterlimit="10" stroke-width="1"/>
      <circle id="Ellipse_2207" data-name="Ellipse 2207" cx="104.868" cy="104.868" r="104.868" transform="matrix(0.946, -0.324, 0.324, 0.946, 65.013, 68.04)" fill="none" stroke="#263238" stroke-miterlimit="10" stroke-width="1" opacity="0.18"/>
      <path id="Path_43329" data-name="Path 43329" d="M201.646,226.706s-13.138-.239-20.327,4.55-5.619,8.509-3.538,12.41,7.792,4.55,17.9,2.082,22.682-9.157,30.565-14.06,33.227-32.578,33.227-32.578l6.473-3.617s7.382-1.638,9.1-2.514-.648-1.8-2.036-1.49-5.847.705-5.847.705,8.133-3.777,8.747-5.369.409-2.514-1.467-1.138-8.327,3.31-8.327,3.31,9.851-7.121,10.056-8.383-.466-2.082-1.877-.8-10.454,6.37-10.454,6.37l6.472-8.622s.2-2.582-2.275-.273a63.831,63.831,0,0,1-6.165,5.528,40.228,40.228,0,0,1-4.652,2,5.813,5.813,0,0,1,.614-3.777c.921-1.411,2.878-2.275,1.058-5.073-.512-.8-1.138.25-1.536,1.786s-4.7,6.143-4.721,7.109a69.131,69.131,0,0,0,1.866,7.337s-15.948,15.163-23.717,21.727-10.135,7.826-10.135,7.826Z" transform="translate(-108.027 -60.81)" fill="#fff"/>
      <g id="Group_35096" data-name="Group 35096" transform="translate(68.006 114.889)" clip-path="url(#clip-path-5)">
        <path id="Path_43330" data-name="Path 43330" d="M195.475,242.681c10.113-2.48,22.682-9.157,30.565-14.06,6.529-4.061,25.025-23.751,31.2-30.383l-.114-.478s-21.283,20.373-30.338,26.254-28.973,14.037-35.764,15.857a36.265,36.265,0,0,1-13.457.728C179.64,244.5,185.362,245.172,195.475,242.681Z" transform="translate(-175.822 -172.666)" fill="#263238" opacity="0.3"/>
      </g>
      <path id="Path_43332" data-name="Path 43332" d="M201.646,226.706s-13.138-.239-20.327,4.55-5.619,8.509-3.538,12.41,7.792,4.55,17.9,2.082,22.682-9.157,30.565-14.06,33.227-32.578,33.227-32.578l6.473-3.617s7.382-1.638,9.1-2.514-.648-1.8-2.036-1.49-5.847.705-5.847.705,8.133-3.777,8.747-5.369.409-2.514-1.467-1.138-8.327,3.31-8.327,3.31,9.851-7.121,10.056-8.383-.466-2.082-1.877-.8-10.454,6.37-10.454,6.37l6.472-8.622s.2-2.582-2.275-.273a63.831,63.831,0,0,1-6.165,5.528,40.228,40.228,0,0,1-4.652,2,5.813,5.813,0,0,1,.614-3.777c.921-1.411,2.878-2.275,1.058-5.073-.512-.8-1.138.25-1.536,1.786s-4.7,6.143-4.721,7.109a69.131,69.131,0,0,0,1.866,7.337s-15.948,15.163-23.717,21.727-10.135,7.826-10.135,7.826Z" transform="translate(-108.027 -60.81)" fill="none" stroke="#263238" stroke-linecap="round" stroke-linejoin="round" stroke-width="1"/>
      <path id="Path_43333" data-name="Path 43333" d="M204.923,411.329l-5.858,3-5.335-6.552c-1.411,3.777-4.8,7.963-4.709,9.475.114,1.911,9.9,8.019,13.434,11.807s10.5,6.154,11.114,4.061-5.631-7.963-6.689-13.491C206.458,417.6,205.708,414.628,204.923,411.329Z" transform="translate(-106.241 -28.895)" fill="#b2b2b2" stroke="#263238" stroke-linecap="round" stroke-linejoin="round" stroke-width="1"/>
    </g>
  </g>
</svg>
