<svg xmlns="http://www.w3.org/2000/svg" width="35.336" height="35.247" viewBox="0 0 35.336 35.247">
  <path id="Icon_material-slow-motion-video" data-name="Icon material-slow-motion-video" d="M22.558,16.784l-5.4-4.056V28.669l5.4-4.056L27.784,20.7Zm0,0-5.4-4.056V28.669l5.4-4.056L27.784,20.7Zm0,0-5.4-4.056V28.669l5.4-4.056L27.784,20.7ZM18.927,6.653V3.075A17.622,17.622,0,0,0,9.5,6.989L12.02,9.522a14.066,14.066,0,0,1,6.908-2.869ZM9.522,12.02,6.989,9.5a17.622,17.622,0,0,0-3.914,9.423H6.653A14.066,14.066,0,0,1,9.522,12.02ZM6.653,22.47H3.075a17.622,17.622,0,0,0,3.914,9.423L9.522,29.36a13.936,13.936,0,0,1-2.869-6.89ZM9.5,34.408a17.679,17.679,0,0,0,9.423,3.914V34.745a14.065,14.065,0,0,1-6.908-2.869L9.5,34.408ZM38.411,20.7A17.739,17.739,0,0,1,22.558,38.322V34.745a14.168,14.168,0,0,0,0-28.092V3.075A17.739,17.739,0,0,1,38.411,20.7Z" transform="translate(-3.075 -3.075)" fill="#fff"/>
</svg>
