<svg xmlns="http://www.w3.org/2000/svg" width="18" height="18" viewBox="0 0 18 18">
  <path id="Icon_material-public" data-name="Icon material-public" d="M12,3a9,9,0,1,0,9,9A9,9,0,0,0,12,3Zm-.9,16.137A7.19,7.19,0,0,1,4.8,12a7.306,7.306,0,0,1,.189-1.611L9.3,14.7v.9a1.805,1.805,0,0,0,1.8,1.8Zm6.21-2.286A1.786,1.786,0,0,0,15.6,15.6h-.9V12.9a.9.9,0,0,0-.9-.9H8.4V10.2h1.8a.9.9,0,0,0,.9-.9V7.5h1.8a1.805,1.805,0,0,0,1.8-1.8V5.331a7.184,7.184,0,0,1,2.61,11.52Z" transform="translate(-3 -3)" fill="#fff"/>
</svg>
