<svg id="Group_35125" data-name="Group 35125" xmlns="http://www.w3.org/2000/svg" xmlns:xlink="http://www.w3.org/1999/xlink" width="15.98" height="15.981" viewBox="0 0 15.98 15.981">
  <defs>
    <clipPath id="clip-path">
      <rect id="Rectangle_19297" data-name="Rectangle 19297" width="15.98" height="15.981" fill="#fff"/>
    </clipPath>
  </defs>
  <g id="Group_35122" data-name="Group 35122" clip-path="url(#clip-path)">
    <path id="Path_43561" data-name="Path 43561" d="M0,8.8V4.526c.009-.05.021-.1.026-.151a4.629,4.629,0,0,1,1.137-2.7A4.748,4.748,0,0,1,4.906,0c2.023,0,4.046,0,6.068,0a6.132,6.132,0,0,1,.947.064A4.687,4.687,0,0,1,15.2,2.185,4.8,4.8,0,0,1,15.98,4.93q-.005,1.731,0,3.463a4.823,4.823,0,0,1-.786,2.744,4.761,4.761,0,0,1-2.671,1.982,5.694,5.694,0,0,1-1.712.2,6.962,6.962,0,0,0-3.206.729,7.811,7.811,0,0,0-2.134,1.628,3.8,3.8,0,0,1-.384.308H4.869a.56.56,0,0,1-.345-.6c.012-.634,0-1.268,0-1.9V13.31c-.043-.006-.067-.011-.092-.013a4.676,4.676,0,0,1-2.376-.848A4.665,4.665,0,0,1,.184,9.794C.1,9.47.06,9.133,0,8.8M7.986,7.717A1.062,1.062,0,0,0,9.052,6.661a1.062,1.062,0,1,0-2.124-.008A1.062,1.062,0,0,0,7.986,7.717m-3.462,0A1.06,1.06,0,0,0,5.59,6.661,1.062,1.062,0,1,0,4.525,7.717m6.923,0a1.065,1.065,0,0,0,1.068-1.055,1.062,1.062,0,1,0-2.125-.009,1.059,1.059,0,0,0,1.056,1.065" transform="translate(0 0)" fill="#fff"/>
  </g>
</svg>
