<svg id="Group_35126" data-name="Group 35126" xmlns="http://www.w3.org/2000/svg" xmlns:xlink="http://www.w3.org/1999/xlink" width="12.063" height="15.981" viewBox="0 0 12.063 15.981">
  <defs>
    <clipPath id="clip-path">
      <rect id="Rectangle_19289" data-name="Rectangle 19289" width="12.063" height="15.981" fill="#fff"/>
    </clipPath>
  </defs>
  <g id="Group_35120" data-name="Group 35120" clip-path="url(#clip-path)">
    <path id="Path_43559" data-name="Path 43559" d="M.915,15.981H.6a.844.844,0,0,1-.581-.7,1.851,1.851,0,0,1-.015-.3C.007,10.473.015,5.964,0,1.456A1.456,1.456,0,0,1,1.447,0q4.611,0,9.221,0a1.357,1.357,0,0,1,1.393,1.39q0,6.833,0,13.666a.872.872,0,0,1-.565.922h-.312a7.823,7.823,0,0,1-.714-.482c-1.284-1.082-2.559-2.174-3.838-3.262a.811.811,0,0,0-1.13,0q-1.915,1.624-3.827,3.25a2.314,2.314,0,0,1-.76.5" transform="translate(0 0)" fill="#fff"/>
  </g>
</svg>
