<svg id="Group_35197" data-name="Group 35197" xmlns="http://www.w3.org/2000/svg" xmlns:xlink="http://www.w3.org/1999/xlink" width="24.171" height="27.597" viewBox="0 0 24.171 27.597">
  <defs>
    <clipPath id="clip-path">
      <rect id="Rectangle_19370" data-name="Rectangle 19370" width="24.171" height="27.597" fill="#fff"/>
    </clipPath>
  </defs>
  <g id="Group_35197-2" data-name="Group 35197" clip-path="url(#clip-path)">
    <path id="Path_44037" data-name="Path 44037" d="M12.514,0c.2.042.4.079.6.128a4.258,4.258,0,0,1,2.017,1.133c2.593,2.589,5.194,5.17,7.769,7.778a4.079,4.079,0,0,1,1.077,4.22A4.03,4.03,0,0,1,20.9,16.237a4.356,4.356,0,0,1-4.231-1.208c-.081-.078-.161-.157-.278-.272v.328q0,4.069,0,8.137a4.3,4.3,0,0,1-3.515,4.3c-.122.025-.243.052-.364.078h-.862c-.209-.046-.42-.085-.627-.138a4.3,4.3,0,0,1-3.253-4.181q-.007-4.1,0-8.192V14.74c-.121.124-.2.206-.279.284A4.294,4.294,0,0,1,3.244,16.23,4.092,4.092,0,0,1,.16,13.157a4.11,4.11,0,0,1,.975-3.98c.459-.516.968-.988,1.457-1.477Q5.725,4.565,8.857,1.428a4.485,4.485,0,0,1,2.7-1.389.42.42,0,0,0,.1-.039Zm2.154,18.051h0q0-2.627,0-5.255a1.475,1.475,0,0,1,.027-.347.865.865,0,0,1,1.487-.377c.65.633,1.264,1.3,1.937,1.911a2.434,2.434,0,0,0,2.78.438,2.594,2.594,0,0,0,.691-4.269C19.05,7.637,16.533,5.1,14,2.572a3.208,3.208,0,0,0-.54-.443,2.583,2.583,0,0,0-3.294.435q-3.252,3.246-6.5,6.5c-.432.432-.876.853-1.286,1.3a2.565,2.565,0,0,0-.008,3.4,2.5,2.5,0,0,0,3.35.433c.5-.39.952-.845,1.415-1.281.314-.3.6-.62.916-.913a.807.807,0,0,1,.929-.138.837.837,0,0,1,.51.791c0,.09,0,.18,0,.269q0,5.161,0,10.321a2.584,2.584,0,1,0,5.168.059c.016-1.752,0-3.5,0-5.255" transform="translate(0)" fill="#fff"/>
  </g>
</svg>
