<svg id="Group_35123" data-name="Group 35123" xmlns="http://www.w3.org/2000/svg" xmlns:xlink="http://www.w3.org/1999/xlink" width="28.124" height="28.125" viewBox="0 0 28.124 28.125">
  <defs>
    <clipPath id="clip-path">
      <rect id="Rectangle_19297" data-name="Rectangle 19297" width="28.124" height="28.125" fill="#fff"/>
    </clipPath>
  </defs>
  <g id="Group_35122" data-name="Group 35122" clip-path="url(#clip-path)">
    <path id="Path_43561" data-name="Path 43561" d="M0,15.491V7.966c.015-.089.037-.177.045-.267a8.147,8.147,0,0,1,2-4.744A8.355,8.355,0,0,1,8.635,0c3.56,0,7.12,0,10.68,0a10.792,10.792,0,0,1,1.667.113,8.248,8.248,0,0,1,5.765,3.727,8.438,8.438,0,0,1,1.377,4.832q-.009,3.047,0,6.095A8.489,8.489,0,0,1,26.74,19.6a8.379,8.379,0,0,1-4.7,3.488,10.021,10.021,0,0,1-3.013.345,12.253,12.253,0,0,0-5.642,1.283,13.747,13.747,0,0,0-3.755,2.865,6.693,6.693,0,0,1-.675.543H8.569a.986.986,0,0,1-.608-1.051c.021-1.116.006-2.232.006-3.348v-.3c-.075-.011-.119-.02-.162-.023a8.229,8.229,0,0,1-4.182-1.493,8.21,8.21,0,0,1-3.3-4.672C.17,16.667.106,16.073,0,15.491m14.055-1.909a1.869,1.869,0,0,0,1.877-1.859,1.869,1.869,0,1,0-3.739-.014,1.868,1.868,0,0,0,1.862,1.873m-6.092,0a1.865,1.865,0,0,0,1.875-1.858,1.87,1.87,0,1,0-1.875,1.858m12.183,0a1.874,1.874,0,0,0,1.88-1.857,1.87,1.87,0,1,0-3.739-.017,1.864,1.864,0,0,0,1.859,1.874" transform="translate(0 0)" fill="#fff"/>
  </g>
</svg>
