<svg id="Group_35133" data-name="Group 35133" xmlns="http://www.w3.org/2000/svg" xmlns:xlink="http://www.w3.org/1999/xlink" width="21.23" height="28.125" viewBox="0 0 21.23 28.125">
  <defs>
    <clipPath id="clip-path">
      <rect id="Rectangle_19289" data-name="Rectangle 19289" width="21.23" height="28.125" fill="#fff"/>
    </clipPath>
  </defs>
  <g id="Group_35120" data-name="Group 35120" clip-path="url(#clip-path)">
    <path id="Path_43559" data-name="Path 43559" d="M1.611,28.125H1.062A1.486,1.486,0,0,1,.04,26.886a3.257,3.257,0,0,1-.027-.52C.012,18.431.026,10.5,0,2.562A2.563,2.563,0,0,1,2.547,0q8.114.009,16.229,0a2.388,2.388,0,0,1,2.451,2.447q.005,12.026,0,24.051a1.534,1.534,0,0,1-1,1.623h-.549a13.767,13.767,0,0,1-1.257-.849c-2.26-1.9-4.5-3.827-6.754-5.741a1.428,1.428,0,0,0-1.989-.006q-3.37,2.858-6.736,5.72a4.072,4.072,0,0,1-1.338.876" transform="translate(0 0)" fill="#fff"/>
  </g>
</svg>
