<svg id="Group_35113" data-name="Group 35113" xmlns="http://www.w3.org/2000/svg" xmlns:xlink="http://www.w3.org/1999/xlink" width="32.346" height="21.028" viewBox="0 0 32.346 21.028">
  <defs>
    <clipPath id="clip-path">
      <rect id="Rectangle_19284" data-name="Rectangle 19284" width="32.346" height="21.028" fill="#fff"/>
    </clipPath>
  </defs>
  <g id="Group_35113-2" data-name="Group 35113" clip-path="url(#clip-path)">
    <path id="Path_43552" data-name="Path 43552" d="M0,15.367V14.1a1.053,1.053,0,0,0,.055-.176,6.271,6.271,0,0,1,4.79-5.3.387.387,0,0,0,.347-.359A10.506,10.506,0,0,1,24.584,5.323a.52.52,0,0,0,.346.236,7.735,7.735,0,0,1,7.19,5.889c.093.375.152.759.226,1.139v1.39a1.5,1.5,0,0,0-.056.21A7.675,7.675,0,0,1,24.842,21c-2.515.056-5.031.017-7.547.019a1.1,1.1,0,0,1-.15-.02v-7.9c.67.67,1.3,1.3,1.933,1.931a.946.946,0,0,0,1.382.062.956.956,0,0,0-.03-1.383q-1.769-1.782-3.55-3.551a.934.934,0,0,0-1.4-.008q-1.793,1.78-3.573,3.573a.953.953,0,0,0-.025,1.36.94.94,0,0,0,1.359-.023c.58-.566,1.148-1.145,1.722-1.717.07-.07.147-.134.246-.225V21a1.247,1.247,0,0,1-.143.019c-3.021,0-6.043.034-9.063-.023A6.179,6.179,0,0,1,.25,16.469c-.1-.362-.167-.734-.25-1.1" transform="translate(0 0.001)" fill="#fff"/>
  </g>
</svg>
