<svg id="Group_35114" data-name="Group 35114" xmlns="http://www.w3.org/2000/svg" xmlns:xlink="http://www.w3.org/1999/xlink" width="24.793" height="28.732" viewBox="0 0 24.793 28.732">
  <defs>
    <clipPath id="clip-path">
      <rect id="Rectangle_19285" data-name="Rectangle 19285" width="24.793" height="28.732" fill="#9c9c9c"/>
    </clipPath>
  </defs>
  <g id="Group_35114-2" data-name="Group 35114" clip-path="url(#clip-path)">
    <path id="Path_43553" data-name="Path 43553" d="M12.417,24.818q-4.817,0-9.635,0a2.656,2.656,0,0,1-2.723-2.13A2.624,2.624,0,0,1,.481,20.62c.658-.982,1.315-1.965,1.958-2.956a.985.985,0,0,0,.15-.505c.009-2.427,0-4.853.007-7.28A9.783,9.783,0,0,1,21.917,7.624a11.774,11.774,0,0,1,.247,2.3c.031,2.406.008,4.812.018,7.218a1.037,1.037,0,0,0,.161.532c.628.965,1.27,1.921,1.913,2.876a2.683,2.683,0,0,1-2.3,4.267q-4.772,0-9.543,0" transform="translate(0 0)" fill="#9c9c9c"/>
    <path id="Path_43554" data-name="Path 43554" d="M114.106,319.768a3.873,3.873,0,0,1-7.311,0Z" transform="translate(-98.065 -293.63)" fill="#9c9c9c"/>
  </g>
</svg>
