<svg id="Icon_feather-mic" data-name="Icon feather-mic" xmlns="http://www.w3.org/2000/svg" width="19" height="28.429" viewBox="0 0 19 28.429">
  <path id="Path_11064" data-name="Path 11064" d="M17.036.25a4.791,4.791,0,0,1,4.786,4.786v9.429a4.786,4.786,0,0,1-9.571,0V5.036A4.791,4.791,0,0,1,17.036.25Zm0,16.5a2.288,2.288,0,0,0,2.286-2.286V5.036a2.286,2.286,0,0,0-4.571,0v9.429A2.288,2.288,0,0,0,17.036,16.75Z" transform="translate(-7.536 -0.25)" fill="#6d6d6d"/>
  <path id="Path_11065" data-name="Path 11065" d="M15.75,26.857a9.511,9.511,0,0,1-9.5-9.5V15a1.25,1.25,0,0,1,2.5,0v2.357a7,7,0,0,0,14,0V15a1.25,1.25,0,0,1,2.5,0v2.357a9.5,9.5,0,0,1-9.5,9.5Z" transform="translate(-6.25 -3.143)" fill="#6d6d6d"/>
  <path id="Path_11066" data-name="Path 11066" d="M18,34.464a1.25,1.25,0,0,1-1.25-1.25V28.5a1.25,1.25,0,1,1,2.5,0v4.714A1.25,1.25,0,0,1,18,34.464Z" transform="translate(-8.5 -6.036)" fill="#6d6d6d"/>
  <path id="Path_11067" data-name="Path 11067" d="M21.429,35.75H12a1.25,1.25,0,0,1,0-2.5h9.429a1.25,1.25,0,0,1,0,2.5Z" transform="translate(-7.214 -7.321)" fill="#6d6d6d"/>
</svg>
