<svg xmlns="http://www.w3.org/2000/svg" width="16.242" height="31.507" viewBox="0 0 16.242 31.507">
  <path id="Icon_ionic-ios-attach" data-name="Icon ionic-ios-attach" d="M25.024,11.327a1.1,1.1,0,0,0-1.1,1.1V26.093a5.67,5.67,0,0,1-1.547,3.874,5.565,5.565,0,0,1-3.9,1.666h-.956a5.465,5.465,0,0,1-3.853-1.73,5.645,5.645,0,0,1-1.68-3.881V8.388A3.821,3.821,0,0,1,13.2,5.611a4.184,4.184,0,0,1,2.883-1.146,3.913,3.913,0,0,1,3.952,3.923V24.855A2.222,2.222,0,0,1,18,27.119a2.161,2.161,0,0,1-1.983-2.264V15.462a1.1,1.1,0,0,0-2.194,0v9.394A4.218,4.218,0,0,0,21,28.019a4.441,4.441,0,0,0,1.23-3.164V8.388A6.146,6.146,0,0,0,16.066,2.25a6.17,6.17,0,0,0-4.373,1.793A6.066,6.066,0,0,0,9.872,8.4V26.03a7.858,7.858,0,0,0,2.292,5.484,7.6,7.6,0,0,0,5.351,2.243h.956A7.68,7.68,0,0,0,23.808,31.5a7.9,7.9,0,0,0,1.68-2.433,7.361,7.361,0,0,0,.626-2.96V12.424A1.088,1.088,0,0,0,25.024,11.327Z" transform="translate(-9.872 -2.25)" fill="#6d6d6d"/>
</svg>
