<svg id="Icon_feather-video" data-name="Icon feather-video" xmlns="http://www.w3.org/2000/svg" width="35.5" height="23.5" viewBox="0 0 35.5 23.5">
  <path id="Path_10571" data-name="Path 10571" d="M34.5,9.25a1.25,1.25,0,0,1,1.25,1.25v15a1.25,1.25,0,0,1-1.977,1.017l-10.5-7.5a1.25,1.25,0,0,1,0-2.034l10.5-7.5A1.249,1.249,0,0,1,34.5,9.25ZM33.25,23.071V12.929L26.151,18Z" transform="translate(-0.25 -6.25)" fill="#6d6d6d"/>
  <path id="Path_10572" data-name="Path 10572" d="M4.5,6.25H21a4.255,4.255,0,0,1,4.25,4.25v15A4.255,4.255,0,0,1,21,29.75H4.5A4.255,4.255,0,0,1,.25,25.5v-15A4.255,4.255,0,0,1,4.5,6.25Zm16.5,21a1.752,1.752,0,0,0,1.75-1.75v-15A1.752,1.752,0,0,0,21,8.75H4.5A1.752,1.752,0,0,0,2.75,10.5v15A1.752,1.752,0,0,0,4.5,27.25Z" transform="translate(-0.25 -6.25)" fill="#6d6d6d"/>
</svg>
