<svg id="Group_35176" data-name="Group 35176" xmlns="http://www.w3.org/2000/svg" xmlns:xlink="http://www.w3.org/1999/xlink" width="86.615" height="107.435" viewBox="0 0 86.615 107.435">
  <defs>
    <clipPath id="clip-path">
      <rect id="Rectangle_19348" data-name="Rectangle 19348" width="86.615" height="107.435" fill="#ef820d"/>
    </clipPath>
  </defs>
  <g id="Group_35176-2" data-name="Group 35176" clip-path="url(#clip-path)">
    <path id="Path_43823" data-name="Path 43823" d="M19.346,115.546c-.276-.128-.5-.227-.725-.338a5.026,5.026,0,0,1-3.021-4.524,4.885,4.885,0,0,1,2.721-4.693,1.38,1.38,0,0,0,.752-1.233c.457-2.789-.612-4.628-2.917-6.288A42.885,42.885,0,0,1,6.328,89.1C-6.371,71.7.844,46.523,20.823,38.47a39.664,39.664,0,0,1,17.225-2.412v15.53c-1.027,0-2.057-.005-3.087,0a3.476,3.476,0,1,0-.046,6.928c1.008.009,2.016,0,3.143,0v8.6h6.87c.86-4.5,3.37-6.9,7.132-6.86,3.665.042,6.179,2.528,6.927,6.928H69.377c-.13,2.267-.111,4.5-.41,6.686a33.239,33.239,0,0,1-12.79,22.193c-1.778,1.415-3.546,2.847-5.257,4.341a3.011,3.011,0,0,0-.673,1.43,6.185,6.185,0,0,0-.025,1.185,3.5,3.5,0,0,0,1.574,3.64c2.977,2.12,2.373,6.667-.861,8.4-.314.168-.64.312-.66.543a14.87,14.87,0,0,1-.6,3.928c-.435,1-1.566,1.692-2.365,2.542a2.533,2.533,0,0,0-.744,1.033,12.129,12.129,0,0,1-23.854,0,1.5,1.5,0,0,0-.564-.922c-2.746-1.682-3.49-3.358-2.8-6.634m3.164-10.319H34.592V91.545c-4.5-.843-6.924-3.369-6.882-7.134.041-3.664,2.513-6.168,6.864-6.922v-6.87H24.242c0-1.124.007-2.13,0-3.136a3.475,3.475,0,1,0-6.926,0c-.008,1.032,0,2.065,0,3.223H3.458A29.978,29.978,0,0,0,14.469,92.694q3.567,2.987,7.214,5.879a1.978,1.978,0,0,1,.845,1.822c-.061,1.582-.018,3.168-.018,4.831M65.779,70.639H55.424c0-1.167.01-2.208,0-3.249a3.467,3.467,0,1,0-6.924-.03c-.014,1.07,0,2.14,0,3.325H38.078V81.046c-1.077,0-2.078,0-3.078,0-2.28.012-3.849,1.453-3.825,3.508a3.515,3.515,0,0,0,3.805,3.421c1.029.006,2.058,0,3.12,0v17.256h8.662c0-1.69.03-3.31-.014-4.927a1.8,1.8,0,0,1,.748-1.646c2.153-1.7,4.237-3.48,6.385-5.184A31.021,31.021,0,0,0,63.16,81.827a29.771,29.771,0,0,0,2.619-11.188M3.67,67.124H13.786c.558-4.1,3.068-6.691,6.6-6.86a6.822,6.822,0,0,1,4.555,1.4,7.175,7.175,0,0,1,2.813,5.445h6.837V62.087c-4.492-.834-6.923-3.367-6.881-7.134.041-3.661,2.515-6.168,6.926-6.931V39.555C18.031,38.648,4.277,52.278,3.67,67.124M34.7,108.77q-6.766,0-13.532,0c-1.344,0-2.144.688-2.116,1.771.027,1.047.8,1.688,2.091,1.689q13.478.008,26.956,0a2.978,2.978,0,0,0,.647-.03,1.655,1.655,0,0,0,1.457-1.743,1.636,1.636,0,0,0-1.432-1.653,4.664,4.664,0,0,0-.971-.036q-6.55,0-13.1,0m8.329,13.922H26.244a8.563,8.563,0,0,0,16.788,0m-8.418-3.528c3.428,0,6.856.014,10.284-.008a1.722,1.722,0,0,0,1.856-1.7,1.7,1.7,0,0,0-1.812-1.743q-10.284-.026-20.568-.009a1.717,1.717,0,0,0-1.792,1.282c-.36,1.159.547,2.17,1.964,2.176,3.356.014,6.712,0,10.067,0" transform="translate(0 -25.592)" fill="#ef820d"/>
    <path id="Path_43824" data-name="Path 43824" d="M183.742,31.141c0-1.137.015-2.212,0-3.286a3.464,3.464,0,1,0-6.922.023c-.016,1.073,0,2.145,0,3.266H163V22.591a7.262,7.262,0,0,1-5.56-2.819,6.822,6.822,0,0,1-1.4-4.552c.162-3.543,2.8-6.1,6.918-6.61,0-1.055-.008-2.128,0-3.2a5.181,5.181,0,0,1,5.376-5.4q11.956-.022,23.912,0a5.15,5.15,0,0,1,5.35,5.311q.031,10.281,0,20.563a5.16,5.16,0,0,1-5.25,5.3c-2.7.028-5.41,0-8.115,0-.106,0-.213-.021-.487-.05M166.42,12.135c-1.169,0-2.177-.007-3.185,0a3.476,3.476,0,1,0,.043,6.928c1.03.007,2.06,0,3.141,0v8.606h6.862c.591-4.165,3.132-6.747,6.712-6.865a6.825,6.825,0,0,1,4.534,1.467,7.239,7.239,0,0,1,2.733,5.456c1.618,0,3.165.008,4.713,0s2.16-.614,2.162-2.169q.009-9.963,0-19.925c0-1.55-.613-2.159-2.169-2.159q-11.693-.008-23.385,0c-1.551,0-2.152.611-2.158,2.169-.009,2.122,0,4.245,0,6.492" transform="translate(-110.996 0)" fill="#ef820d"/>
  </g>
</svg>
