<svg id="Group_35116" data-name="Group 35116" xmlns="http://www.w3.org/2000/svg" xmlns:xlink="http://www.w3.org/1999/xlink" width="30.358" height="30.159" viewBox="0 0 30.358 30.159">
  <defs>
    <clipPath id="clip-path">
      <rect id="Rectangle_19286" data-name="Rectangle 19286" width="30.358" height="30.159" fill="#1e1e1e"/>
    </clipPath>
  </defs>
  <g id="Group_35115" data-name="Group 35115" clip-path="url(#clip-path)">
    <path id="Path_43555" data-name="Path 43555" d="M.005,18.461c0-2.751.009-5.5,0-8.253A2.422,2.422,0,0,1,1.278,7.956Q7.588,4.186,13.884.394A2.334,2.334,0,0,1,16.467.386q6.331,3.8,12.665,7.6a2.362,2.362,0,0,1,1.226,2.175q-.008,8.235,0,16.47a3.375,3.375,0,0,1-3.538,3.527q-2.651,0-5.3,0a2.251,2.251,0,0,1-2.4-2.392q0-2.932,0-5.865a1.15,1.15,0,0,0-1.294-1.3q-2.651,0-5.3,0a1.14,1.14,0,0,0-1.271,1.283q0,2.932,0,5.865a2.254,2.254,0,0,1-2.421,2.406q-2.651,0-5.3,0A3.375,3.375,0,0,1,.006,26.643q0-4.091,0-8.182" transform="translate(0 0)" fill="#1e1e1e"/>
  </g>
</svg>
