<svg id="Group_35170" data-name="Group 35170" xmlns="http://www.w3.org/2000/svg" xmlns:xlink="http://www.w3.org/1999/xlink" width="30.357" height="30.37" viewBox="0 0 30.357 30.37">
  <defs>
    <clipPath id="clip-path">
      <rect id="Rectangle_19340" data-name="Rectangle 19340" width="30.357" height="30.37" fill="#1e1e1e"/>
    </clipPath>
  </defs>
  <g id="Group_35168" data-name="Group 35168" clip-path="url(#clip-path)">
    <path id="Path_43763" data-name="Path 43763" d="M14.285,0h1.779a2.746,2.746,0,0,0,.289.052A14.794,14.794,0,0,1,22.145,1.7a15.145,15.145,0,0,1,6.427,6.358,14.225,14.225,0,0,1,1.615,4.95c.067.506.115,1.014.171,1.521v1.542c-.017.076-.039.152-.05.228-.083.606-.13,1.219-.252,1.817A14.828,14.828,0,0,1,24.014,27.5a14.668,14.668,0,0,1-11.461,2.622,14.794,14.794,0,0,1-9.616-5.98,14.675,14.675,0,0,1-2.9-7.9A15.161,15.161,0,0,1,4.764,4.156,14.864,14.864,0,0,1,12.529.239C13.11.135,13.7.078,14.285,0M24.421,4.79A13.816,13.816,0,0,0,7.079,3.908,2.842,2.842,0,0,1,8.7,4.361l-.024.087h.877c-.164-.5-.6-.165-.847-.328.157-.295.109-.373-.244-.374H8.1A3.18,3.18,0,0,1,8.743,3.2a.953.953,0,0,1,1.049.2.618.618,0,0,0,1,.076c.153-.154.269-.159.395-.018a.954.954,0,0,1-1.119.5l.058.486c.226,0,.433.005.639,0,.073,0,.2-.018.209-.058.076-.219.256-.194.415-.193.267,0,.345-.122.291-.362l-.279-.08c.118-.394.6-.5,1.2-.289-.374.44-.465.589-.358.675a2.1,2.1,0,0,0,.543.222c-.012-.228-.029-.375-.024-.52,0-.07.028-.177.075-.2a4.32,4.32,0,0,1,.624-.252,2.02,2.02,0,0,1,1.5.258c.326.152.655.257.5.722l.391.121c-.055.282-.187.44-.484.386a.291.291,0,0,0-.379.26.921.921,0,0,1-.095.191l-1.309-.315,1.059-.587c-.2-.128-.351-.3-.5-.3a2.826,2.826,0,0,0-.912.177,3.939,3.939,0,0,0-.7.443l.109.2-.643.35-.143-.522c-.591.322-1.142.619-1.689.925a.209.209,0,0,0-.084.162.693.693,0,0,0,.631.664c.172.024.343.053.531.083v.847c.172-.122.334-.176.368-.274a.889.889,0,0,1,.764-.634c.169-.025.23-.116.219-.285-.013-.187-.007-.376,0-.563s.307-.487.49-.452c.3.057.59.139.9.214-.017.215-.032.406-.055.694l1.009-.41a3.052,3.052,0,0,0,.008.559.521.521,0,0,0,.2.344.51.51,0,0,1,.3.7c-.018.011-.043.027-.069.041l-.39.214a2.03,2.03,0,0,0,.372.248c.231.091.3.224.183.489-.223-.066-.448-.128-.671-.2-.3-.093-.313-.172-.122-.422.049-.064.024-.185.033-.28a.643.643,0,0,0-.228.084.624.624,0,0,1-.745-.014.716.716,0,0,0-.425-.111c-.055,0-.152.126-.158.2s.084.151.153.194a1.208,1.208,0,0,0,.292.087l-.23.267c-.208-.272-.381-.163-.559.026a2.486,2.486,0,0,1-.617.59A4.9,4.9,0,0,0,10.9,9.91c-.045.048-.1.118-.1.174.02.294-.182.413-.389.537-.144.086-.282.183-.42.278a.9.9,0,0,0-.505,1,1.4,1.4,0,0,1,0,.306c-.411-.086-.675-.256-.554-.729a10.54,10.54,0,0,0-1.605.021,1.753,1.753,0,0,0-.917.492,3.13,3.13,0,0,0-.432.895c-.134.293.038.521.184.732.094.136.669.106.84-.007l.853-.563c.281.386-.133.626-.162.942l.765.144a5.4,5.4,0,0,1,.056.816c-.028.356.127.437.45.517a.889.889,0,0,0,1.141-.414.448.448,0,0,1,.614-.23c.221.084.484.033.646.291a.711.711,0,0,0,1.059-.012c.372.061.537.349.687.639a.567.567,0,0,0,.606.344c.534-.026.6.026.776.513a1.515,1.515,0,0,1,.071.524c0,.182.089.244.238.315a3.517,3.517,0,0,0,1.73.3c.1,0,.256.02.287.081a1.043,1.043,0,0,0,.831.668c.034.463-.267.717-.479,1.02a1.164,1.164,0,0,0-.206.441,5.917,5.917,0,0,0-.108,1.03.854.854,0,0,1-.4.731c-.24.186-.489.115-.736.114a.408.408,0,0,0-.38.2.7.7,0,0,0-.031.705.7.7,0,0,1-.172.771,3.655,3.655,0,0,0-.638.85c-.262.561-.773.681-1.272.854a3.508,3.508,0,0,0-.359.171c.1.067.209.134.312.2a.746.746,0,0,1,.08.1l-.418.566.614.276a.316.316,0,0,1,0,.146.77.77,0,0,0,.363,1.105c.039.024-.031.316-.04.315-.322-.021-.654.106-.96-.151a4.363,4.363,0,0,1-1.06-1.292,1.23,1.23,0,0,1-.178-.9,1.094,1.094,0,0,0-.28-1.057.615.615,0,0,1-.1-.419c.021-.283.087-.563.137-.865-.274-.03-.294-.2-.29-.421.012-.613.009-1.226,0-1.838a.386.386,0,0,0-.1-.282c-.334-.219-.687-.411-1.03-.616-.061-.036-.156-.09-.159-.139a1.657,1.657,0,0,0-.6-.993,1.474,1.474,0,0,1-.437-1.339c.073-.44.166-.764.577-.949.19-.086.2-.233.179-.415-.081-.605-.077-.618-.694-.636a.8.8,0,0,1-.727-.357,1.76,1.76,0,0,0-1.438-.851c-.025,0-.048-.03-.078-.05l.027-.37c-.184.042-.333.075-.482.11-.044.01-.092.046-.129.036-.544-.145-1.174-.125-1.443-.793-.062-.154-.131-.26-.027-.426a.348.348,0,0,0-.017-.307A2.813,2.813,0,0,1,3.7,10.995h-.3a2.031,2.031,0,0,0,.457,1.389A1.652,1.652,0,0,1,4,12.87l-.1.072c-.155-.063-.374-.081-.452-.2a1.917,1.917,0,0,1-.508-1.493.521.521,0,0,0,0-.264c-.034-.1-.094-.236-.171-.258a.533.533,0,0,1-.4-.691,1.812,1.812,0,0,0,0-.223A13.885,13.885,0,0,0,25.919,23.976l-.4-.032c0-.249.011-.485,0-.72a.54.54,0,0,0-.1-.323,1.529,1.529,0,0,1-.422-1.353.606.606,0,0,0-.225-.572.627.627,0,0,1-.125-.8c.1-.2.2-.409.319-.6a.37.37,0,0,0-.012-.433c-.257-.433-.509-.87-.743-1.315a.868.868,0,0,1-.083-.415c.009-.311.048-.621.076-.943-.262-.031-.487-.051-.71-.086a.513.513,0,0,1-.238-.093.729.729,0,0,0-1.06-.043.621.621,0,0,1-.274.072c-.326.038-.652.073-.979.1a.686.686,0,0,1-.705-.243,8.528,8.528,0,0,0-.859-.981c-.438-.432-.168-.952-.22-1.431,0-.019.03-.052.053-.061.249-.1.175-.311.2-.492-.3-.05-.286-.055-.368-.308-.07-.218.082-.279.2-.369.359-.262.715-.53,1.084-.777a.418.418,0,0,0,.209-.416c-.009-.174-.05-.441.041-.508a1.4,1.4,0,0,1,.914-.42,1.567,1.567,0,0,0,.783-.042,6.163,6.163,0,0,1,1.988-.34v.785l1.692.516.035-.423a1.021,1.021,0,0,1,1.061.186c.428.432.964.159,1.514.249-.111-.34-.215-.6-.282-.876-.063-.255-.187-.338-.455-.32-.521.035-.738-.184-.786-.717-.008-.091-.028-.181-.045-.282-.247.112-.247.112-.574.909a1.061,1.061,0,0,1-.547-.938.4.4,0,0,0-.033-.142A1.4,1.4,0,0,0,24.6,8.385c-.036.659.627.672.927.981a1.043,1.043,0,0,0-.083.345c.041.276-.161.326-.334.353a.342.342,0,0,1-.438-.271c.172-.086.447.114.511-.184-.354-.386-.936-.477-1.16-1.025-.1.091-.2.188-.306.269-.057.043-.155.1-.2.076-.32-.143-.468.059-.62.278-.1.138-.247.253-.3.4-.188.557-.62.566-1.085.53-.049,0-.1,0-.148,0a.5.5,0,0,1-.526-.468c-.022-.127-.042-.254-.053-.381a.415.415,0,0,1,.384-.512c.364-.03.732-.007,1.116-.007l.071-.319-.288-.121a1.311,1.311,0,0,0,.037-.217c0-.283.108-.451.417-.427.348.027.514-.215.648-.468.2-.376.53-.391.884-.369.16.01.32.026.5.041l-.1-.648-.569.206a1.686,1.686,0,0,0-.127-.3.5.5,0,0,0-.216-.2c-.24-.083-.33-.3-.143-.475a3.911,3.911,0,0,1,.54-.339c.154-.1.3-.211.482-.339M26,6.423,25.362,5.7l-.072.011a.6.6,0,0,1-.46.837c-.018.005-.049.022-.048.03.01.077.022.219.041.221a3.514,3.514,0,0,0,.851,0c.123-.024.211-.232.329-.374M9.061,8.193l1.1.048a.317.317,0,0,0-.2-.459.753.753,0,0,0-.9.411m.739.2a.573.573,0,0,0-.766.523.292.292,0,0,0,.127.19.176.176,0,0,0,.163-.046c.163-.214.314-.437.477-.667M7,4.883c.7.069.824.01.779-.416L7,4.62ZM8.489,7.337c.379-.014.453-.236.443-.6l-.678.122.234.482m1.971,1.582c-.377.01-.548.134-.584.421.5.073.637-.025.584-.421m-3.418-3.5c0,.052.006.1.009.155.239-.014.478-.021.714-.053.025,0,.031-.155.056-.3l-.778.2m3.71,3.2c-.06.432.041.5.507.411.053-.411-.323-.254-.507-.411m-.181-.259h-.429v.4c.368-.006.454-.084.429-.4M27.6,8.9l-.077.024V9.56l.374-.037-.3-.62" transform="translate(0 0.001)" fill="#1e1e1e"/>
    <path id="Path_43764" data-name="Path 43764" d="M129.1,30.134c-.118.142-.206.351-.329.374a3.514,3.514,0,0,1-.851,0c-.018,0-.03-.143-.04-.221,0-.008.03-.025.048-.03a.6.6,0,0,0,.46-.837l.072-.011.641.724" transform="translate(-103.095 -23.711)" fill="#1e1e1e"/>
    <path id="Path_43765" data-name="Path 43765" d="M46.753,40.449a.752.752,0,0,1,.9-.411.317.317,0,0,1,.2.459l-1.1-.048" transform="translate(-37.693 -32.255)" fill="#1e1e1e"/>
    <path id="Path_43766" data-name="Path 43766" d="M47.38,43.219c-.162.23-.313.453-.477.667a.177.177,0,0,1-.163.046.293.293,0,0,1-.127-.19.573.573,0,0,1,.766-.523" transform="translate(-37.58 -34.827)" fill="#1e1e1e"/>
    <path id="Path_43767" data-name="Path 43767" d="M36.118,23.471v-.264l.779-.153c.046.427-.075.485-.779.416" transform="translate(-29.119 -18.587)" fill="#1e1e1e"/>
    <path id="Path_43768" data-name="Path 43768" d="M42.825,35.354l-.234-.482.678-.122c.01.368-.064.59-.443.6" transform="translate(-34.337 -28.016)" fill="#1e1e1e"/>
    <path id="Path_43769" data-name="Path 43769" d="M51.537,46.029c.053.4-.084.494-.584.421.036-.287.207-.41.584-.421" transform="translate(-41.079 -37.109)" fill="#1e1e1e"/>
    <path id="Path_43770" data-name="Path 43770" d="M36.331,27.172l.778-.2c-.025.143-.03.295-.055.3-.236.032-.476.039-.714.053,0-.052-.006-.1-.009-.155" transform="translate(-29.29 -21.748)" fill="#1e1e1e"/>
    <path id="Path_43771" data-name="Path 43771" d="M55.408,44.5c.184.157.56,0,.507.411-.466.092-.567.02-.507-.411" transform="translate(-44.657 -35.88)" fill="#1e1e1e"/>
    <path id="Path_43772" data-name="Path 43772" d="M52.755,43.17c.025.312-.061.39-.429.4v-.4Z" transform="translate(-42.186 -34.804)" fill="#1e1e1e"/>
    <path id="Path_43773" data-name="Path 43773" d="M142.1,45.944l.3.62-.374.037v-.634l.077-.024" transform="translate(-114.501 -37.04)" fill="#1e1e1e"/>
    <path id="Path_43774" data-name="Path 43774" d="M111.554,32.108c.013-.438.013-.438.405-.568a3.479,3.479,0,0,0-.248-.3c-.137-.132-.421-.156-.341-.443.075-.27.318-.25.565-.285.118.49.227,1,.769,1.226-.164.376-.391.45-1.15.369" transform="translate(-89.776 -24.601)" fill="#1e1e1e"/>
    <path id="Path_43775" data-name="Path 43775" d="M107.619,34.561a.647.647,0,0,1,.544-.787c.109-.005.3.064.315.132a.417.417,0,0,1-.124.343c-.382.329-.417.333-.735.312" transform="translate(-86.755 -27.229)" fill="#1e1e1e"/>
    <path id="Path_43776" data-name="Path 43776" d="M69.982,42.73a4.292,4.292,0,0,1,.456-.256,1.547,1.547,0,0,1,.376-.039,3.838,3.838,0,0,1-.481.466c-.183.122-.32.021-.352-.172" transform="translate(-56.42 -34.211)" fill="#1e1e1e"/>
  </g>
</svg>
