<svg id="Group_35118" data-name="Group 35118" xmlns="http://www.w3.org/2000/svg" xmlns:xlink="http://www.w3.org/1999/xlink" width="30.358" height="28.883" viewBox="0 0 30.358 28.883">
  <defs>
    <clipPath id="clip-path">
      <rect id="Rectangle_19287" data-name="Rectangle 19287" width="30.358" height="28.884" fill="#1e1e1e"/>
    </clipPath>
  </defs>
  <g id="Group_35117" data-name="Group 35117" clip-path="url(#clip-path)">
    <path id="Path_43556" data-name="Path 43556" d="M0,28.524v-.3a14.134,14.134,0,0,0,1.044-1.534,15.221,15.221,0,0,0,1.333-5.23,1.01,1.01,0,0,0-.2-.739,12.234,12.234,0,0,1-1.92-4.558C.149,15.6.086,15.017,0,14.443v-1.6c.065-.448.112-.9.2-1.343A13.208,13.208,0,0,1,5.637,3.058,15.911,15.911,0,0,1,17.126.118,15.307,15.307,0,0,1,25.8,3.923a12.844,12.844,0,0,1,4.511,8.8,12.013,12.013,0,0,1-1.866,7.586A14.949,14.949,0,0,1,17.5,27.2a16.23,16.23,0,0,1-8.3-.931.636.636,0,0,0-.434.037c-.432.192-.845.428-1.278.619a28.8,28.8,0,0,1-6.754,1.94A.611.611,0,0,1,0,28.524M8.1,15.7a2.024,2.024,0,1,0-2.027-2.007A2.031,2.031,0,0,0,8.1,15.7m14.164,0a2.024,2.024,0,1,0-2.024-2.012A2.029,2.029,0,0,0,22.266,15.7m-7.075,0a2.023,2.023,0,1,0-2.029-2.009A2.02,2.02,0,0,0,15.191,15.7" transform="translate(0 0)" fill="#1e1e1e"/>
  </g>
</svg>
