<svg id="Group_35171" data-name="Group 35171" xmlns="http://www.w3.org/2000/svg" xmlns:xlink="http://www.w3.org/1999/xlink" width="33.481" height="22.376" viewBox="0 0 33.481 22.376">
  <defs>
    <clipPath id="clip-path">
      <rect id="Rectangle_19341" data-name="Rectangle 19341" width="33.481" height="22.376" fill="#fff"/>
    </clipPath>
  </defs>
  <g id="Group_35169" data-name="Group 35169" clip-path="url(#clip-path)">
    <path id="Path_43777" data-name="Path 43777" d="M109.487,132.1H92.928a1.5,1.5,0,0,1-.022-.176c0-1.721-.057-3.444.017-5.162a7.093,7.093,0,0,1,3.545-5.988.365.365,0,0,1,.5.028,6.827,6.827,0,0,0,8.437.015.387.387,0,0,1,.53-.04,7.139,7.139,0,0,1,3.54,6.1c.057,1.73.011,3.463.011,5.225" transform="translate(-84.455 -109.738)" fill="#fff"/>
    <path id="Path_43778" data-name="Path 43778" d="M127.933,11.272a5.636,5.636,0,1,1,5.656-5.614,5.641,5.641,0,0,1-5.656,5.614" transform="translate(-111.213 -0.001)" fill="#fff"/>
    <path id="Path_43779" data-name="Path 43779" d="M241.76,10.234c2.288-3.06,2.272-6.107,0-9.166a5.749,5.749,0,0,1,7.4.621,5.659,5.659,0,0,1,.143,7.757,5.768,5.768,0,0,1-7.546.788" transform="translate(-219.82 -0.002)" fill="#fff"/>
    <path id="Path_43780" data-name="Path 43780" d="M7.2,132.14H.046a2.453,2.453,0,0,1-.029-.266c0-1.687-.049-3.377.015-5.061a7.076,7.076,0,0,1,3.525-6,.387.387,0,0,1,.531.024A6.806,6.806,0,0,0,8.24,122.3c.09,0,.181,0,.271.008.019,0,.037.019.076.041-.034.066-.065.135-.1.2a8.528,8.528,0,0,0-1.289,4.611c.007,1.517,0,3.035,0,4.552v.429" transform="translate(0 -109.765)" fill="#fff"/>
    <path id="Path_43781" data-name="Path 43781" d="M282.714,132.126h-7.157c0-.138,0-.27,0-.4,0-1.619.006-3.238-.009-4.857a8.267,8.267,0,0,0-1.252-4.278c-.046-.075-.088-.152-.146-.252.5-.052.983-.081,1.456-.154a6.465,6.465,0,0,0,3.068-1.356.365.365,0,0,1,.5-.032,7.1,7.1,0,0,1,3.545,6.057c.058,1.674.014,3.351.014,5.027,0,.076-.013.153-.021.246" transform="translate(-249.27 -109.757)" fill="#fff"/>
    <path id="Path_43782" data-name="Path 43782" d="M38.271,1.227a6.936,6.936,0,0,0-.008,9.124,5.561,5.561,0,0,1-7.245-.594,5.617,5.617,0,0,1,7.253-8.53" transform="translate(-26.707 -0.146)" fill="#fff"/>
  </g>
</svg>
