<svg id="Group_35119" data-name="Group 35119" xmlns="http://www.w3.org/2000/svg" xmlns:xlink="http://www.w3.org/1999/xlink" width="20.605" height="24.719" viewBox="0 0 20.605 24.719">
  <defs>
    <clipPath id="clip-path">
      <rect id="Rectangle_19288" data-name="Rectangle 19288" width="20.605" height="24.718" fill="#fff"/>
    </clipPath>
  </defs>
  <g id="Group_35119-2" data-name="Group 35119" clip-path="url(#clip-path)">
    <path id="Path_43557" data-name="Path 43557" d="M75.947,0c.321.064.645.12.964.194a6,6,0,0,1,4.355,4.837,5.78,5.78,0,0,1-.851,4.106,5.827,5.827,0,0,1-4.651,2.751A5.954,5.954,0,0,1,74.152.123c.227-.046.456-.082.684-.123Z" transform="translate(-65.234)" fill="#fff"/>
    <path id="Path_43558" data-name="Path 43558" d="M10.3,210.375H4.433a4.617,4.617,0,0,1-2.781-.791,3.659,3.659,0,0,1-1.6-2.746,12.872,12.872,0,0,1,.831-5.963,5.047,5.047,0,0,1,2.268-2.724,4.522,4.522,0,0,1,2.247-.544,1.72,1.72,0,0,1,.74.25c.373.2.719.457,1.082.68a5.494,5.494,0,0,0,6.182-.01c.287-.178.579-.35.849-.551a2.063,2.063,0,0,1,1.625-.335,4.581,4.581,0,0,1,3.5,2.511,10.339,10.339,0,0,1,1.127,4.008A19.526,19.526,0,0,1,20.6,206.3a3.946,3.946,0,0,1-3.7,4.027,7.863,7.863,0,0,1-.794.043q-2.908.005-5.816,0" transform="translate(0 -185.657)" fill="#fff"/>
  </g>
</svg>
