<svg id="Group_35180" data-name="Group 35180" xmlns="http://www.w3.org/2000/svg" xmlns:xlink="http://www.w3.org/1999/xlink" width="80.966" height="105.636" viewBox="0 0 80.966 105.636">
  <defs>
    <clipPath id="clip-path">
      <rect id="Rectangle_19350" data-name="Rectangle 19350" width="80.966" height="105.636" fill="#ef820d"/>
    </clipPath>
  </defs>
  <g id="Group_35180-2" data-name="Group 35180" clip-path="url(#clip-path)">
    <path id="Path_43826" data-name="Path 43826" d="M25.86,108.6a3.481,3.481,0,0,1-1.616-2.139c-1.5-4.274-3.029-8.536-4.55-12.8-.113-.316-.242-.625-.393-1.011-2.533.681-5.008,1.342-7.481,2.011-2.315.626-4.63,1.252-6.94,1.9a2.309,2.309,0,0,1-2.706-.65,2.275,2.275,0,0,1,.019-2.692q5.019-9.575,10.011-19.164c.172-.329.325-.667.5-1.031a43.286,43.286,0,0,1-7.061-8.862C-6.2,44.4,1.261,18.055,21.758,7.611a74.11,74.11,0,0,1,8.7-3.371,1.947,1.947,0,0,1,2.509.859A1.8,1.8,0,0,1,32.8,7.389a3.819,3.819,0,0,1-1.668.906,34.942,34.942,0,0,0-12.491,6.092C8.6,22.227,3.667,32.566,4.214,45.3A36.21,36.21,0,0,0,31.319,78.78c19.522,5.253,40.1-7.191,44.564-26.953A36.346,36.346,0,0,0,49.727,8.3c-1.034-.279-1.862-.748-2.016-1.913A2.048,2.048,0,0,1,50.6,4.268a59.177,59.177,0,0,1,8.681,3.4c11.585,6.239,18.837,15.9,21.039,28.9C82.628,50.2,78.731,62.113,69.146,72.11a10.418,10.418,0,0,1-.97.8c.323.627.569,1.111.82,1.592q4.883,9.357,9.765,18.713c.642,1.231.6,2.119-.106,2.849a2.39,2.39,0,0,1-2.576.49q-6.639-1.823-13.286-3.622c-.357-.1-.72-.172-1.164-.276-.944,2.634-1.871,5.209-2.79,7.785-.726,2.036-1.377,4.1-2.2,6.1A10.156,10.156,0,0,1,55.1,108.6H53.865a10.768,10.768,0,0,1-1.557-1.826c-3.761-7.124-7.473-14.273-11.2-21.415-.18-.346-.372-.685-.625-1.149-.272.5-.456.82-.628,1.149-3.728,7.142-7.44,14.291-11.2,21.415A10.766,10.766,0,0,1,27.1,108.6ZM36,83.836a40.718,40.718,0,0,1-20.052-8.061L7.752,91.494c4.148-1.128,8.01-2.184,11.876-3.228,1.66-.448,2.523,0,3.105,1.621.777,2.161,1.537,4.329,2.308,6.492.567,1.59,1.141,3.178,1.8,5L36,83.836M73.2,91.473l-8.2-15.7a40.83,40.83,0,0,1-20.034,8.086l9.158,17.535c1.421-3.993,2.75-7.736,4.087-11.475.586-1.638,1.441-2.1,3.088-1.66,1.523.4,3.042.823,4.563,1.234L73.2,91.473" transform="translate(0 -2.961)" fill="#ef820d"/>
    <path id="Path_43827" data-name="Path 43827" d="M142.342,0c.164.114.33.225.491.343a1.953,1.953,0,0,1,.837,2.32,2.035,2.035,0,0,1-3.9,0,1.959,1.959,0,0,1,.84-2.32c.161-.118.328-.229.492-.343Z" transform="translate(-101.244)" fill="#ef820d"/>
    <path id="Path_43828" data-name="Path 43828" d="M97.779,67.8A30.193,30.193,0,1,1,67.738,37.506,30.249,30.249,0,0,1,97.779,67.8m-56.268-.037a26.075,26.075,0,1,0,26.063-26.13,26.127,26.127,0,0,0-26.063,26.13" transform="translate(-27.106 -27.188)" fill="#ef820d"/>
    <path id="Path_43829" data-name="Path 43829" d="M85.265,123.169c-1.222-3.144-2.4-6.219-3.617-9.279a2.267,2.267,0,0,1,.24-2.595,2.313,2.313,0,0,1,2.475-.512c2.7.625,5.421,1.2,8.115,1.865.741.183,1.016-.041,1.31-.672,1.174-2.52,2.414-5.009,3.6-7.522a2.143,2.143,0,0,1,4.139.017c1.2,2.544,2.46,5.063,3.65,7.613a.857.857,0,0,0,1.173.583c2.731-.657,5.477-1.255,8.215-1.889a2.157,2.157,0,0,1,2.689,3.13c-1.218,3.059-2.393,6.135-3.581,9.194.072.067.112.138.164.149,1.468.321,2.218,1.164,2.071,2.335-.145,1.15-1.027,1.812-2.465,1.812q-13.9.005-27.8,0c-1.615,0-2.513-.627-2.651-1.835-.134-1.18.619-2,2.266-2.4M99.459,109.69c-.944,1.948-1.782,3.668-2.613,5.391-1.1,2.28-1.468,2.451-3.92,1.88-1.99-.463-3.986-.9-6.189-1.4,1,2.579,1.914,4.967,2.874,7.336a.93.93,0,0,0,.728.361q9.108.03,18.216,0c.256,0,.666-.153.743-.342.963-2.373,1.877-4.766,2.85-7.275-.344.045-.539.054-.728.1-2.04.454-4.077.917-6.117,1.368-1.561.345-2.252,0-2.961-1.455-.928-1.909-1.847-3.821-2.882-5.962" transform="translate(-58.977 -74.576)" fill="#ef820d"/>
  </g>
</svg>
