<svg id="Group_35179" data-name="Group 35179" xmlns="http://www.w3.org/2000/svg" xmlns:xlink="http://www.w3.org/1999/xlink" width="105.832" height="93.922" viewBox="0 0 105.832 93.922">
  <defs>
    <clipPath id="clip-path">
      <rect id="Rectangle_19349" data-name="Rectangle 19349" width="105.832" height="93.922" fill="#ef820d"/>
    </clipPath>
  </defs>
  <g id="Group_35179-2" data-name="Group 35179" clip-path="url(#clip-path)">
    <path id="Path_43825" data-name="Path 43825" d="M105.832,28.719l-12.3,16.47c-.062.083-.123.166-.186.249q-1.3,1.7-2.512.774c-.788-.6-.772-1.536.06-2.642,3-3.993,6.011-7.983,9.132-12.127-.412.089-.658.122-.891.2-7.446,2.345-14.895,4.683-22.327,7.071a1.969,1.969,0,0,0-1.076,1.051Q66.848,63.136,58.027,86.536a1.984,1.984,0,0,0-.161.9l7.273-9.66Q75.405,64.141,85.671,50.507c.982-1.3,1.788-1.607,2.63-1,.864.624.8,1.561-.194,2.881C78.463,65.2,68.735,77.942,59.223,90.848c-2.926,3.97-9.686,4.225-12.594,0-2.7-3.915-5.691-7.625-8.554-11.425-.145-.193-.3-.382-.435-.579-.7-.98-.656-1.931.1-2.469s1.654-.3,2.383.659q3.494,4.62,6.973,9.252a5.578,5.578,0,0,0,.988,1.085c-.127-.38-.242-.765-.383-1.139q-8.773-23.2-17.572-46.384a1.993,1.993,0,0,0-1.02-1.112c-7.564-2.428-15.146-4.8-22.724-7.186-.123-.039-.25-.066-.6-.157.375.513.624.861.881,1.2L34.915,70.115c.083.11.161.224.243.335.817,1.106.82,2.054.008,2.624-.794.557-1.65.3-2.447-.752q-6.569-8.714-13.13-17.434-9.142-12.15-18.279-24.3C1.166,30.391,1.018,30.2.879,30-.31,28.3-.3,27.992.956,26.375q8.1-10.41,16.183-20.83a3.646,3.646,0,0,1,2.64-1.533c5.362-.664,10.711-1.433,16.065-2.164,1.274-.174,2.083.3,2.2,1.281s-.513,1.609-1.809,1.784c-2.485.336-4.97.678-7.463,1.183q4.606.949,9.212,1.9c4.551.928,9.1,1.882,13.659,2.746a7.608,7.608,0,0,0,2.829-.05C61.993,9.2,69.5,7.646,77.035,5.947c-1.384-.2-2.766-.417-4.153-.6-5.6-.733-11.191-1.482-16.793-2.172a36.7,36.7,0,0,0-9.677.369c-.716.1-1.429.223-2.148.292A1.571,1.571,0,0,1,42.37,2.519,1.574,1.574,0,0,1,43.88.771,53.456,53.456,0,0,1,61.047.622c7.382,1.131,14.8,2.033,22.2,3.031,1.16.157,2.339.223,3.473.489a2.888,2.888,0,0,1,1.488.964q7.153,9.046,14.237,18.148c1.145,1.465,2.259,2.953,3.387,4.431ZM72.594,39.32H33.229l19.528,51.6.324-.034L72.594,39.32m-1.159-3.2L52.911,14.947,34.39,36.118ZM31.51,34.739l18.5-21.152-28.58-5.83L31.51,34.739m24.3-21.151,18.5,21.148L84.395,7.755,55.813,13.588M18.531,8.8,3.947,27.549,28.42,35.265,18.531,8.8M77.4,35.27l24.473-7.723L87.293,8.805,77.4,35.27" transform="translate(0 0)" fill="#ef820d"/>
  </g>
</svg>
