<svg xmlns="http://www.w3.org/2000/svg" width="30" height="30" viewBox="0 0 30 30">
  <path id="Icon_material-tag-faces" data-name="Icon material-tag-faces" d="M17.985,3A15,15,0,1,0,33,18,14.993,14.993,0,0,0,17.985,3ZM18,30A12,12,0,1,1,30,18,12,12,0,0,1,18,30Zm5.25-13.5A2.25,2.25,0,1,0,21,14.25,2.247,2.247,0,0,0,23.25,16.5Zm-10.5,0a2.25,2.25,0,1,0-2.25-2.25A2.247,2.247,0,0,0,12.75,16.5ZM18,26.25A8.244,8.244,0,0,0,25.665,21H10.335A8.244,8.244,0,0,0,18,26.25Z" transform="translate(-3 -3)" fill="#6d6d6d"/>
</svg>
